SplineFontDB: 3.0
FontName: Oswald
FullName: empty
FamilyName: Oswald
Weight: empty
Copyright: 2010-13 (c) Vernon Adams
Version: 4
ItalicAngle: 0
UnderlinePosition: 0
UnderlineWidth: 0
Ascent: 1658
Descent: 390
UFOAscent: 1658
UFODescent: -390
LayerCount: 2
Layer: 0 0 "Back"  1
Layer: 1 0 "Fore"  0
FSType: 0
OS2Version: 0
OS2_WeightWidthSlopeOnly: 0
OS2_UseTypoMetrics: 0
CreationTime: 1372440913
ModificationTime: 1372445136
PfmFamily: 0
TTFWeight: 400
TTFWidth: 5
LineGap: 0
VLineGap: 0
OS2TypoAscent: 1658
OS2TypoAOffset: 0
OS2TypoDescent: -390
OS2TypoDOffset: 0
OS2TypoLinegap: 0
OS2WinAscent: 1658
OS2WinAOffset: 0
OS2WinDescent: 390
OS2WinDOffset: 0
HheadAscent: 1658
HheadAOffset: 0
HheadDescent: -390
HheadDOffset: 0
OS2Vendor: 'newt'
Lookup: 258 0 0 "'kern' Horizontal Kerning in Cyrillic lookup 0"  {"'kern' Horizontal Kerning in Cyrillic lookup 0 subtable"  } ['kern' ('cyrl' <'dflt' > ) ]
Lookup: 258 0 0 "'kern' Horizontal Kerning in Latin lookup 0"  {"'kern' Horizontal Kerning in Latin lookup 0 subtable"  } ['kern' ('latn' <'dflt' > ) ]
Lookup: 258 0 0 "kernHorizontalKerninginLatinloo"  {"kernHorizontalKerninginLatinloo per glyph data 0"  "kernHorizontalKerninginLatinloo kerning class 1"  } ['kern' ('latn' <'dflt' > ) ]
Lookup: 260 0 0 "markMarkPositioninglookup5"  {"markMarkPositioninglookup5 subtable"  } ['mark' ('latn' <'dflt' > 'grek' <'dflt' > 'cyrl' <'dflt' > 'DFLT' <'dflt' > ) ]
DEI: 91125
KernClass2: 22 24 "kernHorizontalKerninginLatinloo kerning class 1" 
 81 A Aacute Abreve Acircumflex Adieresis Agrave Amacron Aogonek Aring Atilde uni0202
 75 D Eth O Oacute Ocircumflex Odieresis Ograve Oslash Otilde Q uni020C uni020E
 1 F
 1 J
 1 K
 1 L
 1 P
 44 R Racute Rcaron Rcommaaccent uni0210 uni0212
 22 T Tcommaaccent uni021A
 45 U Uacute Ucircumflex Udieresis Ugrave uni0216
 1 V
 1 W
 18 Y Yacute Ydieresis
 69 b o oacute ocircumflex odieresis ograve oslash otilde p thorn uni020F
 27 k kcommaaccent kgreenlandic
 29 r rcaron rcommaaccent uni0213

StartChar: A
Encoding: 65 65 0
Width: 1015
VWidth: 0
GlyphClass: 2
Flags: W
HStem: 0 21G<-16 225.825 692.495 931> 412 178<391 650> 1638 20G<506.619 752.183>
AnchorPoint: "ogonek" 802 0 basechar 0
LayerCount: 2
UndoRedoHistory
Layer: 1
Undoes
EndUndoes
Redoes
EndRedoes
EndUndoRedoHistory
Fore
SplineSet
391 590 m 1
 650 590 l 1
 595 1302 l 1
 391 590 l 1
-16 0 m 1
 513 1658 l 1
 750 1658 l 1
 931 0 l 1
 694 0 l 1
 663 412 l 1
 340 412 l 1
 220 0 l 1
 -16 0 l 1
EndSplineSet
EndChar

StartChar: AE
Encoding: 198 198 1
Width: 1302
VWidth: 0
GlyphClass: 2
Flags: W
HStem: 0 178<798 1193> 414 178<375 586> 769 178<879 1156> 1480 178<935 1349>
LayerCount: 2
UndoRedoHistory
Layer: 1
Undoes
EndUndoes
Redoes
EndRedoes
EndUndoRedoHistory
Fore
SplineSet
375 592 m 1
 604 592 l 1
 668 1200 l 1
 375 592 l 1
-166 0 m 1
 715 1658 l 1
 1367 1658 l 1
 1349 1480 l 1
 935 1480 l 1
 879 947 l 1
 1175 947 l 1
 1156 769 l 1
 860 769 l 1
 798 178 l 1
 1212 178 l 1
 1193 0 l 1
 542 0 l 1
 586 414 l 1
 290 414 l 1
 69 0 l 1
 -166 0 l 1
EndSplineSet
EndChar

StartChar: B
Encoding: 66 66 11
Width: 1084
VWidth: 0
GlyphClass: 2
Flags: W
HStem: 0 178<345 664.14> 782 189<428 696.287> 1474 184<481 786.438>
LayerCount: 2
UndoRedoHistory
Layer: 1
Undoes
EndUndoes
Redoes
EndRedoes
EndUndoRedoHistory
Fore
SplineSet
428 971 m 1
 542 971 l 2
 738 971 807 1043 828 1243 c 0
 852 1477 744 1474 511 1474 c 2
 481 1474 l 1
 428 971 l 1
345 178 m 1
 484 178 l 2
 688 178 750 266 772 473 c 0
 793 680 726 782 522 782 c 2
 408 782 l 1
 345 178 l 1
76 0 m 1
 250 1658 l 1
 635 1658 l 2
 934 1658 1075 1536 1045 1243 c 0
 1022 1028 927 912 764 893 c 1
 957 846 1036 720 1010 473 c 0
 979 180 818 0 525 0 c 2
 76 0 l 1
EndSplineSet
EndChar

StartChar: C
Encoding: 67 67 12
Width: 1062
VWidth: 0
GlyphClass: 2
Flags: W
HStem: -17 195<387.429 650.849> 1480 194<517.412 783.46>
LayerCount: 2
UndoRedoHistory
Layer: 1
Undoes
EndUndoes
Redoes
EndRedoes
EndUndoRedoHistory
Fore
SplineSet
495 -17 m 0
 139 -17 70 226 103 541 c 2
 163 1109 l 2
 199 1453 317 1674 673 1674 c 0
 988 1674 1079 1497 1048 1195 c 1
 1033 1056 l 1
 796 1056 l 1
 809 1177 l 2
 827 1352 846 1480 655 1480 c 0
 467 1480 440 1347 418 1145 c 2
 351 501 l 2
 324 251 371 178 518 178 c 0
 700 178 717 309 738 501 c 1
 751 627 l 1
 988 627 l 1
 974 497 l 1
 942 190 827 -17 495 -17 c 0
EndSplineSet
EndChar

StartChar: D
Encoding: 68 68 18
Width: 1082
VWidth: 0
GlyphClass: 2
Flags: W
HStem: 0 178<345 618.409> 1474 184<481 752.705>
LayerCount: 2
UndoRedoHistory
Layer: 1
Undoes
EndUndoes
Redoes
EndRedoes
EndUndoRedoHistory
Fore
SplineSet
76 0 m 1
 250 1658 l 1
 610 1658 l 2
 985 1658 1093 1495 1057 1147 c 2
 994 549 l 2
 956 187 807 0 454 0 c 2
 76 0 l 1
345 178 m 1
 455 178 l 2
 705 178 718 324 747 598 c 2
 802 1118 l 1
 828 1374 821 1474 586 1474 c 2
 481 1474 l 1
 345 178 l 1
EndSplineSet
EndChar

StartChar: Dcroat
Encoding: 264 272 20
Width: 1087
VWidth: 0
GlyphClass: 2
Flags: W
HStem: 0 178<350 623.409> 788 141<84 164 429 527> 1474 184<486 757.705>
LayerCount: 2
UndoRedoHistory
Layer: 1
Undoes
EndUndoes
Redoes
EndRedoes
EndUndoRedoHistory
Fore
SplineSet
81 0 m 1
 164 788 l 1
 69 788 l 1
 84 929 l 1
 179 929 l 1
 255 1658 l 1
 615 1658 l 2
 990 1658 1098 1495 1062 1147 c 2
 999 549 l 2
 961 187 812 0 459 0 c 2
 81 0 l 1
350 178 m 1
 460 178 l 2
 710 178 723 324 752 598 c 2
 807 1118 l 1
 833 1374 826 1474 591 1474 c 2
 486 1474 l 1
 429 929 l 1
 542 929 l 1
 527 788 l 1
 414 788 l 1
 350 178 l 1
EndSplineSet
EndChar

StartChar: Delta
Encoding: 265 916 21
Width: 991
VWidth: 0
GlyphClass: 2
Flags: W
HStem: 0 139<248 676> 1638 20G<504.498 730.304>
LayerCount: 2
UndoRedoHistory
Layer: 1
Undoes
EndUndoes
Redoes
EndRedoes
EndUndoRedoHistory
Fore
SplineSet
-28 0 m 1
 511 1658 l 1
 728 1658 l 1
 919 0 l 1
 -28 0 l 1
248 139 m 1
 676 139 l 1
 645 530 610 917 585 1313 c 1
 486 949 l 1
 248 139 l 1
EndSplineSet
EndChar

StartChar: E
Encoding: 69 69 22
Width: 839
VWidth: 0
GlyphClass: 2
Flags: W
HStem: 0 178<345 734> 767 178<425 734> 1474 184<481 884>
AnchorPoint: "ogonek" 512 0 basechar 0
LayerCount: 2
UndoRedoHistory
Layer: 1
Undoes
EndUndoes
Redoes
EndRedoes
EndUndoRedoHistory
Fore
SplineSet
76 0 m 1
 250 1658 l 1
 903 1658 l 1
 884 1474 l 1
 481 1474 l 1
 425 945 l 1
 752 945 l 1
 734 767 l 1
 407 767 l 1
 345 178 l 1
 753 178 l 1
 734 0 l 1
 76 0 l 1
EndSplineSet
EndChar

StartChar: Eng
Encoding: 269 330 30
Width: 1085
VWidth: 0
GlyphClass: 2
Flags: W
HStem: -389 170<467 644.902> 0 21G<76 275.108> 1638 20G<247.901 424.812 885.894 1083>
LayerCount: 2
UndoRedoHistory
Layer: 1
Undoes
EndUndoes
Redoes
EndRedoes
EndUndoRedoHistory
Fore
SplineSet
449 -389 m 1
 467 -219 l 1
 678 -219 695 -158 715 26 c 1
 722 97 l 1
 388 1091 l 1
 273 0 l 1
 76 0 l 1
 250 1658 l 1
 418 1658 l 1
 777 604 l 1
 888 1658 l 1
 1083 1658 l 1
 909 0 l 2
 882 -254 803 -389 531 -389 c 2
 449 -389 l 1
EndSplineSet
EndChar

StartChar: Eth
Encoding: 208 208 32
Width: 1047
VWidth: 0
GlyphClass: 2
Flags: W
HStem: 0 178<345 618.409> 788 141<79 159 424 522> 1474 184<481 752.705>
LayerCount: 2
UndoRedoHistory
Layer: 1
Undoes
EndUndoes
Redoes
EndRedoes
EndUndoRedoHistory
Fore
SplineSet
76 0 m 1
 159 788 l 1
 64 788 l 1
 79 929 l 1
 174 929 l 1
 250 1658 l 1
 610 1658 l 2
 985 1658 1093 1495 1057 1147 c 2
 994 549 l 2
 956 187 807 0 454 0 c 2
 76 0 l 1
345 178 m 1
 455 178 l 2
 705 178 718 324 747 598 c 2
 802 1118 l 1
 828 1374 821 1474 586 1474 c 2
 481 1474 l 1
 424 929 l 1
 537 929 l 1
 522 788 l 1
 409 788 l 1
 345 178 l 1
EndSplineSet
EndChar

StartChar: Euro
Encoding: 271 8364 33
Width: 1023
VWidth: 0
GlyphClass: 2
Flags: W
HStem: -17 195<387.429 650.849> 614 129<7 111 376 554> 933 130<41 144 410 587> 1480 194<517.412 783.46>
LayerCount: 2
UndoRedoHistory
Layer: 1
Undoes
EndUndoes
Redoes
EndRedoes
EndUndoRedoHistory
Fore
SplineSet
495 -17 m 0
 139 -17 70 226 103 541 c 1
 111 614 l 1
 -6 614 l 1
 7 743 l 1
 124 743 l 1
 144 933 l 1
 27 933 l 1
 41 1063 l 1
 158 1063 l 1
 163 1109 l 1
 199 1453 317 1674 673 1674 c 0
 988 1674 1079 1497 1048 1195 c 1
 1038 1106 l 1
 801 1106 l 1
 809 1177 l 1
 827 1352 846 1480 655 1480 c 0
 467 1480 440 1347 418 1145 c 1
 410 1063 l 1
 601 1063 l 1
 587 933 l 1
 396 933 l 1
 376 743 l 1
 567 743 l 1
 554 614 l 1
 363 614 l 1
 351 501 l 2
 324 251 371 178 518 178 c 0
 700 178 717 309 738 501 c 2
 746 577 l 1
 983 577 l 1
 974 497 l 1
 942 190 827 -17 495 -17 c 0
EndSplineSet
EndChar

StartChar: F
Encoding: 70 70 34
Width: 802
VWidth: 0
GlyphClass: 2
Flags: W
HStem: 0 21G<76 328.107> 769 178<426 711> 1480 178<482 883>
LayerCount: 2
UndoRedoHistory
Layer: 1
Undoes
EndUndoes
Redoes
EndRedoes
EndUndoRedoHistory
Fore
SplineSet
76 0 m 1
 250 1658 l 1
 901 1658 l 1
 883 1480 l 1
 482 1480 l 1
 426 947 l 1
 730 947 l 1
 711 769 l 1
 407 769 l 1
 326 0 l 1
 76 0 l 1
EndSplineSet
EndChar

StartChar: G
Encoding: 71 71 35
Width: 1104
VWidth: 0
GlyphClass: 2
Flags: W
HStem: -20 198<391.534 646.319> 0 21G<791.688 952.104> 651 176<609 792> 1480 194<519.221 795.697>
VStem: 792 158<0 136.274>
LayerCount: 2
UndoRedoHistory
Layer: 1
Undoes
EndUndoes
Redoes
EndRedoes
EndUndoRedoHistory
Fore
SplineSet
474 -20 m 0xb8
 163 -20 65 185 104 554 c 2
 160 1085 l 2
 200 1461 316 1674 672 1674 c 0
 987 1674 1096 1522 1061 1187 c 1
 1054 1125 l 1
 820 1125 l 1
 825 1175 l 1
 847 1384 838 1480 656 1480 c 0
 458 1480 435 1327 414 1125 c 2
 351 528 l 2
 326 289 352 178 525 178 c 0xb8
 700 178 756 303 782 555 c 2
 792 651 l 1
 590 651 l 1
 609 827 l 1
 1037 827 l 1
 950 0 l 1
 792 0 l 1x78
 789 192 l 1
 732 70 637 -20 474 -20 c 0xb8
EndSplineSet
EndChar

StartChar: H
Encoding: 72 72 40
Width: 1154
VWidth: 0
GlyphClass: 2
Flags: W
HStem: 0 21G<76 328.107 728 980.099> 769 178<426 809> 1638 20G<247.901 500 899.918 1152>
LayerCount: 2
UndoRedoHistory
Layer: 1
Undoes
EndUndoes
Redoes
EndRedoes
EndUndoRedoHistory
Fore
SplineSet
76 0 m 1
 250 1658 l 1
 500 1658 l 1
 426 947 l 1
 828 947 l 1
 902 1658 l 1
 1152 1658 l 1
 978 0 l 1
 728 0 l 1
 809 769 l 1
 407 769 l 1
 326 0 l 1
 76 0 l 1
EndSplineSet
EndChar

StartChar: Hbar
Encoding: 276 294 41
Width: 1154
VWidth: 0
GlyphClass: 2
Flags: W
HStem: 0 21G<76 328.107 728 980.095> 769 178<426 809> 1260 128<122 208 472 860 1124 1210> 1638 20G<247.926 500 899.926 1152>
LayerCount: 2
UndoRedoHistory
Layer: 1
Undoes
EndUndoes
Redoes
EndRedoes
EndUndoRedoHistory
Fore
SplineSet
426 947 m 1
 828 947 l 1
 860 1260 l 1
 458 1260 l 1
 426 947 l 1
76 0 m 1
 208 1260 l 1
 108 1260 l 1
 122 1388 l 1
 222 1388 l 1
 250 1658 l 1
 500 1658 l 1
 472 1388 l 1
 874 1388 l 1
 902 1658 l 1
 1152 1658 l 1
 1124 1388 l 1
 1224 1388 l 1
 1210 1260 l 1
 1110 1260 l 1
 978 0 l 1
 728 0 l 1
 809 769 l 1
 407 769 l 1
 326 0 l 1
 76 0 l 1
EndSplineSet
EndChar

StartChar: I
Encoding: 73 73 43
Width: 520
VWidth: 0
GlyphClass: 2
Flags: W
HStem: 0 21G<89 336.099> 1638 20G<260.901 508>
VStem: 89 419
LayerCount: 2
UndoRedoHistory
Layer: 1
Undoes
EndUndoes
Redoes
EndRedoes
EndUndoRedoHistory
Fore
SplineSet
89 0 m 1
 263 1658 l 1
 508 1658 l 1
 334 0 l 1
 89 0 l 1
EndSplineSet
EndChar

StartChar: IJ
Encoding: 278 306 44
Width: 1093
VWidth: 0
GlyphClass: 2
Flags: W
HStem: -31 178<481 668.709> 0 21G<89 336.099> 1638 20G<260.901 508 874.904 1127>
LayerCount: 2
UndoRedoHistory
Layer: 1
Undoes
EndUndoes
Redoes
EndRedoes
EndUndoRedoHistory
Fore
SplineSet
89 0 m 1x60
 263 1658 l 1
 508 1658 l 1
 334 0 l 1
 89 0 l 1x60
463 -31 m 1xa0
 481 147 l 1
 675 147 723 190 744 389 c 2
 877 1658 l 1
 1127 1658 l 1
 994 386 l 1
 963 101 869 -31 581 -31 c 2
 463 -31 l 1xa0
EndSplineSet
EndChar

StartChar: J
Encoding: 74 74 54
Width: 629
VWidth: 0
GlyphClass: 2
Flags: W
HStem: -31 178<-21 166.709> 1638 20G<372.904 625>
VStem: -39 664
LayerCount: 2
UndoRedoHistory
Layer: 1
Undoes
EndUndoes
Redoes
EndRedoes
EndUndoRedoHistory
Fore
SplineSet
-39 -31 m 1
 -21 147 l 1
 173 147 221 190 242 389 c 2
 375 1658 l 1
 625 1658 l 1
 492 386 l 1
 461 101 367 -31 79 -31 c 2
 -39 -31 l 1
EndSplineSet
EndChar

StartChar: K
Encoding: 75 75 56
Width: 1025
VWidth: 0
GlyphClass: 2
Flags: W
HStem: 0 21G<76 328.115 721.155 970> 1638 20G<247.901 500 852.311 1096>
LayerCount: 2
UndoRedoHistory
Layer: 1
Undoes
EndUndoes
Redoes
EndRedoes
EndUndoRedoHistory
Fore
SplineSet
76 0 m 1
 250 1658 l 1
 500 1658 l 1
 421 900 l 1
 864 1658 l 1
 1096 1658 l 1
 694 922 l 1
 970 0 l 1
 727 0 l 1
 490 811 l 1
 396 662 l 1
 326 0 l 1
 76 0 l 1
EndSplineSet
EndChar

StartChar: L
Encoding: 76 76 58
Width: 821
VWidth: 0
GlyphClass: 2
Flags: W
HStem: 0 178<345 737> 1638 20G<247.901 500>
VStem: 76 680
LayerCount: 2
Fore
SplineSet
76 0 m 1
 250 1658 l 1
 500 1658 l 1
 345 178 l 1
 756 178 l 1
 737 0 l 1
 76 0 l 1
EndSplineSet
EndChar

StartChar: Lslash
Encoding: 290 321 63
Width: 821
VWidth: 0
GlyphClass: 2
Flags: W
HStem: 0 178<345 737> 1638 20G<247.898 500>
LayerCount: 2
UndoRedoHistory
Layer: 1
Undoes
EndUndoes
Redoes
EndRedoes
EndUndoRedoHistory
Fore
SplineSet
76 0 m 1
 156 763 l 1
 7 684 l 1
 27 875 l 1
 176 954 l 1
 250 1658 l 1
 500 1658 l 1
 441 1093 l 1
 663 1210 l 1
 643 1019 l 1
 421 902 l 1
 345 178 l 1
 756 178 l 1
 737 0 l 1
 76 0 l 1
EndSplineSet
EndChar

StartChar: M
Encoding: 77 77 64
Width: 1361
VWidth: 0
GlyphClass: 2
Flags: W
HStem: 0 21G<74 279.347 559.5 705.752 986 1188.76> 1638 20G<273.563 522.195 1083.57 1333>
LayerCount: 2
UndoRedoHistory
Layer: 1
Undoes
EndUndoes
Redoes
EndRedoes
EndUndoRedoHistory
Fore
SplineSet
74 0 m 1
 276 1658 l 1
 520 1658 l 1
 665 337 l 1
 1090 1658 l 1
 1333 1658 l 1
 1187 0 l 1
 986 0 l 1
 1096 1176 l 1
 699 0 l 1
 562 0 l 1
 415 1176 l 1
 277 0 l 1
 74 0 l 1
EndSplineSet
EndChar

StartChar: N
Encoding: 78 78 65
Width: 1085
VWidth: 0
GlyphClass: 2
Flags: W
HStem: 0 21G<76 288.108 744.584 911.099> 1638 20G<247.901 424.565 872.894 1083>
LayerCount: 2
UndoRedoHistory
Layer: 1
Undoes
EndUndoes
Redoes
EndRedoes
EndUndoRedoHistory
Fore
SplineSet
76 0 m 1
 250 1658 l 1
 418 1658 l 1
 764 604 l 1
 875 1658 l 1
 1083 1658 l 1
 909 0 l 1
 751 0 l 1
 401 1091 l 1
 286 0 l 1
 76 0 l 1
EndSplineSet
EndChar

StartChar: O
Encoding: 79 79 70
Width: 1112
VWidth: 0
GlyphClass: 2
Flags: W
HStem: -17 195<388.648 665.312> 1480 194<518.685 799.394>
AnchorPoint: "ogonek" 532 0 basechar 0
LayerCount: 2
UndoRedoHistory
Layer: 1
Undoes
EndUndoes
Redoes
EndRedoes
EndUndoRedoHistory
Fore
SplineSet
504 -17 m 0
 165 -17 66 190 101 527 c 2
 166 1140 l 2
 201 1477 343 1674 682 1674 c 0
 1019 1674 1121 1473 1086 1140 c 2
 1021 527 l 2
 986 194 841 -17 504 -17 c 0
525 178 m 0
 703 178 745 295 764 473 c 2
 839 1193 l 2
 858 1371 840 1480 662 1480 c 0
 484 1480 442 1371 423 1193 c 2
 348 473 l 2
 329 295 347 178 525 178 c 0
EndSplineSet
EndChar

StartChar: OE
Encoding: 294 338 71
Width: 1419
VWidth: 0
GlyphClass: 2
Flags: W
HStem: 0 184<403.298 675 925 1314> 767 178<1005 1314> 1480 178<537.67 812 1061 1464>
LayerCount: 2
UndoRedoHistory
Layer: 1
Undoes
EndUndoes
Redoes
EndRedoes
EndUndoRedoHistory
Fore
SplineSet
570 184 m 2
 675 184 l 1
 812 1480 l 1
 702 1480 l 2
 452 1480 438 1334 409 1060 c 2
 355 540 l 2
 328 284 335 184 570 184 c 2
546 0 m 2
 171 0 63 163 100 511 c 2
 163 1109 l 2
 201 1471 349 1658 702 1658 c 2
 1483 1658 l 1
 1464 1474 l 1
 1061 1474 l 1
 1005 945 l 1
 1332 945 l 1
 1314 767 l 1
 987 767 l 1
 925 178 l 1
 1333 178 l 1
 1314 0 l 1
 546 0 l 2
EndSplineSet
EndChar

StartChar: Oslash
Encoding: 216 216 79
Width: 1112
VWidth: 0
GlyphClass: 2
Flags: W
HStem: -17 195<388.648 665.312> 1480 194<518.685 799.394>
LayerCount: 2
UndoRedoHistory
Layer: 1
Undoes
EndUndoes
Redoes
EndRedoes
EndUndoRedoHistory
Fore
SplineSet
222 -144 m 1
 141 -118 l 1
 848 1798 l 1
 932 1776 l 1
 222 -144 l 1
EndSplineSet
Refer: 70 79 N 1 0 0 1 0 0 3
EndChar

StartChar: P
Encoding: 80 80 81
Width: 981
VWidth: 0
GlyphClass: 2
Flags: W
HStem: 0 21G<76 328.107> 769 178<426 709.437> 1480 178<482 764.996>
LayerCount: 2
UndoRedoHistory
Layer: 1
Undoes
EndUndoes
Redoes
EndRedoes
EndUndoRedoHistory
Fore
SplineSet
426 947 m 1
 507 947 l 2
 707 947 774 996 794 1194 c 1
 819 1424 802 1480 567 1480 c 2
 482 1480 l 1
 426 947 l 1
76 0 m 1
 250 1658 l 1
 665 1658 l 2
 961 1658 1062 1491 1031 1195 c 0
 1002 924 840 769 572 769 c 2
 407 769 l 1
 326 0 l 1
 76 0 l 1
EndSplineSet
EndChar

StartChar: Pi
Encoding: 298 928 82
Width: 1141
VWidth: 0
Flags: W
HStem: 0 21G<76 315.108 727 967.099> 1480 178<469 883>
LayerCount: 2
UndoRedoHistory
Layer: 1
Undoes
EndUndoes
Redoes
EndRedoes
EndUndoRedoHistory
Fore
SplineSet
76 0 m 1
 250 1658 l 1
 1139 1658 l 1
 965 0 l 1
 727 0 l 1
 883 1480 l 1
 469 1480 l 1
 313 0 l 1
 76 0 l 1
EndSplineSet
EndChar

StartChar: Q
Encoding: 81 81 83
Width: 1112
VWidth: 0
GlyphClass: 2
Flags: W
HStem: -17 195<388.648 551.86> 1480 194<518.685 799.394>
LayerCount: 2
UndoRedoHistory
Layer: 1
Undoes
EndUndoes
Redoes
EndRedoes
EndUndoRedoHistory
Fore
SplineSet
525 178 m 0
 703 178 745 295 764 473 c 2
 839 1193 l 2
 858 1371 840 1480 662 1480 c 0
 484 1480 442 1371 423 1193 c 2
 348 473 l 2
 329 295 347 178 525 178 c 0
808 -337 m 1
 699 -280 602 -128 540 -16 c 1
 528 -17 516 -17 504 -17 c 0
 165 -17 66 190 101 527 c 2
 166 1140 l 2
 201 1477 343 1674 682 1674 c 0
 1019 1674 1121 1473 1086 1140 c 2
 1021 527 l 2
 995 280 909 101 729 24 c 1
 772 -40 821 -108 868 -142 c 1
 808 -337 l 1
EndSplineSet
EndChar

StartChar: R
Encoding: 82 82 84
Width: 1066
VWidth: 0
GlyphClass: 2
Flags: W
HStem: 0 21G<76 328.107 692.619 938> 769 178<426 566> 1480 178<482 742.188>
LayerCount: 2
UndoRedoHistory
Layer: 1
Undoes
EndUndoes
Redoes
EndRedoes
EndUndoRedoHistory
Fore
SplineSet
426 947 m 1
 482 947 l 2
 676 947 770 998 793 1214 c 0
 813 1407 767 1480 555 1480 c 2
 482 1480 l 1
 426 947 l 1
76 0 m 1
 250 1658 l 1
 573 1658 l 2
 910 1658 1067 1543 1033 1214 c 0
 1012 1019 936 878 793 828 c 1
 938 0 l 1
 696 0 l 1
 566 769 l 1
 407 769 l 1
 326 0 l 1
 76 0 l 1
EndSplineSet
EndChar

StartChar: S
Encoding: 83 83 88
Width: 976
VWidth: 0
GlyphClass: 2
Flags: W
HStem: -17 195<380.154 620.521> 1184 21G<764.5 834.898>
VStem: 78 229<263.018 473> 761 218<1243 1421.31>
LayerCount: 2
UndoRedoHistory
Layer: 1
Undoes
EndUndoes
Redoes
EndRedoes
EndUndoRedoHistory
Fore
SplineSet
473 -17 m 0
 180 -17 63 183 78 473 c 1
 307 533 l 1
 297 362 323 178 494 178 c 0
 606 178 670 244 682 362 c 0
 698 511 628 583 540 670 c 1
 292 909 l 1
 193 1006 148 1108 167 1284 c 0
 193 1530 360 1671 602 1674 c 0
 878 1678 982 1529 979 1243 c 1
 761 1184 l 1
 768 1337 751 1493 582 1480 c 0
 472 1472 405 1421 393 1308 c 0
 383 1205 410 1153 477 1087 c 1
 728 848 l 1
 840 738 938 594 916 382 c 0
 890 136 708 -17 473 -17 c 0
EndSplineSet
EndChar

StartChar: T
Encoding: 84 84 94
Width: 826
VWidth: 0
GlyphClass: 2
Flags: W
HStem: 0 21G<244 496.103> 1474 184<123 399 649 933>
LayerCount: 2
UndoRedoHistory
Layer: 1
Undoes
EndUndoes
Redoes
EndRedoes
EndUndoRedoHistory
Fore
SplineSet
244 0 m 1
 399 1474 l 1
 104 1474 l 1
 123 1658 l 1
 952 1658 l 1
 933 1474 l 1
 649 1474 l 1
 494 0 l 1
 244 0 l 1
EndSplineSet
EndChar

StartChar: Tbar
Encoding: 307 358 95
Width: 826
VWidth: 0
GlyphClass: 2
Flags: W
HStem: 0 21<244 496.103> 793 140<82 726> 1474 184<123 399 649 933>
LayerCount: 2
UndoRedoHistory
Layer: 1
Undoes
EndUndoes
Redoes
EndRedoes
EndUndoRedoHistory
Fore
SplineSet
67 793 m 1
 82 933 l 1
 741 933 l 1
 726 793 l 1
 67 793 l 1
EndSplineSet
Refer: 94 84 N 1 0 0 1 0 0 3
EndChar

StartChar: Thorn
Encoding: 222 222 98
Width: 1030
VWidth: 0
GlyphClass: 2
Flags: W
HStem: 0 21G<76 328.119> 472 200<397 700.052> 1234 206<477 754.204> 1638 20G<247.901 500>
LayerCount: 2
UndoRedoHistory
Layer: 1
Undoes
EndUndoes
Redoes
EndRedoes
EndUndoRedoHistory
Fore
SplineSet
397 672 m 1
 518 672 l 2
 697 672 784 730 808 957 c 0
 829 1162 778 1234 607 1234 c 2
 456 1234 l 1
 397 672 l 1
76 0 m 1
 250 1658 l 1
 500 1658 l 1
 477 1440 l 1
 705 1440 l 2
 978 1440 1081 1255 1049 955 c 0
 1015 629 853 472 561 472 c 2
 376 472 l 1
 326 0 l 1
 76 0 l 1
EndSplineSet
EndChar

StartChar: U
Encoding: 85 85 99
Width: 1116
VWidth: 0
GlyphClass: 2
Flags: W
HStem: -17 195<408.131 660.269> 1638 20G<233.894 473 888.899 1128>
AnchorPoint: "ogonek" 582 0 basechar 0
LayerCount: 2
UndoRedoHistory
Layer: 1
Undoes
EndUndoes
Redoes
EndRedoes
EndUndoRedoHistory
Fore
SplineSet
507 -17 m 0
 139 -17 85 220 123 585 c 2
 236 1658 l 1
 473 1658 l 1
 359 573 l 2
 336 354 339 178 528 178 c 0
 717 178 754 354 777 573 c 2
 891 1658 l 1
 1128 1658 l 1
 1015 585 l 2
 977 220 875 -17 507 -17 c 0
EndSplineSet
EndChar

StartChar: V
Encoding: 86 86 110
Width: 1043
VWidth: 0
GlyphClass: 2
Flags: W
HStem: 0 21G<360.696 586.502> 1638 20G<172 406.13 885.88 1119>
LayerCount: 2
UndoRedoHistory
Layer: 1
Undoes
EndUndoes
Redoes
EndRedoes
EndUndoRedoHistory
Fore
SplineSet
363 0 m 1
 172 1658 l 1
 404 1658 l 1
 530 475 l 1
 892 1658 l 1
 1119 1658 l 1
 580 0 l 1
 363 0 l 1
EndSplineSet
EndChar

StartChar: W
Encoding: 87 87 111
Width: 1500
VWidth: 0
GlyphClass: 2
Flags: W
HStem: 0 21G<290.866 485.901 928.357 1115.31> 1638 20G<198 407.78 785.125 964.657 1341.05 1550>
VStem: 198 209<1405.14 1658>
LayerCount: 2
UndoRedoHistory
Layer: 1
Undoes
EndUndoes
Redoes
EndRedoes
EndUndoRedoHistory
Fore
SplineSet
292 0 m 1
 198 1658 l 1
 407 1658 l 1
 452 504 l 1
 791 1658 l 1
 963 1658 l 1
 1059 499 l 1
 1346 1658 l 1
 1550 1658 l 1
 1110 0 l 1
 930 0 l 1
 832 1193 l 1
 480 0 l 1
 292 0 l 1
EndSplineSet
EndChar

StartChar: X
Encoding: 88 88 116
Width: 997
VWidth: 0
GlyphClass: 2
Flags: W
HStem: 0 21G<-24 216.488 681.587 921> 1638 20G<156 394.431 835.283 1077>
LayerCount: 2
UndoRedoHistory
Layer: 1
Undoes
EndUndoes
Redoes
EndRedoes
EndUndoRedoHistory
Fore
SplineSet
-24 0 m 1
 409 869 l 1
 156 1658 l 1
 388 1658 l 1
 570 1092 l 1
 845 1658 l 1
 1077 1658 l 1
 648 850 l 1
 921 0 l 1
 688 0 l 1
 494 605 l 1
 207 0 l 1
 -24 0 l 1
EndSplineSet
EndChar

StartChar: Y
Encoding: 89 89 117
Width: 992
VWidth: 0
GlyphClass: 2
Flags: W
HStem: 0 21G<327 567.088> 1638 20G<146 381.219 850.667 1094>
LayerCount: 2
UndoRedoHistory
Layer: 1
Undoes
EndUndoes
Redoes
EndRedoes
EndUndoRedoHistory
Fore
SplineSet
327 0 m 1
 389 594 l 1
 146 1658 l 1
 377 1658 l 1
 539 890 l 1
 859 1658 l 1
 1094 1658 l 1
 627 594 l 1
 565 0 l 1
 327 0 l 1
EndSplineSet
EndChar

StartChar: Z
Encoding: 90 90 122
Width: 858
VWidth: 0
GlyphClass: 2
Flags: W
HStem: 0 178<285 766> 1480 178<230 656>
LayerCount: 2
UndoRedoHistory
Layer: 1
Undoes
EndUndoes
Redoes
EndRedoes
EndUndoRedoHistory
Fore
SplineSet
30 0 m 1
 49 178 l 1
 656 1480 l 1
 212 1480 l 1
 230 1658 l 1
 940 1658 l 1
 929 1553 l 1
 285 178 l 1
 785 178 l 1
 766 0 l 1
 30 0 l 1
EndSplineSet
EndChar

StartChar: a
Encoding: 97 97 126
Width: 887
VWidth: 0
GlyphClass: 2
Flags: W
HStem: -17 206<203.5 414.834> 0 21G<542.652 760> 1023 177<406.863 579.1>
VStem: 544 216<0 178>
AnchorPoint: "ogonek" 662 0 basechar 0
LayerCount: 2
UndoRedoHistory
Layer: 1
Undoes
EndUndoes
Redoes
EndRedoes
EndUndoRedoHistory
Fore
SplineSet
391 189 m 0xb0
 449 189 513 254 531 276 c 1
 565 603 l 1
 464 546 324 479 309 336 c 0
 300 247 324 189 391 189 c 0xb0
272 -17 m 0
 135 -17 49 123 63 261 c 0
 96 569 341 654 580 744 c 1
 589 829 l 2
 602 953 597 1023 498 1023 c 0
 410 1023 376 953 367 864 c 2
 360 800 l 1
 127 809 l 1
 129 825 131 840 133 855 c 0
 173 1101 314 1200 532 1200 c 0
 772 1200 850 1067 825 829 c 2
 769 296 l 2
 756 175 758 83 760 0 c 1
 544 0 l 1x70
 544 0 532 93 532 178 c 1
 494 84 410 -17 272 -17 c 0
EndSplineSet
EndChar

StartChar: acute
Encoding: 180 180 130
Width: 591
VWidth: 0
GlyphClass: 2
Flags: W
HStem: 1252 406
VStem: 200 397
LayerCount: 2
UndoRedoHistory
Layer: 1
Undoes
EndUndoes
Redoes
EndRedoes
EndUndoRedoHistory
Fore
SplineSet
200 1252 m 1
 361 1658 l 1
 597 1658 l 1
 319 1252 l 1
 200 1252 l 1
EndSplineSet
EndChar

StartChar: acutecomb
Encoding: 327 769 131
Width: 0
VWidth: 0
GlyphClass: 2
Flags: W
HStem: 1252 406
VStem: 23 397
LayerCount: 2
UndoRedoHistory
Layer: 1
Undoes
EndUndoes
Redoes
EndRedoes
EndUndoRedoHistory
Fore
SplineSet
23 1252 m 1
 184 1658 l 1
 420 1658 l 1
 142 1252 l 1
 23 1252 l 1
EndSplineSet
EndChar

StartChar: ae
Encoding: 230 230 133
Width: 1354
VWidth: 0
GlyphClass: 2
Flags: W
HStem: -17 188<812.187 968.769> 1018 182<410.795 584.684 893.514 1048.56>
LayerCount: 2
UndoRedoHistory
Layer: 1
Undoes
EndUndoes
Redoes
EndRedoes
EndUndoRedoHistory
Fore
SplineSet
823 699 m 1
 922 716 l 2
 1010 731 1065 748 1075 850 c 0
 1084 937 1062 1007 974 1007 c 0
 882 1007 847 922 836 818 c 2
 823 699 l 1
393 168 m 0
 465 168 540 261 558 431 c 2
 569 536 l 1
 540 529 510 520 481 508 c 0
 394 474 320 419 309 315 c 0
 300 226 337 168 393 168 c 0
274 -17 m 0
 138 -6 53 123 67 261 c 0
 91 487 239 585 422 630 c 2
 583 670 l 1
 600 829 l 2
 611 934 601 1018 502 1018 c 0
 405 1018 374 933 363 829 c 1
 127 829 l 1
 154 1052 297 1200 521 1200 c 0
 637 1200 723 1149 742 1060 c 1
 792 1136 878 1200 994 1200 c 0
 1219 1200 1314 1056 1290 828 c 0
 1272 652 1095 621 944 595 c 2
 810 572 l 1
 806 533 l 2
 792 395 752 171 886 171 c 0
 981 171 1003 270 1014 368 c 2
 1019 414 l 1
 1255 414 l 1
 1250 368 l 2
 1224 127 1102 -17 865 -17 c 0
 716 -17 629 85 625 225 c 1
 549 86 440 -30 274 -17 c 0
EndSplineSet
EndChar

StartChar: afii00208
Encoding: 328 8213 134
Width: 4096
VWidth: 0
GlyphClass: 2
Flags: W
HStem: 414 178<12 4091>
LayerCount: 2
UndoRedoHistory
Layer: 1
Undoes
EndUndoes
Redoes
EndRedoes
EndUndoRedoHistory
Fore
SplineSet
-6 414 m 1
 12 592 l 1
 4109 592 l 1
 4091 414 l 1
 -6 414 l 1
EndSplineSet
EndChar

StartChar: afii10018
Encoding: 330 1041 136
Width: 1020
VWidth: 0
GlyphClass: 2
Flags: W
HStem: 0 178<345 596.148> 791 178<428 644.476> 1478 180<481 955>
LayerCount: 2
UndoRedoHistory
Layer: 1
Undoes
EndUndoes
Redoes
EndRedoes
EndUndoRedoHistory
Fore
SplineSet
345 178 m 1
 389 178 l 2
 589 178 691 215 720 490 c 0
 743 712 679 791 448 791 c 2
 409 791 l 1
 345 178 l 1
76 0 m 1
 250 1658 l 1
 973 1658 l 1
 955 1478 l 1
 481 1478 l 1
 428 969 l 1
 459 969 l 2
 826 969 995 877 954 488 c 0
 917 136 733 0 370 0 c 2
 76 0 l 1
EndSplineSet
EndChar

StartChar: afii10019
Encoding: 331 1042 137
Width: 1084
VWidth: 0
GlyphClass: 2
Flags: W
HStem: 0 178<345 664.14> 782 189<428 696.287> 1474 184<481 786.438>
LayerCount: 2
UndoRedoHistory
Layer: 1
Undoes
EndUndoes
Redoes
EndRedoes
EndUndoRedoHistory
Fore
SplineSet
428 971 m 1
 542 971 l 2
 738 971 807 1043 828 1243 c 0
 852 1477 744 1474 511 1474 c 2
 481 1474 l 1
 428 971 l 1
345 178 m 1
 484 178 l 2
 688 178 750 266 772 473 c 0
 793 680 726 782 522 782 c 2
 408 782 l 1
 345 178 l 1
76 0 m 1
 250 1658 l 1
 635 1658 l 2
 934 1658 1075 1536 1045 1243 c 0
 1022 1028 927 912 764 893 c 1
 957 846 1036 720 1010 473 c 0
 979 180 818 0 525 0 c 2
 76 0 l 1
EndSplineSet
EndChar

StartChar: afii10020
Encoding: 332 1043 138
Width: 796
VWidth: 0
GlyphClass: 2
Flags: W
HStem: 0 21G<76 328.103> 1474 184<481 871>
LayerCount: 2
UndoRedoHistory
Layer: 1
Undoes
EndUndoes
Redoes
EndRedoes
EndUndoRedoHistory
Fore
SplineSet
76 0 m 1
 250 1658 l 1
 890 1658 l 1
 871 1474 l 1
 481 1474 l 1
 326 0 l 1
 76 0 l 1
EndSplineSet
EndChar

StartChar: afii10021
Encoding: 333 1044 139
Width: 1304
VWidth: 0
GlyphClass: 2
Flags: W
HStem: 0 178<299 816> 1474 184<700 952>
VStem: -60 193<-306 -221.638> 987 193<-306 -169.949>
LayerCount: 2
UndoRedoHistory
Layer: 1
Undoes
EndUndoes
Redoes
EndRedoes
EndUndoRedoHistory
Fore
SplineSet
299 178 m 1
 816 178 l 1
 952 1474 l 1
 700 1474 l 1
 651 1119 l 2
 551 401 432 297 299 178 c 1
-60 -306 m 1
 -9 178 l 1
 70 178 l 1
 194 278 323 439 435 1179 c 2
 507 1658 l 1
 1221 1658 l 1
 1066 178 l 1
 1231 178 l 1
 1180 -306 l 1
 987 -306 l 1
 999 0 l 1
 185 0 l 1
 133 -306 l 1
 -60 -306 l 1
EndSplineSet
EndChar

StartChar: afii10024
Encoding: 336 1046 142
Width: 1405
VWidth: 0
GlyphClass: 2
Flags: W
HStem: 0 21G<-48 207.217 547 760.101 1101.99 1353> 828 29<624 634 848 859> 1638 20G<165 412.418 718.903 932 1236.39 1488>
LayerCount: 2
UndoRedoHistory
Layer: 1
Undoes
EndUndoes
Redoes
EndRedoes
EndUndoRedoHistory
Fore
SplineSet
-48 0 m 1
 421 845 l 1
 165 1658 l 1
 407 1658 l 1
 624 857 l 1
 637 857 l 1
 721 1658 l 1
 932 1658 l 1
 848 857 l 1
 861 857 l 1
 1246 1658 l 1
 1488 1658 l 1
 1062 845 l 1
 1353 0 l 1
 1108 0 l 1
 859 828 l 1
 845 828 l 1
 758 0 l 1
 547 0 l 1
 634 828 l 1
 620 828 l 1
 197 0 l 1
 -48 0 l 1
EndSplineSet
EndChar

StartChar: afii10025
Encoding: 337 1047 143
Width: 990
VWidth: 0
GlyphClass: 2
Flags: W
HStem: -17 195<345.311 581.975> 774 191<393 572.915> 1184 21G<113 351> 1480 194<453.445 706.498>
VStem: 71 237<213.884 473> 113 237<1184 1349.98>
LayerCount: 2
UndoRedoHistory
Layer: 1
Undoes
EndUndoes
Redoes
EndRedoes
EndUndoRedoHistory
Fore
SplineSet
440 -17 m 0xf4
 167 -17 42 144 71 414 c 1
 77 473 l 1
 314 473 l 1
 311 452 310 431 308 411 c 0xf8
 300 279 321 178 461 178 c 0
 621 178 651 306 669 471 c 0
 686 636 640 755 428 772 c 0
 411 773 393 774 373 774 c 1
 393 965 l 1
 411 965 428 965 445 966 c 0
 658 980 732 1077 749 1241 c 1
 765 1385 726 1480 585 1480 c 0
 443 1480 382 1376 358 1240 c 0
 355 1222 352 1203 350 1184 c 1
 113 1184 l 1
 120 1243 l 1
 148 1512 325 1674 596 1674 c 0
 869 1674 1015 1511 986 1241 c 0
 966 1048 859 922 711 878 c 1
 861 827 928 686 906 471 c 1
 874 174 737 -17 440 -17 c 0xf4
EndSplineSet
EndChar

StartChar: afii10026
Encoding: 338 1048 144
Width: 1124
VWidth: 0
GlyphClass: 2
Flags: W
HStem: 0 21G<76 270.389 728 950.099> 1638 20G<247.901 470 932.359 1122>
LayerCount: 2
UndoRedoHistory
Layer: 1
Undoes
EndUndoes
Redoes
EndRedoes
EndUndoRedoHistory
Fore
SplineSet
76 0 m 1
 250 1658 l 1
 470 1658 l 1
 354 551 l 1
 943 1658 l 1
 1122 1658 l 1
 948 0 l 1
 728 0 l 1
 847 1130 l 1
 260 0 l 1
 76 0 l 1
EndSplineSet
EndChar

StartChar: afii10028
Encoding: 340 1050 146
Width: 1053
VWidth: 0
GlyphClass: 2
Flags: W
HStem: 0 21G<76 328.104 721.134 977> 808 120<424 490> 1638 20G<247.901 500 854.082 1114>
LayerCount: 2
UndoRedoHistory
Layer: 1
Undoes
EndUndoes
Redoes
EndRedoes
EndUndoRedoHistory
Fore
SplineSet
76 0 m 1
 250 1658 l 1
 500 1658 l 1
 424 928 l 1
 502 928 l 1
 864 1658 l 1
 1114 1658 l 1
 713 873 l 1
 977 0 l 1
 727 0 l 1
 490 808 l 1
 411 808 l 1
 326 0 l 1
 76 0 l 1
EndSplineSet
EndChar

StartChar: afii10029
Encoding: 341 1051 147
Width: 1196
VWidth: 0
GlyphClass: 2
Flags: W
HStem: 0 186<-33 108.567> 1474 184<638 925>
LayerCount: 2
UndoRedoHistory
Layer: 1
Undoes
EndUndoes
Redoes
EndRedoes
EndUndoRedoHistory
Fore
SplineSet
-53 0 m 1
 -33 186 l 1
 108 179 202 214 289 735 c 2
 442 1658 l 1
 1194 1658 l 1
 1020 0 l 1
 770 0 l 1
 925 1474 l 1
 638 1474 l 1
 521 735 l 2
 447 265 332 -33 -53 0 c 1
EndSplineSet
EndChar

StartChar: afii10030
Encoding: 342 1052 148
Width: 1361
VWidth: 0
GlyphClass: 2
Flags: W
HStem: 0 21G<74 273.245 558.846 706.365 991 1188.76> 1638 20G<273.563 502.775 1102.99 1333>
LayerCount: 2
UndoRedoHistory
Layer: 1
Undoes
EndUndoes
Redoes
EndRedoes
EndUndoRedoHistory
Fore
SplineSet
74 0 m 1
 276 1658 l 1
 500 1658 l 1
 673 411 l 1
 1110 1658 l 1
 1333 1658 l 1
 1187 0 l 1
 991 0 l 1
 1096 1078 l 1
 699 0 l 1
 562 0 l 1
 392 1078 l 1
 271 0 l 1
 74 0 l 1
EndSplineSet
EndChar

StartChar: afii10033
Encoding: 345 1055 151
Width: 1180
VWidth: 0
GlyphClass: 2
Flags: W
HStem: 0 21G<76 328.108 754 1006.1> 1480 178<482 910>
LayerCount: 2
UndoRedoHistory
Layer: 1
Undoes
EndUndoes
Redoes
EndRedoes
EndUndoRedoHistory
Fore
SplineSet
76 0 m 1
 250 1658 l 1
 1178 1658 l 1
 1004 0 l 1
 754 0 l 1
 910 1480 l 1
 482 1480 l 1
 326 0 l 1
 76 0 l 1
EndSplineSet
EndChar

StartChar: afii10034
Encoding: 346 1056 152
Width: 981
VWidth: 0
GlyphClass: 2
Flags: W
HStem: 0 21G<76 328.107> 769 178<426 709.437> 1480 178<482 764.996>
LayerCount: 2
UndoRedoHistory
Layer: 1
Undoes
EndUndoes
Redoes
EndRedoes
EndUndoRedoHistory
Fore
SplineSet
426 947 m 1
 507 947 l 2
 707 947 774 996 794 1194 c 1
 819 1424 802 1480 567 1480 c 2
 482 1480 l 1
 426 947 l 1
76 0 m 1
 250 1658 l 1
 665 1658 l 2
 961 1658 1062 1491 1031 1195 c 0
 1002 924 840 769 572 769 c 2
 407 769 l 1
 326 0 l 1
 76 0 l 1
EndSplineSet
EndChar

StartChar: afii10037
Encoding: 349 1059 155
Width: 925
VWidth: 0
GlyphClass: 2
Flags: W
HStem: 1638 20G<159 395.722 784.522 1029>
VStem: 159 235<1529.5 1658>
LayerCount: 2
UndoRedoHistory
Layer: 1
Undoes
EndUndoes
Redoes
EndRedoes
EndUndoRedoHistory
Fore
SplineSet
29 -261 m 1
 49 -69 l 1
 331 -101 345 -16 324 179 c 2
 159 1658 l 1
 394 1658 l 1
 454 961 l 1
 476 438 l 1
 598 957 l 1
 790 1658 l 1
 1029 1658 l 1
 581 176 l 2
 479 -163 501 -291 29 -261 c 1
EndSplineSet
EndChar

StartChar: afii10038
Encoding: 350 1060 156
Width: 1378
VWidth: 0
GlyphClass: 2
Flags: W
HStem: 207 147<353.648 532 797 1007.74> 1337 149<447.856 650 916 1102.02>
LayerCount: 2
UndoRedoHistory
Layer: 1
Undoes
EndUndoes
Redoes
EndRedoes
EndUndoRedoHistory
Fore
SplineSet
832 354 m 1
 1025 342 1048 408 1073 644 c 2
 1115 1047 l 2
 1140 1283 1131 1349 936 1337 c 1
 900 1336 l 1
 797 355 l 1
 832 354 l 1
520 354 m 1
 547 355 l 1
 650 1336 l 1
 624 1337 l 1
 431 1349 408 1283 383 1047 c 2
 341 644 l 2
 316 408 325 342 520 354 c 1
503 -67 m 1
 532 207 l 1
 465 205 l 1
 207 181 78 303 114 644 c 2
 156 1047 l 2
 192 1386 346 1502 600 1486 c 1
 666 1485 l 1
 700 1808 l 1
 950 1808 l 1
 916 1485 l 1
 991 1486 l 1
 1248 1502 1378 1388 1342 1047 c 2
 1300 644 l 2
 1264 305 1109 180 856 205 c 1
 782 207 l 1
 753 -67 l 1
 503 -67 l 1
EndSplineSet
EndChar

StartChar: afii10040
Encoding: 352 1062 158
Width: 1294
VWidth: 0
GlyphClass: 2
Flags: W
HStem: 0 178<345 797> 1638 20G<247.901 500 949.905 1202>
VStem: 968 193<-306 -169.949>
LayerCount: 2
UndoRedoHistory
Layer: 1
Undoes
EndUndoes
Redoes
EndRedoes
EndUndoRedoHistory
Fore
SplineSet
968 -306 m 1
 980 0 l 1
 76 0 l 1
 250 1658 l 1
 500 1658 l 1
 345 178 l 1
 797 178 l 1
 952 1658 l 1
 1202 1658 l 1
 1047 178 l 1
 1212 178 l 1
 1161 -306 l 1
 968 -306 l 1
EndSplineSet
EndChar

StartChar: afii10041
Encoding: 353 1063 159
Width: 1112
VWidth: 0
GlyphClass: 2
Flags: W
HStem: 0 21G<686 938.099> 735 162<434.149 763.086> 1638 20G<219.903 447 857.913 1110>
LayerCount: 2
UndoRedoHistory
Layer: 1
Undoes
EndUndoes
Redoes
EndRedoes
EndUndoRedoHistory
Fore
SplineSet
686 0 m 1
 766 764 l 1
 673 745 590 735 518 735 c 0
 256 735 139 866 166 1124 c 2
 222 1658 l 1
 447 1658 l 1
 391 1125 l 2
 376 977 416 897 585 897 c 0
 638 897 703 904 783 920 c 1
 860 1658 l 1
 1110 1658 l 1
 936 0 l 1
 686 0 l 1
EndSplineSet
EndChar

StartChar: afii10042
Encoding: 354 1064 160
Width: 1552
VWidth: 0
GlyphClass: 2
Flags: W
HStem: 0 180<345 627 877 1145> 1638 20G<247.901 500 779.903 1032 1297.9 1550>
LayerCount: 2
UndoRedoHistory
Layer: 1
Undoes
EndUndoes
Redoes
EndRedoes
EndUndoRedoHistory
Fore
SplineSet
76 0 m 1
 250 1658 l 1
 500 1658 l 1
 345 180 l 1
 627 180 l 1
 782 1658 l 1
 1032 1658 l 1
 877 180 l 1
 1145 180 l 1
 1300 1658 l 1
 1550 1658 l 1
 1376 0 l 1
 76 0 l 1
EndSplineSet
EndChar

StartChar: afii10043
Encoding: 355 1065 161
Width: 1643
VWidth: 0
GlyphClass: 2
Flags: W
HStem: 0 178<345 627 877 1146> 1638 20G<247.901 500 779.905 1032 1298.91 1551>
VStem: 1317 193<-306 -169.949>
LayerCount: 2
UndoRedoHistory
Layer: 1
Undoes
EndUndoes
Redoes
EndRedoes
EndUndoRedoHistory
Fore
SplineSet
1317 -306 m 1
 1329 0 l 1
 76 0 l 1
 250 1658 l 1
 500 1658 l 1
 345 178 l 1
 627 178 l 1
 782 1658 l 1
 1032 1658 l 1
 877 178 l 1
 1146 178 l 1
 1301 1658 l 1
 1551 1658 l 1
 1396 178 l 1
 1561 178 l 1
 1510 -306 l 1
 1317 -306 l 1
EndSplineSet
EndChar

StartChar: afii10044
Encoding: 356 1066 162
Width: 1170
VWidth: 0
GlyphClass: 2
Flags: W
HStem: 0 178<492 757.148> 791 178<575 805.476> 1469 189<133 377>
LayerCount: 2
UndoRedoHistory
Layer: 1
Undoes
EndUndoes
Redoes
EndRedoes
EndUndoRedoHistory
Fore
SplineSet
492 178 m 1
 550 178 l 2
 750 178 852 215 881 490 c 0
 904 712 840 791 609 791 c 2
 556 791 l 1
 492 178 l 1
223 0 m 1
 377 1469 l 1
 113 1469 l 1
 133 1658 l 1
 647 1658 l 1
 575 969 l 1
 620 969 l 2
 987 969 1156 877 1115 488 c 0
 1078 136 894 0 531 0 c 2
 223 0 l 1
EndSplineSet
EndChar

StartChar: afii10045
Encoding: 357 1067 163
Width: 1508
VWidth: 0
GlyphClass: 2
Flags: W
HStem: 0 178<345 610.148> 791 178<428 658.476> 1638 20G<247.901 500 1253.9 1506>
LayerCount: 2
UndoRedoHistory
Layer: 1
Undoes
EndUndoes
Redoes
EndRedoes
EndUndoRedoHistory
Fore
SplineSet
1082 0 m 1
 1256 1658 l 1
 1506 1658 l 1
 1332 0 l 1
 1082 0 l 1
345 178 m 1
 403 178 l 2
 603 178 705 215 734 490 c 0
 757 712 693 791 462 791 c 2
 409 791 l 1
 345 178 l 1
76 0 m 1
 250 1658 l 1
 500 1658 l 1
 428 969 l 1
 473 969 l 2
 840 969 1009 877 968 488 c 0
 931 136 747 0 384 0 c 2
 76 0 l 1
EndSplineSet
EndChar

StartChar: afii10046
Encoding: 358 1068 164
Width: 1023
VWidth: 0
GlyphClass: 2
Flags: W
HStem: 0 178<345 610.148> 791 178<428 658.476> 1638 20G<247.901 500>
LayerCount: 2
UndoRedoHistory
Layer: 1
Undoes
EndUndoes
Redoes
EndRedoes
EndUndoRedoHistory
Fore
SplineSet
345 178 m 1
 403 178 l 2
 603 178 705 215 734 490 c 0
 757 712 693 791 462 791 c 2
 409 791 l 1
 345 178 l 1
76 0 m 1
 250 1658 l 1
 500 1658 l 1
 428 969 l 1
 473 969 l 2
 840 969 1009 877 968 488 c 0
 931 136 747 0 384 0 c 2
 76 0 l 1
EndSplineSet
EndChar

StartChar: afii10047
Encoding: 359 1069 165
Width: 1070
VWidth: 0
GlyphClass: 2
Flags: W
HStem: 8 194<363.519 629.568> 786 163<497 755> 1504 195<496.035 759.424>
LayerCount: 2
UndoRedoHistory
Layer: 1
Undoes
EndUndoes
Redoes
EndRedoes
EndUndoRedoHistory
Fore
SplineSet
474 8 m 0
 159 8 67 185 99 487 c 2
 108 571 l 1
 345 571 l 1
 338 505 l 2
 320 330 301 202 492 202 c 0
 680 202 707 335 728 537 c 2
 755 786 l 1
 480 786 l 1
 497 949 l 1
 772 949 l 1
 796 1181 l 2
 822 1431 776 1504 629 1504 c 0
 447 1504 429 1373 409 1181 c 2
 402 1112 l 1
 165 1112 l 1
 173 1185 l 1
 205 1492 320 1699 652 1699 c 0
 1008 1699 1077 1456 1044 1141 c 2
 984 573 l 2
 948 229 830 8 474 8 c 0
EndSplineSet
EndChar

StartChar: afii10048
Encoding: 360 1070 166
Width: 1489
VWidth: 0
GlyphClass: 2
Flags: W
HStem: -17 195<810.898 1077.73> 0 21G<76 311.093> 755 188<408 578> 1480 194<936.388 1207.05> 1638 20G<247.901 483>
LayerCount: 2
UndoRedoHistory
Layer: 1
Undoes
EndUndoes
Redoes
EndRedoes
EndUndoRedoHistory
Fore
SplineSet
940 178 m 0xb0
 1108 178 1150 295 1169 473 c 2
 1244 1193 l 2
 1263 1371 1245 1480 1077 1480 c 0
 909 1480 867 1371 848 1193 c 2
 773 473 l 2
 754 295 772 178 940 178 c 0xb0
919 -17 m 0
 599 -17 520 196 555 533 c 2
 578 755 l 1
 388 755 l 1
 309 0 l 1
 76 0 l 1
 250 1658 l 1
 483 1658 l 1x68
 408 943 l 1
 598 943 l 1
 618 1134 l 2
 654 1471 777 1674 1097 1674 c 0
 1415 1674 1497 1467 1462 1134 c 2
 1399 533 l 2
 1364 200 1237 -17 919 -17 c 0
EndSplineSet
EndChar

StartChar: afii10049
Encoding: 361 1071 167
Width: 1123
VWidth: 0
GlyphClass: 2
Flags: W
HStem: 0 21G<-27 262.439 697 949.099> 684 178<609 769> 1480 178<577.476 853>
LayerCount: 2
UndoRedoHistory
Layer: 1
Undoes
EndUndoes
Redoes
EndRedoes
EndUndoRedoHistory
Fore
SplineSet
726 862 m 2
 788 862 l 1
 853 1480 l 1
 785 1480 l 2
 575 1480 464 1398 443 1200 c 0
 419 970 491 862 726 862 c 2
-27 0 m 1
 401 744 l 1
 266 810 182 958 207 1199 c 0
 236 1470 392 1658 789 1658 c 2
 1121 1658 l 1
 947 0 l 1
 697 0 l 1
 769 684 l 1
 656 684 l 2
 654 684 612 684 609 684 c 1
 252 0 l 1
 -27 0 l 1
EndSplineSet
EndChar

StartChar: afii10051
Encoding: 362 1026 168
Width: 1140
VWidth: 0
GlyphClass: 2
Flags: W
HStem: 0 178<598 726.329> 800 167<582.415 793.415> 1474 184<157 365 609 866>
LayerCount: 2
UndoRedoHistory
Layer: 1
Undoes
EndUndoes
Redoes
EndRedoes
EndUndoRedoHistory
Fore
SplineSet
579 0 m 1
 598 178 l 1
 762 178 799 310 813 446 c 2
 831 621 l 2
 840 708 802 800 687 800 c 0
 646 800 596 789 534 762 c 1
 454 0 l 1
 210 0 l 1
 365 1474 l 1
 138 1474 l 1
 157 1658 l 1
 885 1658 l 1
 866 1474 l 1
 609 1474 l 1
 549 900 l 1
 602 943 680 967 760 967 c 0
 923 967 1093 866 1068 629 c 2
 1049 446 l 2
 1016 131 863 0 620 0 c 2
 579 0 l 1
EndSplineSet
EndChar

StartChar: afii10053
Encoding: 364 1028 170
Width: 1038
VWidth: 0
GlyphClass: 2
Flags: W
HStem: -17 195<387.429 650.849> 771 174<397 786> 1480 194<517.412 783.46>
LayerCount: 2
UndoRedoHistory
Layer: 1
Undoes
EndUndoes
Redoes
EndRedoes
EndUndoRedoHistory
Fore
SplineSet
495 -17 m 0
 139 -17 70 226 103 541 c 2
 163 1109 l 2
 199 1453 317 1674 673 1674 c 0
 988 1674 1079 1497 1048 1195 c 1
 1041 1135 l 1
 804 1135 l 1
 809 1177 l 1
 827 1352 846 1480 655 1480 c 0
 467 1480 440 1347 418 1145 c 2
 397 945 l 1
 804 945 l 1
 786 771 l 1
 379 771 l 1
 351 501 l 1
 324 251 371 178 518 178 c 0
 700 178 717 309 738 501 c 1
 744 566 l 1
 981 566 l 1
 974 497 l 2
 942 190 827 -17 495 -17 c 0
EndSplineSet
EndChar

StartChar: afii10055
Encoding: 366 1030 172
Width: 520
VWidth: 0
GlyphClass: 2
Flags: W
HStem: 0 21G<89 336.099> 1638 20G<260.901 508>
VStem: 89 419
LayerCount: 2
UndoRedoHistory
Layer: 1
Undoes
EndUndoes
Redoes
EndRedoes
EndUndoRedoHistory
Fore
SplineSet
89 0 m 1
 263 1658 l 1
 508 1658 l 1
 334 0 l 1
 89 0 l 1
EndSplineSet
EndChar

StartChar: afii10057
Encoding: 368 1032 174
Width: 629
VWidth: 0
GlyphClass: 2
Flags: W
HStem: -31 178<-21 166.709> 1638 20G<372.904 625>
VStem: -39 664
LayerCount: 2
UndoRedoHistory
Layer: 1
Undoes
EndUndoes
Redoes
EndRedoes
EndUndoRedoHistory
Fore
SplineSet
-39 -31 m 1
 -21 147 l 1
 173 147 221 190 242 389 c 2
 375 1658 l 1
 625 1658 l 1
 492 386 l 1
 461 101 367 -31 79 -31 c 2
 -39 -31 l 1
EndSplineSet
EndChar

StartChar: afii10058
Encoding: 369 1033 175
Width: 1721
VWidth: 0
GlyphClass: 2
Flags: W
HStem: 0 178<-5 132.047 1066 1295.15> 791 178<1149 1343.48> 1474 184<666 952>
LayerCount: 2
UndoRedoHistory
Layer: 1
Undoes
EndUndoes
Redoes
EndRedoes
EndUndoRedoHistory
Fore
SplineSet
1066 178 m 1
 1088 178 l 2
 1288 178 1390 215 1419 490 c 0
 1442 712 1378 791 1147 791 c 2
 1130 791 l 1
 1066 178 l 1
-25 0 m 1
 -5 186 l 1
 157 171 244 284 320 734 c 1
 467 1658 l 1
 1221 1658 l 1
 1149 969 l 1
 1158 969 l 2
 1525 969 1694 877 1653 488 c 0
 1616 136 1432 0 1069 0 c 2
 797 0 l 1
 952 1474 l 1
 666 1474 l 1
 548 734 l 2
 468 231 331 -14 25 -2 c 2
 -25 0 l 1
EndSplineSet
EndChar

StartChar: afii10059
Encoding: 370 1034 176
Width: 1612
VWidth: 0
GlyphClass: 2
Flags: W
HStem: 0 178<967 1198.15> 789 180<428 781 1050 1246.48> 1640 20G<247.904 500 869.916 1122>
LayerCount: 2
UndoRedoHistory
Layer: 1
Undoes
EndUndoes
Redoes
EndRedoes
EndUndoRedoHistory
Fore
SplineSet
967 178 m 1
 991 178 l 2
 1191 178 1293 215 1322 490 c 0
 1345 712 1281 791 1050 791 c 2
 1031 791 l 1
 967 178 l 1
972 0 m 2
 698 0 l 1
 781 789 l 1
 409 789 l 1
 326 0 l 1
 76 0 l 1
 250 1660 l 1
 500 1660 l 1
 428 969 l 1
 800 969 l 1
 872 1660 l 1
 1122 1660 l 1
 1050 969 l 1
 1061 969 l 2
 1428 969 1597 877 1556 488 c 0
 1519 136 1335 0 972 0 c 2
EndSplineSet
EndChar

StartChar: afii10060
Encoding: 371 1035 177
Width: 1043
VWidth: 0
GlyphClass: 2
Flags: W
HStem: 0 21G<183 429.1 655 893.107> 812 149<551.547 820> 1474 184<130 338 582 839>
LayerCount: 2
UndoRedoHistory
Layer: 1
Undoes
EndUndoes
Redoes
EndRedoes
EndUndoRedoHistory
Fore
SplineSet
183 0 m 1
 338 1474 l 1
 111 1474 l 1
 130 1658 l 1
 858 1658 l 1
 839 1474 l 1
 582 1474 l 1
 522 900 l 1
 522 900 611 961 747 961 c 0
 893 961 984 881 972 769 c 2
 891 0 l 1
 655 0 l 1
 730 711 l 2
 736 771 728 812 651 812 c 0
 577 812 507 762 507 762 c 1
 427 0 l 1
 183 0 l 1
EndSplineSet
EndChar

StartChar: afii10066
Encoding: 375 1073 181
Width: 897
VWidth: 0
GlyphClass: 2
Flags: W
HStem: -17 175<343.119 512.31> 920 162<428.438 676.5>
LayerCount: 2
UndoRedoHistory
Layer: 1
Undoes
EndUndoes
Redoes
EndRedoes
EndUndoRedoHistory
Fore
SplineSet
426 158 m 0
 506 158 545 216 560 360 c 2
 600 738 l 2
 613 866 593 920 528 920 c 0
 493 920 445 906 381 868 c 1
 331 391 l 2
 313 222 330 158 426 158 c 0
385 -17 m 0
 171 -17 67 127 96 399 c 2
 158 990 l 2
 237 1740 351 1541 828 1721 c 1
 868 1531 l 1
 517 1378 453 1555 412 1156 c 1
 397 1021 l 1
 462 1057 538 1082 607 1082 c 0
 746 1082 862 981 829 664 c 2
 805 434 l 2
 766 64 600 -17 385 -17 c 0
EndSplineSet
EndChar

StartChar: afii10067
Encoding: 376 1074 182
Width: 863
VWidth: 0
GlyphClass: 2
Flags: W
HStem: 0 178<309 503.795> 543 170<365 544.867> 1012 172<397 589.915>
LayerCount: 2
UndoRedoHistory
Layer: 1
Undoes
EndUndoes
Redoes
EndRedoes
EndUndoRedoHistory
Fore
SplineSet
365 713 m 1
 462 713 l 2
 545 713 598 749 611 872 c 0
 622 983 563 1012 472 1012 c 2
 397 1012 l 1
 365 713 l 1
309 178 m 1
 375 178 l 2
 459 178 544 196 560 353 c 0
 579 537 512 543 423 543 c 2
 348 543 l 1
 309 178 l 1
60 0 m 1
 185 1184 l 1
 526 1184 l 2
 770 1184 832 1050 820 901 c 1
 809 783 771 685 638 647 c 1
 783 620 805 480 791 345 c 0
 770 138 678 0 412 0 c 2
 60 0 l 1
EndSplineSet
EndChar

StartChar: afii10068
Encoding: 377 1075 183
Width: 598
VWidth: 0
GlyphClass: 2
Flags: W
HStem: 0 21G<60 298.106> 1016 168<403 653>
VStem: 60 610
LayerCount: 2
UndoRedoHistory
Layer: 1
Undoes
EndUndoes
Redoes
EndRedoes
EndUndoRedoHistory
Fore
SplineSet
60 0 m 1
 184 1184 l 1
 670 1184 l 1
 653 1016 l 1
 403 1016 l 1
 296 0 l 1
 60 0 l 1
EndSplineSet
EndChar

StartChar: afii10069
Encoding: 378 1076 184
Width: 1029
VWidth: 0
GlyphClass: 2
Flags: W
HStem: 0 168<197 586> 1014 170<538 675>
VStem: -82 172<-306 -221.638> 741 171<-306 -170.095>
LayerCount: 2
UndoRedoHistory
Layer: 1
Undoes
EndUndoes
Redoes
EndRedoes
EndUndoRedoHistory
Fore
SplineSet
197 168 m 1
 586 168 l 1
 675 1014 l 1
 538 1014 l 1
 537 1010 l 1
 475 418 336 257 197 168 c 1
-82 -306 m 1
 -33 157 l 1
 146 287 300 497 359 1059 c 2
 372 1184 l 1
 919 1184 l 1
 813 168 l 1
 962 168 l 1
 912 -306 l 1
 741 -306 l 1
 753 0 l 1
 142 0 l 1
 90 -306 l 1
 -82 -306 l 1
EndSplineSet
EndChar

StartChar: afii10072
Encoding: 381 1078 187
Width: 1209
VWidth: 0
GlyphClass: 2
Flags: W
HStem: 0 21G<-42 188.226 458 654.107 925.022 1151> 579 34<506 519 716 730> 1164 20G<100 332.305 579.898 776 1020.53 1256>
LayerCount: 2
UndoRedoHistory
Layer: 1
Undoes
EndUndoes
Redoes
EndRedoes
EndUndoRedoHistory
Fore
SplineSet
-42 0 m 1
 310 603 l 1
 100 1184 l 1
 326 1184 l 1
 506 613 l 1
 522 613 l 1
 582 1184 l 1
 776 1184 l 1
 716 613 l 1
 732 613 l 1
 1031 1184 l 1
 1256 1184 l 1
 926 603 l 1
 1151 0 l 1
 932 0 l 1
 730 579 l 1
 713 579 l 1
 652 0 l 1
 458 0 l 1
 519 579 l 1
 502 579 l 1
 177 0 l 1
 -42 0 l 1
EndSplineSet
EndChar

StartChar: afii10073
Encoding: 382 1079 188
Width: 772
VWidth: 0
GlyphClass: 2
Flags: W
HStem: -20 167<280.835 451.041> 527 166<289 471.581> 1026 174<340.56 527.591>
LayerCount: 2
UndoRedoHistory
Layer: 1
Undoes
EndUndoes
Redoes
EndRedoes
EndUndoRedoHistory
Fore
SplineSet
341 -20 m 0
 118 -20 33 101 61 371 c 1
 262 371 l 1
 245 208 284 147 362 147 c 0
 466 147 477 240 490 358 c 0
 506 512 455 527 271 527 c 1
 289 693 l 1
 479 693 531 741 545 872 c 0
 557 986 505 1026 440 1026 c 0
 364 1026 311 993 295 836 c 1
 94 836 l 1
 123 1110 262 1200 468 1200 c 0
 691 1200 768 1043 751 885 c 0
 729 673 606 620 523 614 c 1
 607 597 720 578 693 324 c 0
 670 100 555 -20 341 -20 c 0
EndSplineSet
EndChar

StartChar: afii10074
Encoding: 383 1080 189
Width: 951
VWidth: 0
GlyphClass: 2
Flags: W
HStem: 0 21G<60 261.017 596 793.095> 1164 20G<181.905 382 718.84 915>
LayerCount: 2
UndoRedoHistory
Layer: 1
Undoes
EndUndoes
Redoes
EndRedoes
EndUndoRedoHistory
Fore
SplineSet
60 0 m 1
 184 1184 l 1
 382 1184 l 1
 302 417 l 1
 730 1184 l 1
 915 1184 l 1
 791 0 l 1
 596 0 l 1
 678 777 l 1
 250 0 l 1
 60 0 l 1
EndSplineSet
EndChar

StartChar: afii10076
Encoding: 385 1082 191
Width: 862
VWidth: 0
GlyphClass: 2
Flags: W
HStem: 0 21G<60 298.113 555.499 808> 1164 20G<181.905 420 676.412 930>
LayerCount: 2
UndoRedoHistory
Layer: 1
Undoes
EndUndoes
Redoes
EndRedoes
EndUndoRedoHistory
Fore
SplineSet
60 0 m 1
 184 1184 l 1
 420 1184 l 1
 369 691 l 1
 426 691 l 1
 687 1184 l 1
 930 1184 l 1
 631 611 l 1
 808 0 l 1
 561 0 l 1
 410 549 l 1
 354 549 l 1
 296 0 l 1
 60 0 l 1
EndSplineSet
EndChar

StartChar: afii10077
Encoding: 386 1083 192
Width: 1006
VWidth: 0
GlyphClass: 2
Flags: W
HStem: -10 178<6 126.225> 1004 180<519 716>
LayerCount: 2
UndoRedoHistory
Layer: 1
Undoes
EndUndoes
Redoes
EndRedoes
EndUndoRedoHistory
Fore
SplineSet
-13 -10 m 1
 6 168 l 1
 172 168 194 287 254 673 c 1
 332 1184 l 1
 970 1184 l 1
 846 0 l 1
 610 0 l 1
 716 1004 l 1
 519 1004 l 1
 470 673 l 1
 388 127 313 -10 12 -10 c 2
 -13 -10 l 1
EndSplineSet
EndChar

StartChar: afii10078
Encoding: 387 1084 193
Width: 1100
VWidth: 0
GlyphClass: 2
Flags: W
HStem: 0 21G<54 253.113 749 947.875> 1164 20G<188.686 369.277 874.525 1057>
LayerCount: 2
UndoRedoHistory
Layer: 1
Undoes
EndUndoes
Redoes
EndRedoes
EndUndoRedoHistory
Fore
SplineSet
54 0 m 1
 191 1184 l 1
 364 1184 l 1
 550 479 l 1
 884 1184 l 1
 1057 1184 l 1
 946 0 l 1
 749 0 l 1
 820 675 l 1
 548 115 l 1
 476 115 l 1
 322 672 l 1
 251 0 l 1
 54 0 l 1
EndSplineSet
EndChar

StartChar: afii10079
Encoding: 388 1085 194
Width: 950
VWidth: 0
GlyphClass: 2
Flags: W
HStem: 0 21G<60 298.119 554 792.095> 519 173<369 609> 1164 20G<181.905 420 675.927 914>
LayerCount: 2
UndoRedoHistory
Layer: 1
Undoes
EndUndoes
Redoes
EndRedoes
EndUndoRedoHistory
Fore
SplineSet
60 0 m 1
 184 1184 l 1
 420 1184 l 1
 369 692 l 1
 627 692 l 1
 678 1184 l 1
 914 1184 l 1
 790 0 l 1
 554 0 l 1
 609 519 l 1
 351 519 l 1
 296 0 l 1
 60 0 l 1
EndSplineSet
EndChar

StartChar: afii10081
Encoding: 390 1087 196
Width: 921
VWidth: 0
GlyphClass: 2
Flags: W
HStem: 0 21G<60 298.109 525 763.095> 1005 179<402 631>
LayerCount: 2
UndoRedoHistory
Layer: 1
Undoes
EndUndoes
Redoes
EndRedoes
EndUndoRedoHistory
Fore
SplineSet
60 0 m 1
 184 1184 l 1
 885 1184 l 1
 761 0 l 1
 525 0 l 1
 631 1005 l 1
 402 1005 l 1
 296 0 l 1
 60 0 l 1
EndSplineSet
EndChar

StartChar: afii10084
Encoding: 393 1090 199
Width: 714
VWidth: 0
GlyphClass: 2
Flags: W
HStem: 0 21G<186 424.105> 1007 177<98 292 528 746>
LayerCount: 2
UndoRedoHistory
Layer: 1
Undoes
EndUndoes
Redoes
EndRedoes
EndUndoRedoHistory
Fore
SplineSet
186 0 m 1
 292 1007 l 1
 79 1007 l 1
 98 1184 l 1
 765 1184 l 1
 746 1007 l 1
 528 1007 l 1
 422 0 l 1
 186 0 l 1
EndSplineSet
EndChar

StartChar: afii10085
Encoding: 394 1091 200
Width: 819
VWidth: 0
GlyphClass: 2
Flags: W
HStem: -302 195<42 207.55> 1164 20G<101 322.596 619.927 855>
VStem: 101 220<1064.35 1184>
LayerCount: 2
UndoRedoHistory
Layer: 1
Undoes
EndUndoes
Redoes
EndRedoes
EndUndoRedoHistory
Fore
SplineSet
21 -302 m 1
 42 -107 l 1
 197 -105 253 -81 231 99 c 2
 101 1184 l 1
 321 1184 l 1
 370 570 l 1
 387 206 l 1
 469 569 l 1
 625 1184 l 1
 855 1184 l 1
 479 5 l 1
 396 -261 240 -302 21 -302 c 1
EndSplineSet
EndChar

StartChar: afii10086
Encoding: 395 1092 201
Width: 1264
VWidth: 0
GlyphClass: 2
Flags: W
HStem: -390 21G<430 651.124> 62 167<351.374 478 714 861.781> 1012 154<423.577 577 813 948.607> 1638 20G<642.927 864>
LayerCount: 2
UndoRedoHistory
Layer: 1
Undoes
EndUndoes
Redoes
EndRedoes
EndUndoRedoHistory
Fore
SplineSet
720 229 m 2
 862 229 944 296 968 523 c 2
 994 769 l 2
 1014 961 933 1012 806 1012 c 2
 796 1012 l 1
 714 229 l 1
 720 229 l 2
488 229 m 2
 495 229 l 1
 577 1012 l 1
 566 1012 l 2
 440 1012 352 961 332 769 c 2
 306 523 l 2
 282 296 346 229 488 229 c 2
430 -390 m 1
 478 62 l 1
 464 62 l 2
 286 62 52 132 93 521 c 2
 115 734 l 1
 147 1034 353 1166 575 1166 c 2
 594 1166 l 1
 645 1658 l 1
 864 1658 l 1
 813 1166 l 1
 841 1166 l 2
 1062 1166 1235 1034 1203 734 c 1
 1181 521 l 2
 1140 132 899 62 720 62 c 2
 697 62 l 1
 649 -390 l 1
 430 -390 l 1
EndSplineSet
EndChar

StartChar: afii10088
Encoding: 397 1094 203
Width: 1018
VWidth: 0
GlyphClass: 2
Flags: W
HStem: 0 168<314 585> 1164 20G<181.905 420 688.913 927>
VStem: 749 171<-306 -170.095>
LayerCount: 2
UndoRedoHistory
Layer: 1
Undoes
EndUndoes
Redoes
EndRedoes
EndUndoRedoHistory
Fore
SplineSet
749 -306 m 1
 761 0 l 1
 60 0 l 1
 184 1184 l 1
 420 1184 l 1
 314 168 l 1
 585 168 l 1
 691 1184 l 1
 927 1184 l 1
 821 168 l 1
 970 168 l 1
 920 -306 l 1
 749 -306 l 1
EndSplineSet
EndChar

StartChar: afii10089
Encoding: 398 1095 204
Width: 904
VWidth: 0
GlyphClass: 2
Flags: W
HStem: 0 21G<508 746.095> 453 168<351.186 557> 1164 20G<146.907 385 629.914 868>
LayerCount: 2
UndoRedoHistory
Layer: 1
Undoes
EndUndoes
Redoes
EndRedoes
EndUndoRedoHistory
Fore
SplineSet
508 0 m 1
 557 464 l 1
 504 458 452 453 401 453 c 0
 221 453 79 511 104 754 c 2
 149 1184 l 1
 385 1184 l 1
 340 751 l 2
 332 673 349 621 475 621 c 0
 502 621 535 623 574 628 c 1
 632 1184 l 1
 868 1184 l 1
 744 0 l 1
 508 0 l 1
EndSplineSet
EndChar

StartChar: afii10090
Encoding: 399 1096 205
Width: 1303
VWidth: 0
GlyphClass: 2
Flags: W
HStem: 0 168<306 500 728 933> 1164 20G<181.905 412 603.913 834 1036.91 1267>
LayerCount: 2
UndoRedoHistory
Layer: 1
Undoes
EndUndoes
Redoes
EndRedoes
EndUndoRedoHistory
Fore
SplineSet
60 0 m 1
 184 1184 l 1
 412 1184 l 1
 306 168 l 1
 500 168 l 1
 606 1184 l 1
 834 1184 l 1
 728 168 l 1
 933 168 l 1
 1039 1184 l 1
 1267 1184 l 1
 1143 0 l 1
 60 0 l 1
EndSplineSet
EndChar

StartChar: afii10091
Encoding: 400 1097 206
Width: 1404
VWidth: 0
GlyphClass: 2
Flags: W
HStem: 0 168<306 500 728 933> 1164 20G<181.905 412 603.913 834 1036.91 1267>
VStem: 1089 171<-306 -170.095>
LayerCount: 2
UndoRedoHistory
Layer: 1
Undoes
EndUndoes
Redoes
EndRedoes
EndUndoRedoHistory
Fore
SplineSet
1089 -306 m 1
 1101 0 l 1
 60 0 l 1
 184 1184 l 1
 412 1184 l 1
 306 168 l 1
 500 168 l 1
 606 1184 l 1
 834 1184 l 1
 728 168 l 1
 933 168 l 1
 1039 1184 l 1
 1267 1184 l 1
 1161 168 l 1
 1310 168 l 1
 1260 -306 l 1
 1089 -306 l 1
EndSplineSet
EndChar

StartChar: afii10092
Encoding: 401 1098 207
Width: 996
VWidth: 0
GlyphClass: 2
Flags: W
HStem: 0 138<435 657.707> 554 138<493 692.388> 1010 174<65 290>
LayerCount: 2
UndoRedoHistory
Layer: 1
Undoes
EndUndoes
Redoes
EndRedoes
EndUndoRedoHistory
Fore
SplineSet
435 138 m 1
 437 138 l 2
 637 138 709 167 728 350 c 0
 744 509 697 552 490 554 c 1
 478 554 l 1
 435 138 l 1
184 0 m 1
 290 1010 l 1
 47 1010 l 1
 65 1184 l 1
 544 1184 l 1
 493 692 l 1
 519 692 l 1
 843 689 970 640 940 349 c 0
 911 76 771 0 422 0 c 2
 184 0 l 1
EndSplineSet
EndChar

StartChar: afii10093
Encoding: 402 1099 208
Width: 1306
VWidth: 0
GlyphClass: 2
Flags: W
HStem: 0 138<311 533.707> 554 138<369 568.388> 1164 20G<181.905 420 1031.91 1270>
LayerCount: 2
UndoRedoHistory
Layer: 1
Undoes
EndUndoes
Redoes
EndRedoes
EndUndoRedoHistory
Fore
SplineSet
910 0 m 1
 1034 1184 l 1
 1270 1184 l 1
 1146 0 l 1
 910 0 l 1
311 138 m 1
 313 138 l 2
 513 138 585 167 604 350 c 0
 621 509 573 552 366 554 c 0
 362 554 358 554 354 554 c 1
 311 138 l 1
60 0 m 1
 184 1184 l 1
 420 1184 l 1
 369 692 l 1
 378 692 386 692 395 692 c 0
 719 689 846 640 816 349 c 0
 787 76 647 0 298 0 c 2
 60 0 l 1
EndSplineSet
EndChar

StartChar: afii10094
Encoding: 403 1100 209
Width: 862
VWidth: 0
GlyphClass: 2
Flags: W
HStem: 0 138<311 533.707> 554 138<369 568.388> 1164 20G<181.905 420>
LayerCount: 2
UndoRedoHistory
Layer: 1
Undoes
EndUndoes
Redoes
EndRedoes
EndUndoRedoHistory
Fore
SplineSet
311 138 m 1
 313 138 l 2
 513 138 585 167 604 350 c 0
 621 509 573 552 366 554 c 0
 362 554 358 554 354 554 c 1
 311 138 l 1
60 0 m 1
 184 1184 l 1
 420 1184 l 1
 369 692 l 1
 378 692 386 692 395 692 c 0
 719 689 846 640 816 349 c 0
 787 76 647 0 298 0 c 2
 60 0 l 1
EndSplineSet
EndChar

StartChar: afii10095
Encoding: 404 1101 210
Width: 852
VWidth: 0
GlyphClass: 2
Flags: W
HStem: -17 174<291.74 472.018> 525 131<271 533> 1025 175<371.411 552.846>
LayerCount: 2
UndoRedoHistory
Layer: 1
Undoes
EndUndoes
Redoes
EndRedoes
EndUndoRedoHistory
Fore
SplineSet
360 -17 m 0
 100 -17 44 105 70 354 c 1
 74 388 l 1
 287 388 l 1
 283 353 l 1
 268 212 286 157 375 157 c 0
 477 157 501 218 520 404 c 2
 533 525 l 1
 257 525 l 1
 271 656 l 1
 547 656 l 1
 561 788 l 2
 581 982 556 1025 465 1025 c 0
 364 1025 345 943 334 839 c 1
 328 776 l 1
 115 776 l 1
 120 823 l 2
 145 1065 235 1200 488 1200 c 0
 783 1200 821 1016 791 728 c 2
 762 454 l 2
 731 166 654 -17 360 -17 c 0
EndSplineSet
EndChar

StartChar: afii10096
Encoding: 405 1102 211
Width: 1192
VWidth: 0
GlyphClass: 2
Flags: W
HStem: -17 175<684.493 839.19> 0 21G<60 269.089> 517 155<338 484> 1026 174<769.644 919.769> 1164 20G<181.905 391>
LayerCount: 2
UndoRedoHistory
Layer: 1
Undoes
EndUndoes
Redoes
EndRedoes
EndUndoRedoHistory
Fore
SplineSet
757 158 m 0xb0
 863 158 874 284 886 402 c 2
 926 780 l 2
 938 898 954 1026 848 1026 c 0
 742 1026 730 898 718 780 c 2
 678 402 l 2
 666 284 651 158 757 158 c 0xb0
738 -17 m 0
 498 -17 446 156 474 418 c 1
 484 517 l 1
 321 517 l 1
 267 0 l 1
 60 0 l 1
 184 1184 l 1
 391 1184 l 1x68
 338 672 l 1
 501 672 l 1
 510 765 l 1
 538 1027 626 1200 866 1200 c 0
 1105 1200 1159 1027 1131 765 c 2
 1095 418 l 2
 1067 156 977 -17 738 -17 c 0
EndSplineSet
EndChar

StartChar: afii10097
Encoding: 406 1103 212
Width: 899
VWidth: 0
GlyphClass: 2
Flags: W
HStem: 0 21G<-33 232.236 503 741.095> 464 134<462.582 552> 1050 134<408.46 613>
LayerCount: 2
UndoRedoHistory
Layer: 1
Undoes
EndUndoes
Redoes
EndRedoes
EndUndoRedoHistory
Fore
SplineSet
550 598 m 0
 555 598 561 598 566 598 c 1
 613 1050 l 1
 609 1050 605 1050 601 1050 c 0
 414 1049 344 997 326 825 c 0
 310 674 353 601 550 598 c 0
-33 0 m 1
 241 499 l 1
 133 539 96 654 114 826 c 0
 141 1089 282 1183 627 1184 c 1
 863 1184 l 1
 739 0 l 1
 503 0 l 1
 552 464 l 1
 513 464 495 465 461 467 c 1
 222 0 l 1
 -33 0 l 1
EndSplineSet
EndChar

StartChar: uni0491
Encoding: 407 1169 213
Width: 610
VWidth: 0
Flags: W
HStem: 0 21G<60 298.106> 1016 168<403 541>
VStem: 60 631
LayerCount: 2
UndoRedoHistory
Layer: 1
Undoes
EndUndoes
Redoes
EndRedoes
EndUndoRedoHistory
Fore
SplineSet
60 0 m 1
 184 1184 l 1
 541 1184 l 1
 562 1384 l 1
 691 1384 l 1
 653 1016 l 1
 403 1016 l 1
 296 0 l 1
 60 0 l 1
EndSplineSet
EndChar

StartChar: afii10099
Encoding: 408 1106 214
Width: 952
VWidth: 0
GlyphClass: 2
Flags: W
HStem: -311 157<328 507.383> 0 21G<79 317.099> 858 155<485.983 768> 1261 140<75 211 462 744> 1638 20G<250.899 489>
LayerCount: 2
UndoRedoHistory
Layer: 1
Undoes
EndUndoes
Redoes
EndRedoes
EndUndoRedoHistory
Fore
SplineSet
311 -311 m 1
 328 -154 l 1
 350 -154 l 2
 506 -154 548 -145 580 160 c 2
 642 753 l 2
 649 815 641 858 564 858 c 0
 494 858 400 810 400 810 c 1
 315 0 l 1
 79 0 l 1
 211 1261 l 1
 61 1261 l 1
 75 1401 l 1
 226 1401 l 1
 253 1658 l 1
 489 1658 l 1
 462 1401 l 1
 758 1401 l 1
 744 1261 l 1
 448 1261 l 1
 413 930 l 1
 413 930 534 1013 680 1013 c 0
 856 1013 894 900 885 814 c 2
 821 210 l 2
 776 -220 714 -311 383 -311 c 2
 311 -311 l 1
EndSplineSet
EndChar

StartChar: afii10101
Encoding: 410 1108 216
Width: 820
VWidth: 0
GlyphClass: 2
Flags: W
HStem: -17 175<325.482 506.876> 525 154<347 619> 1026 174<406.269 586.521>
LayerCount: 2
UndoRedoHistory
Layer: 1
Undoes
EndUndoes
Redoes
EndRedoes
EndUndoRedoHistory
Fore
SplineSet
390 -17 m 0
 95 -17 58 167 88 455 c 2
 117 729 l 2
 147 1017 224 1200 518 1200 c 0
 778 1200 834 1078 808 829 c 1
 805 795 l 1
 592 795 l 1
 595 830 l 1
 610 971 593 1026 504 1026 c 0
 402 1026 377 965 358 779 c 1
 347 679 l 1
 635 679 l 1
 619 525 l 1
 331 525 l 1
 318 395 l 1
 297 201 323 158 414 158 c 0
 515 158 533 240 544 344 c 2
 550 403 l 1
 763 403 l 1
 759 360 l 1
 733 118 643 -17 390 -17 c 0
EndSplineSet
EndChar

StartChar: afii10103
Encoding: 412 1110 218
Width: 474
VWidth: 0
GlyphClass: 2
Flags: W
HStem: 0 21G<68 306.095> 1164 20G<189.905 428> 1338 236<235 447>
VStem: 68 403
LayerCount: 2
UndoRedoHistory
Layer: 1
Undoes
EndUndoes
Redoes
EndRedoes
EndUndoRedoHistory
Fore
SplineSet
211 1338 m 1
 235 1574 l 1
 471 1574 l 1
 447 1338 l 1
 211 1338 l 1
68 0 m 1
 192 1184 l 1
 428 1184 l 1
 304 0 l 1
 68 0 l 1
EndSplineSet
EndChar

StartChar: afii10105
Encoding: 414 1112 220
Width: 468
VWidth: 0
GlyphClass: 2
Flags: W
HStem: -296 178<-102.841 57.5536> 1164 20G<209.906 448> 1362 236<256 469>
VStem: -119 613
LayerCount: 2
UndoRedoHistory
Layer: 1
Undoes
EndUndoes
Redoes
EndRedoes
EndUndoRedoHistory
Fore
SplineSet
231 1362 m 1
 256 1598 l 1
 494 1598 l 1
 469 1362 l 1
 231 1362 l 1
-119 -281 m 1
 -101 -112 l 1
 -87 -115 -59 -118 -42 -118 c 0
 44 -118 81 -64 90 19 c 2
 212 1184 l 1
 448 1184 l 1
 323 -6 l 2
 304 -190 181 -296 -1 -296 c 0
 -41 -296 -89 -293 -119 -281 c 1
EndSplineSet
EndChar

StartChar: afii10106
Encoding: 415 1113 221
Width: 1366
VWidth: 0
GlyphClass: 2
Flags: W
HStem: -10 177<-21 95.1107> 0 138<835 1015.37> 553 138<893 1055.18> 1004 180<493 690>
LayerCount: 2
UndoRedoHistory
Layer: 1
Undoes
EndUndoes
Redoes
EndRedoes
EndUndoRedoHistory
Fore
SplineSet
835 138 m 1x70
 840 138 l 2
 1006 138 1069 181 1087 350 c 0
 1103 500 1062 553 883 553 c 2
 878 553 l 1
 835 138 l 1x70
-40 -10 m 1xb0
 -21 167 l 1xb0
 145 167 170 298 228 673 c 1
 305 1184 l 1
 944 1184 l 1
 893 691 l 1
 919 691 l 2
 1214 691 1328 628 1299 349 c 0
 1271 86 1141 6 820 0 c 1
 584 0 l 1x70
 690 1004 l 1
 493 1004 l 1
 437 638 l 1
 350 62 244 -10 -16 -10 c 2
 -40 -10 l 1xb0
EndSplineSet
EndChar

StartChar: afii10107
Encoding: 416 1114 222
Width: 1307
VWidth: 0
GlyphClass: 2
Flags: W
HStem: 0 138<779 962.546> 542 160<370 585 837 1008.73> 1164 20G<181.905 420 649.925 888>
LayerCount: 2
UndoRedoHistory
Layer: 1
Undoes
EndUndoes
Redoes
EndRedoes
EndUndoRedoHistory
Fore
SplineSet
779 138 m 1
 782 138 786 138 789 139 c 0
 958 143 1021 180 1039 350 c 0
 1055 500 1013 547 835 553 c 0
 831 553 826 553 822 554 c 1
 779 138 l 1
60 0 m 1
 184 1184 l 1
 420 1184 l 1
 370 702 l 1
 602 702 l 1
 652 1184 l 1
 888 1184 l 1
 837 692 l 1
 844 692 850 692 857 691 c 0
 1161 686 1280 632 1251 349 c 0
 1223 84 1090 5 764 0 c 1
 528 0 l 1
 585 542 l 1
 353 542 l 1
 296 0 l 1
 60 0 l 1
EndSplineSet
EndChar

StartChar: afii10108
Encoding: 417 1115 223
Width: 952
VWidth: 0
GlyphClass: 2
Flags: W
HStem: 0 21G<79 317.099 563 801.113> 858 155<486.988 768> 1261 140<75 211 462 744> 1638 20G<250.899 489>
LayerCount: 2
UndoRedoHistory
Layer: 1
Undoes
EndUndoes
Redoes
EndRedoes
EndUndoRedoHistory
Fore
SplineSet
79 0 m 1
 211 1261 l 1
 61 1261 l 1
 75 1401 l 1
 226 1401 l 1
 253 1658 l 1
 489 1658 l 1
 462 1401 l 1
 758 1401 l 1
 744 1261 l 1
 448 1261 l 1
 413 930 l 1
 413 930 534 1013 680 1013 c 0
 856 1013 894 900 885 814 c 2
 799 0 l 1
 563 0 l 1
 642 753 l 2
 649 815 641 858 564 858 c 0
 514 858 400 810 400 810 c 1
 315 0 l 1
 79 0 l 1
EndSplineSet
EndChar

StartChar: afii10145
Encoding: 420 1039 226
Width: 1131
VWidth: 0
GlyphClass: 2
Flags: W
HStem: 0 178<345 410 627 724> 1638 20G<247.901 500 876.905 1129>
VStem: 410 217<-93.3365 0>
LayerCount: 2
UndoRedoHistory
Layer: 1
Undoes
EndUndoes
Redoes
EndRedoes
EndUndoRedoHistory
Fore
SplineSet
393 -306 m 1
 410 0 l 1
 76 0 l 1
 250 1658 l 1
 500 1658 l 1
 345 178 l 1
 724 178 l 1
 879 1658 l 1
 1129 1658 l 1
 955 0 l 1
 627 0 l 1
 580 -306 l 1
 393 -306 l 1
EndSplineSet
EndChar

StartChar: afii10193
Encoding: 421 1119 227
Width: 927
VWidth: 0
GlyphClass: 2
Flags: W
HStem: 1164 20G<181.905 420 652.913 891>
VStem: 308 160<-306 -203.981> 320 191<-102.019 0>
LayerCount: 2
UndoRedoHistory
Layer: 1
Undoes
EndUndoes
Redoes
EndRedoes
EndUndoRedoHistory
Fore
SplineSet
308 -306 m 1xc0
 320 0 l 1
 60 0 l 1
 184 1184 l 1
 420 1184 l 1
 314 168 l 1
 549 168 l 1
 655 1184 l 1
 891 1184 l 1
 767 0 l 1
 511 0 l 1xa0
 468 -306 l 1
 308 -306 l 1xc0
EndSplineSet
EndChar

StartChar: afii61289
Encoding: 422 8467 228
Width: 1024
VWidth: 0
Flags: W
LayerCount: 2
UndoRedoHistory
Layer: 1
Undoes
EndUndoes
Redoes
EndRedoes
EndUndoRedoHistory
Fore
SplineSet
636 1013 m 1
 1262 1807 870 1897 805 1655 c 1
 636 1013 l 1
372 514 m 1
 199 302 l 1
 127 375 l 1
 435 761 l 1
 661 1653 l 2
 774 2099 1613 2031 712 929 c 1
 567 752 l 1
 456 330 l 2
 377 33 539 47 709 229 c 1
 772 148 l 1
 542 -93 213 -110 328 339 c 1
 372 514 l 1
EndSplineSet
EndChar

StartChar: ampersand
Encoding: 38 38 232
Width: 1242
VWidth: 0
GlyphClass: 2
Flags: W
HStem: -18 245<986.928 1073> -17 195<360.879 577.386> 1480 194<551.197 730.477>
VStem: 919 237<602.077 769>
LayerCount: 2
UndoRedoHistory
Layer: 1
Undoes
EndUndoes
Redoes
EndRedoes
EndUndoRedoHistory
Fore
SplineSet
554 947 m 1x30
 636 1039 728 1210 744 1362 c 0
 752 1434 711 1480 639 1480 c 0
 553 1480 510 1389 501 1302 c 0
 487 1173 525 1045 554 947 c 1x30
442 178 m 0x70
 541 178 615 242 665 298 c 1
 467 661 l 1
 409 592 355 472 342 355 c 1
 333 263 351 178 442 178 c 0x70
421 -17 m 0
 198 -17 82 134 105 355 c 0
 128 572 261 723 392 829 c 1
 340 963 245 1117 265 1302 c 0
 288 1521 440 1674 659 1674 c 0
 856 1674 1002 1558 981 1362 c 0
 958 1137 754 938 623 820 c 1
 817 454 l 1
 860 533 893 653 919 769 c 1
 1156 769 l 1
 1139 605 1033 411 952 306 c 1
 977 269 1035 227 1099 227 c 1xb0
 1073 -17 l 1x70
 1064 -18 1055 -18 1046 -18 c 0xb0
 922 -18 856 78 794 145 c 1
 711 51 584 -17 421 -17 c 0
EndSplineSet
EndChar

StartChar: approxequal
Encoding: 426 8776 234
Width: 936
VWidth: 0
GlyphClass: 2
Flags: W
HStem: 506 192<536.58 738.35> 625 190<239.445 439.96> 893 192<577.301 778.95> 1012 190<279.568 480.228>
LayerCount: 2
UndoRedoHistory
Layer: 1
Undoes
EndUndoes
Redoes
EndRedoes
EndUndoRedoHistory
Fore
SplineSet
663 893 m 0x20
 557 893 454 1012 362 1012 c 0
 323 1012 255 973 202 934 c 1
 130 1048 l 1
 194 1106 326 1202 399 1202 c 0x10
 504 1202 603 1085 697 1085 c 0
 738 1085 795 1126 854 1168 c 1
 927 1059 l 1
 865 994 743 893 663 893 c 0x20
622 506 m 0x80
 516 506 414 625 322 625 c 0
 283 625 215 586 161 547 c 1
 89 661 l 1
 154 719 286 815 359 815 c 0x40
 464 815 562 698 656 698 c 0
 697 698 755 739 813 781 c 1
 887 672 l 1
 825 607 702 506 622 506 c 0x80
EndSplineSet
EndChar

StartChar: asciicircum
Encoding: 94 94 236
Width: 933
VWidth: 0
GlyphClass: 2
Flags: W
HStem: 986 672<452 472>
LayerCount: 2
UndoRedoHistory
Layer: 1
Undoes
EndUndoes
Redoes
EndRedoes
EndUndoRedoHistory
Fore
SplineSet
126 986 m 1
 472 1658 l 1
 709 1658 l 1
 915 986 l 1
 689 986 l 1
 572 1480 l 1
 352 986 l 1
 126 986 l 1
EndSplineSet
EndChar

StartChar: asciitilde
Encoding: 126 126 237
Width: 936
VWidth: 0
GlyphClass: 2
Flags: W
HStem: 737 192<560.888 762.553> 856 190<263.568 464.047>
LayerCount: 2
UndoRedoHistory
Layer: 1
Undoes
EndUndoes
Redoes
EndRedoes
EndUndoRedoHistory
Fore
SplineSet
646 737 m 0x80
 540 737 438 856 346 856 c 0
 307 856 239 817 186 778 c 1
 114 892 l 1
 178 950 310 1046 383 1046 c 0x40
 488 1046 587 929 681 929 c 0
 722 929 779 970 837 1012 c 1
 911 903 l 1
 849 838 726 737 646 737 c 0x80
EndSplineSet
EndChar

StartChar: asterisk
Encoding: 42 42 238
Width: 828
VWidth: 0
GlyphClass: 2
Flags: W
VStem: 479 178<1584.83 1656>
LayerCount: 2
UndoRedoHistory
Layer: 1
Undoes
EndUndoes
Redoes
EndRedoes
EndUndoRedoHistory
Fore
SplineSet
367 952 m 1
 236 1036 l 1
 418 1260 l 1
 190 1351 l 1
 262 1500 l 1
 476 1378 l 1
 479 1656 l 1
 657 1656 l 1
 601 1378 l 1
 842 1500 l 1
 882 1351 l 1
 634 1259 l 1
 771 1036 l 1
 620 952 l 1
 521 1208 l 1
 367 952 l 1
EndSplineSet
EndChar

StartChar: at
Encoding: 64 64 239
Width: 1884
VWidth: 0
GlyphClass: 2
Flags: W
HStem: -285 182<668.974 1243.55> 191 130<1194.76 1427.23> 1064 174<1050.77 1215.42> 1474 184<914.544 1387.96>
LayerCount: 2
UndoRedoHistory
Layer: 1
Undoes
EndUndoes
Redoes
EndRedoes
EndUndoRedoHistory
Fore
SplineSet
930 378 m 1
 989 389 1059 449 1096 590 c 2
 1216 1057 l 1
 1202 1061 1185 1064 1171 1064 c 0
 1008 1064 836 832 808 564 c 0
 797 459 828 357 930 378 c 1
890 -285 m 0
 405 -285 70 -2 129 561 c 0
 208 1310 636 1658 1194 1658 c 0
 1696 1658 1876 1255 1836 871 c 0
 1799 523 1581 191 1257 191 c 0
 1137 191 1062 264 1068 379 c 1
 1041 297 981 207 863 196 c 0
 646 176 568 367 588 566 c 0
 619 861 850 1238 1147 1238 c 0
 1191 1238 1244 1209 1272 1185 c 1
 1296 1219 l 1
 1467 1219 l 1
 1268 456 l 1
 1251 385 1235 321 1295 321 c 0
 1481 321 1634 576 1662 847 c 0
 1694 1151 1569 1474 1160 1474 c 0
 725 1474 403 1119 345 571 c 0
 299 135 529 -103 931 -103 c 0
 1043 -103 1170 -85 1307 -46 c 1
 1330 -217 l 1
 1175 -262 1027 -285 890 -285 c 0
EndSplineSet
EndChar

StartChar: b
Encoding: 98 98 241
Width: 932
VWidth: 0
GlyphClass: 2
Flags: W
HStem: -17 187<369.736 548.831> 0 21G<64 302.093> 1014 186<495.383 775.5> 1638 20G<235.901 474>
LayerCount: 2
UndoRedoHistory
Layer: 1
Undoes
EndUndoes
Redoes
EndRedoes
EndUndoRedoHistory
Fore
SplineSet
467 170 m 0xb0
 574 170 591 310 607 465 c 2
 638 761 l 2
 651 889 653 1014 546 1014 c 0
 493 1014 443 991 401 961 c 1
 322 213 l 1
 359 188 405 170 467 170 c 0xb0
496 -17 m 0
 416 -17 354 30 309 86 c 1
 300 0 l 1
 64 0 l 1x70
 238 1658 l 1
 474 1658 l 1
 415 1091 l 1
 474 1151 550 1200 650 1200 c 0
 901 1200 886 879 874 761 c 2
 843 466 l 2
 818 226 732 -17 496 -17 c 0
EndSplineSet
EndChar

StartChar: backslash
Encoding: 92 92 242
Width: 769
VWidth: 0
GlyphClass: 2
Flags: W
HStem: 0 21G<448.779 656> 1638 20G<185 392.221>
VStem: 185 471
LayerCount: 2
UndoRedoHistory
Layer: 1
Undoes
EndUndoes
Redoes
EndRedoes
EndUndoRedoHistory
Fore
SplineSet
452 0 m 1
 185 1658 l 1
 389 1658 l 1
 656 0 l 1
 452 0 l 1
EndSplineSet
EndChar

StartChar: bar
Encoding: 124 124 243
Width: 501
VWidth: 0
GlyphClass: 2
Flags: W
HStem: 1639 20G<263.883 485>
VStem: 58 427
LayerCount: 2
UndoRedoHistory
Layer: 1
Undoes
EndUndoes
Redoes
EndRedoes
EndUndoRedoHistory
Fore
SplineSet
58 -306 m 1
 266 1659 l 1
 485 1659 l 1
 277 -306 l 1
 58 -306 l 1
EndSplineSet
EndChar

StartChar: braceleft
Encoding: 123 123 244
Width: 637
VWidth: 0
GlyphClass: 2
Flags: W
HStem: -406 175<401.972 495> 554 160<107 182.625> 1499 175<580.032 696>
VStem: 90 624
CounterMasks: 1 e0
LayerCount: 2
UndoRedoHistory
Layer: 1
Undoes
EndUndoes
Redoes
EndRedoes
EndUndoRedoHistory
Fore
SplineSet
495 -406 m 1
 133 -406 113 -358 152 7 c 2
 183 301 l 2
 206 525 190 554 90 554 c 1
 107 714 l 1
 207 714 229 743 253 967 c 2
 284 1261 l 2
 322 1626 352 1674 714 1674 c 1
 696 1499 l 1
 559 1499 556 1474 534 1261 c 2
 499 935 l 1
 478 730 412 653 327 634 c 1
 408 615 458 538 436 333 c 2
 402 7 l 2
 379 -206 377 -231 514 -231 c 1
 495 -406 l 1
EndSplineSet
EndChar

StartChar: braceright
Encoding: 125 125 245
Width: 685
VWidth: 0
GlyphClass: 2
Flags: W
HStem: -406 175<22 136.971> 554 160<534.5 610> 1499 175<222 315.029>
VStem: 3 624
CounterMasks: 1 e0
LayerCount: 2
UndoRedoHistory
Layer: 1
Undoes
EndUndoes
Redoes
EndRedoes
EndUndoRedoHistory
Fore
SplineSet
3 -406 m 1
 22 -231 l 1
 159 -231 161 -206 184 7 c 2
 218 333 l 2
 240 538 306 615 391 634 c 1
 310 653 260 730 281 935 c 1
 316 1261 l 2
 338 1474 341 1499 204 1499 c 1
 222 1674 l 1
 584 1674 604 1626 566 1261 c 2
 535 967 l 2
 511 743 527 714 627 714 c 1
 610 554 l 1
 510 554 488 525 465 301 c 2
 434 7 l 2
 395 -358 365 -406 3 -406 c 1
EndSplineSet
EndChar

StartChar: bracketleft
Encoding: 91 91 246
Width: 717
VWidth: 0
GlyphClass: 2
Flags: W
HStem: -390 120<285 509> 1539 119<475 712>
LayerCount: 2
UndoRedoHistory
Layer: 1
Undoes
EndUndoes
Redoes
EndRedoes
EndUndoRedoHistory
Fore
SplineSet
35 -390 m 1
 250 1658 l 1
 724 1658 l 1
 712 1539 l 1
 475 1539 l 1
 285 -270 l 1
 522 -270 l 1
 509 -390 l 1
 35 -390 l 1
EndSplineSet
EndChar

StartChar: bracketright
Encoding: 93 93 247
Width: 647
VWidth: 0
GlyphClass: 2
Flags: W
HStem: -390 119<-31 206> 1538 120<171 396>
LayerCount: 2
UndoRedoHistory
Layer: 1
Undoes
EndUndoes
Redoes
EndRedoes
EndUndoRedoHistory
Fore
SplineSet
-44 -390 m 1
 -31 -271 l 1
 206 -271 l 1
 396 1538 l 1
 159 1538 l 1
 171 1658 l 1
 645 1658 l 1
 430 -390 l 1
 -44 -390 l 1
EndSplineSet
EndChar

StartChar: breve
Encoding: 427 728 248
Width: 709
VWidth: 0
GlyphClass: 2
Flags: W
HStem: 1342 132<358.299 569.846> 1638 20G<195 341 610 755>
VStem: 204 137<1494.82 1658> 617 138<1521.23 1658>
LayerCount: 2
UndoRedoHistory
Layer: 1
Undoes
EndUndoes
Redoes
EndRedoes
EndUndoRedoHistory
Fore
SplineSet
446 1342 m 0
 217 1342 186 1485 204 1658 c 1
 341 1658 l 1
 327 1526 355 1474 460 1474 c 0
 565 1474 603 1527 617 1658 c 1
 755 1658 l 1
 737 1484 678 1342 446 1342 c 0
EndSplineSet
EndChar

StartChar: brevecomb
Encoding: 428 774 249
Width: 709
VWidth: 0
GlyphClass: 2
Flags: W
HStem: 1342 132<358.299 569.846> 1638 20G<195 341 610 755>
VStem: 204 137<1494.82 1658> 617 138<1521.23 1658>
LayerCount: 2
UndoRedoHistory
Layer: 1
Undoes
EndUndoes
Redoes
EndRedoes
EndUndoRedoHistory
Fore
SplineSet
446 1342 m 0
 217 1342 186 1485 204 1658 c 1
 341 1658 l 1
 327 1526 355 1474 460 1474 c 0
 565 1474 603 1527 617 1658 c 1
 755 1658 l 1
 737 1484 678 1342 446 1342 c 0
EndSplineSet
EndChar

StartChar: brokenbar
Encoding: 166 166 250
Width: 440
VWidth: 0
GlyphClass: 2
Flags: W
HStem: 1638 20G<247.916 438>
VStem: 44 394
LayerCount: 2
UndoRedoHistory
Layer: 1
Undoes
EndUndoes
Redoes
EndRedoes
EndUndoRedoHistory
Fore
SplineSet
163 823 m 1
 250 1658 l 1
 438 1658 l 1
 351 823 l 1
 163 823 l 1
44 -306 m 1
 132 529 l 1
 320 529 l 1
 232 -306 l 1
 44 -306 l 1
EndSplineSet
EndChar

StartChar: bullet
Encoding: 429 8226 251
Width: 775
VWidth: 0
GlyphClass: 2
Flags: W
HStem: 544 508<292.491 549.847>
VStem: 176 491
LayerCount: 2
UndoRedoHistory
Layer: 1
Undoes
EndUndoes
Redoes
EndRedoes
EndUndoRedoHistory
Fore
SplineSet
394 544 m 0
 238 544 160 644 176 798 c 0
 192 953 292 1052 448 1052 c 0
 604 1052 683 952 667 798 c 0
 651 643 550 544 394 544 c 0
EndSplineSet
EndChar

StartChar: c
Encoding: 99 99 252
Width: 852
VWidth: 0
GlyphClass: 2
Flags: W
HStem: -17 175<323.482 504.876> 1026 174<404.269 584.521>
LayerCount: 2
UndoRedoHistory
Layer: 1
Undoes
EndUndoes
Redoes
EndRedoes
EndUndoRedoHistory
Fore
SplineSet
388 -17 m 0
 93 -17 56 167 86 455 c 2
 115 729 l 2
 145 1017 222 1200 516 1200 c 0
 776 1200 832 1078 806 829 c 2
 798 755 l 1
 585 755 l 1
 593 830 l 2
 608 971 591 1026 502 1026 c 0
 400 1026 375 965 356 779 c 2
 316 395 l 2
 295 201 321 158 412 158 c 0
 513 158 531 240 542 344 c 2
 553 447 l 1
 766 447 l 1
 757 360 l 2
 731 118 641 -17 388 -17 c 0
EndSplineSet
EndChar

StartChar: caron
Encoding: 431 711 254
Width: 709
VWidth: 0
GlyphClass: 2
Flags: W
HStem: 1302 356<560 597>
VStem: 184 591
LayerCount: 2
UndoRedoHistory
Layer: 1
Undoes
EndUndoes
Redoes
EndRedoes
EndUndoRedoHistory
Fore
SplineSet
324 1302 m 1
 184 1658 l 1
 361 1658 l 1
 454 1421 l 1
 597 1658 l 1
 775 1658 l 1
 560 1302 l 1
 324 1302 l 1
EndSplineSet
EndChar

StartChar: cedilla
Encoding: 184 184 259
Width: 532
VWidth: 0
GlyphClass: 2
Flags: W
HStem: -473 118<-27 206.879> -178 178<68 174.056>
VStem: -40 432
LayerCount: 2
UndoRedoHistory
Layer: 1
Undoes
EndUndoes
Redoes
EndRedoes
EndUndoRedoHistory
Fore
SplineSet
-40 -473 m 1
 -27 -355 l 1
 69 -386 204 -379 214 -300 c 0
 225 -220 136 -201 49 -178 c 1
 68 0 l 1
 187 0 l 1
 175 -118 l 1
 282 -136 397 -190 392 -296 c 0
 382 -481 159 -535 -40 -473 c 1
EndSplineSet
EndChar

StartChar: cent
Encoding: 162 162 260
Width: 797
VWidth: 0
GlyphClass: 2
Flags: W
HStem: -13 171<388 504.51> 1026 170<412.047 444 516 583.847>
LayerCount: 2
UndoRedoHistory
Layer: 1
Undoes
EndUndoes
Redoes
EndRedoes
EndUndoRedoHistory
Fore
SplineSet
302 -151 m 1
 317 -13 l 1
 87 16 58 192 86 455 c 2
 115 729 l 2
 142 992 209 1167 444 1196 c 1
 458 1333 l 1
 530 1333 l 1
 516 1200 l 1
 776 1200 832 1078 806 829 c 2
 798 755 l 1
 585 755 l 1
 593 830 l 2
 608 971 591 1026 502 1026 c 0
 400 1026 375 965 356 779 c 2
 316 395 l 2
 295 201 321 158 412 158 c 0
 513 158 531 240 542 344 c 2
 553 447 l 1
 766 447 l 1
 757 360 l 2
 731 118 641 -17 388 -17 c 1
 374 -151 l 1
 302 -151 l 1
EndSplineSet
EndChar

StartChar: circumflex
Encoding: 435 710 261
Width: 709
VWidth: 0
GlyphClass: 2
Flags: W
HStem: 1272 386<321 361>
VStem: 144 591
LayerCount: 2
UndoRedoHistory
Layer: 1
Undoes
EndUndoes
Redoes
EndRedoes
EndUndoRedoHistory
Fore
SplineSet
144 1272 m 1
 361 1658 l 1
 597 1658 l 1
 735 1272 l 1
 557 1272 l 1
 467 1540 l 1
 321 1272 l 1
 144 1272 l 1
EndSplineSet
EndChar

StartChar: colon
Encoding: 58 58 262
Width: 405
VWidth: 0
GlyphClass: 2
Flags: W
HStem: 204 236<114 326> 844 238<182 394>
VStem: 89 330
LayerCount: 2
UndoRedoHistory
Layer: 1
Undoes
EndUndoes
Redoes
EndRedoes
EndUndoRedoHistory
Fore
SplineSet
157 844 m 1
 182 1082 l 1
 419 1082 l 1
 394 844 l 1
 157 844 l 1
89 204 m 1
 114 440 l 1
 351 440 l 1
 326 204 l 1
 89 204 l 1
EndSplineSet
EndChar

StartChar: comma
Encoding: 44 44 263
Width: 385
VWidth: 0
GlyphClass: 2
Flags: W
HStem: -277 103<30.3812 84.4961> 0 238<51 150>
VStem: 8 285
LayerCount: 2
UndoRedoHistory
Layer: 1
Undoes
EndUndoes
Redoes
EndRedoes
EndUndoRedoHistory
Fore
SplineSet
34 -277 m 1
 8 -174 l 1
 86 -154 141 -83 150 0 c 1
 26 0 l 1
 51 238 l 1
 293 238 l 1
 268 2 l 2
 253 -147 177 -232 34 -277 c 1
EndSplineSet
EndChar

StartChar: copyright
Encoding: 169 169 264
Width: 1765
VWidth: 0
GlyphClass: 2
Flags: W
HStem: -22 93<582.669 1113.45> 255 182<790.768 988.716> 1273 181<867.749 1069.48> 1613 95<735.713 1266.16>
LayerCount: 2
UndoRedoHistory
Layer: 1
Undoes
EndUndoes
Redoes
EndRedoes
EndUndoRedoHistory
Fore
SplineSet
831 -22 m 0
 246 -22 55 427 99 843 c 1
 142 1260 428 1708 1013 1708 c 0
 1597 1708 1787 1260 1744 843 c 0
 1700 426 1417 -22 831 -22 c 0
846 71 m 0
 1344 71 1605 458 1646 844 c 1
 1686 1231 1507 1613 1009 1613 c 0
 509 1613 249 1231 209 844 c 1
 168 458 346 71 846 71 c 0
865 255 m 0
 538 255 495 447 527 747 c 1
 549 963 l 1
 581 1263 665 1454 991 1454 c 0
 1280 1454 1343 1327 1316 1067 c 2
 1310 1011 l 1
 1079 1011 l 1
 1085 1068 l 2
 1101 1215 1076 1273 977 1273 c 0
 864 1273 829 1209 809 1015 c 2
 774 684 l 2
 753 482 789 437 890 437 c 0
 1002 437 1028 523 1039 632 c 2
 1046 699 l 1
 1277 699 l 1
 1272 649 l 2
 1246 396 1146 255 865 255 c 0
EndSplineSet
EndChar

StartChar: currency
Encoding: 164 164 265
Width: 1138
VWidth: 0
GlyphClass: 2
Flags: W
HStem: 428 93<417.107 740.211> 1211 93<480.464 803.568>
LayerCount: 2
UndoRedoHistory
Layer: 1
Undoes
EndUndoes
Redoes
EndRedoes
EndUndoRedoHistory
Fore
SplineSet
574 521 m 0
 764 521 925 677 945 866 c 0
 965 1056 836 1211 646 1211 c 0
 457 1211 296 1056 276 866 c 0
 256 677 385 521 574 521 c 0
104 381 m 1
 77 411 l 1
 257 573 l 1
 196 650 165 754 177 866 c 0
 189 979 242 1082 319 1159 c 1
 173 1321 l 1
 206 1351 l 1
 351 1189 l 1
 435 1261 542 1305 656 1304 c 1
 770 1305 869 1261 937 1189 c 1
 1116 1351 l 1
 1143 1321 l 1
 964 1159 l 1
 1024 1082 1055 979 1043 866 c 0
 1031 754 978 650 901 573 c 1
 1047 411 l 1
 1014 381 l 1
 869 543 l 1
 786 471 678 427 564 428 c 1
 450 427 352 471 283 543 c 1
 104 381 l 1
EndSplineSet
EndChar

StartChar: d
Encoding: 100 100 266
Width: 920
VWidth: 0
GlyphClass: 2
Flags: W
HStem: -17 187<334.7 474.579> 0 21G<524 762.099> 1014 186<418.357 590.678> 1638 20G<695.916 934>
LayerCount: 2
UndoRedoHistory
Layer: 1
Undoes
EndUndoes
Redoes
EndRedoes
EndUndoRedoHistory
Fore
SplineSet
417 170 m 0xb0
 452 170 498 181 546 205 c 1
 626 970 l 1
 590 996 548 1014 502 1014 c 0
 405 1014 369 902 357 790 c 2
 320 441 l 2
 305 294 304 170 417 170 c 0xb0
336 -17 m 0
 134 -18 50 112 87 462 c 2
 111 695 l 2
 138 955 211 1200 456 1200 c 0
 534 1200 595 1161 641 1111 c 1
 698 1658 l 1
 934 1658 l 1
 760 0 l 1
 524 0 l 1x70
 532 73 l 1
 474 18 409 -16 336 -17 c 0
EndSplineSet
EndChar

StartChar: dagger
Encoding: 436 8224 267
Width: 785
VWidth: 0
GlyphClass: 2
Flags: W
HStem: 0 21G<228 461.095> 1098 184<178 343 594 760>
VStem: 158 622
LayerCount: 2
UndoRedoHistory
Layer: 1
Undoes
EndUndoes
Redoes
EndRedoes
EndUndoRedoHistory
Fore
SplineSet
228 0 m 1
 343 1098 l 1
 158 1098 l 1
 178 1282 l 1
 363 1282 l 1
 402 1651 l 1
 633 1651 l 1
 594 1282 l 1
 780 1282 l 1
 760 1098 l 1
 574 1098 l 1
 459 0 l 1
 228 0 l 1
EndSplineSet
EndChar

StartChar: daggerdbl
Encoding: 437 8225 268
Width: 785
VWidth: 0
GlyphClass: 2
Flags: W
HStem: 0 21G<231 458.089> 517 158<94 285 527 719> 1026 158<147 339 580 773>
LayerCount: 2
UndoRedoHistory
Layer: 1
Undoes
EndUndoes
Redoes
EndRedoes
EndUndoRedoHistory
Fore
SplineSet
231 0 m 1
 285 517 l 1
 77 517 l 1
 94 675 l 1
 302 675 l 1
 339 1026 l 1
 131 1026 l 1
 147 1184 l 1
 355 1184 l 1
 405 1652 l 1
 630 1652 l 1
 580 1184 l 1
 789 1184 l 1
 773 1026 l 1
 564 1026 l 1
 527 675 l 1
 736 675 l 1
 719 517 l 1
 510 517 l 1
 456 0 l 1
 231 0 l 1
EndSplineSet
EndChar

StartChar: dcroat
Encoding: 439 273 270
Width: 943
VWidth: 0
GlyphClass: 2
Flags: W
HStem: -17 187<334.7 474.579> 0 21G<524 762.105> 1014 186<418.357 590.678> 1387 128<445 670 919 1028> 1638 20G<695.902 934>
LayerCount: 2
UndoRedoHistory
Layer: 1
Undoes
EndUndoes
Redoes
EndRedoes
EndUndoRedoHistory
Fore
SplineSet
417 170 m 0xb8
 452 170 498 181 546 205 c 1
 626 970 l 1
 590 996 548 1014 502 1014 c 0
 405 1014 369 902 357 790 c 2
 320 441 l 2
 305 294 304 170 417 170 c 0xb8
336 -17 m 0
 134 -18 50 112 87 462 c 2
 111 695 l 2
 138 955 211 1200 456 1200 c 0
 534 1200 595 1161 641 1111 c 1
 670 1387 l 1
 432 1387 l 1
 445 1515 l 1
 683 1515 l 1
 698 1658 l 1
 934 1658 l 1
 919 1515 l 1
 1041 1515 l 1
 1028 1387 l 1
 906 1387 l 1
 760 0 l 1
 524 0 l 1x78
 532 73 l 1
 474 18 409 -16 336 -17 c 0
EndSplineSet
EndChar

StartChar: degree
Encoding: 176 176 271
Width: 947
VWidth: 0
GlyphClass: 2
Flags: W
HStem: 964 157<426.264 662.646> 1517 157<456.736 697.041>
LayerCount: 2
UndoRedoHistory
Layer: 1
Undoes
EndUndoes
Redoes
EndRedoes
EndUndoRedoHistory
Fore
SplineSet
524 964 m 0
 300 964 184 1101 207 1320 c 0
 230 1539 377 1674 599 1674 c 0
 822 1674 941 1538 918 1320 c 0
 895 1101 747 964 524 964 c 0
541 1121 m 0
 657 1121 728 1205 740 1320 c 0
 752 1435 698 1517 582 1517 c 0
 466 1517 397 1435 385 1320 c 0
 373 1205 425 1121 541 1121 c 0
EndSplineSet
EndChar

StartChar: dieresis
Encoding: 168 168 272
Width: 828
VWidth: 0
GlyphClass: 2
Flags: W
HStem: 1421 237<242 454 597 810>
VStem: 217 618
LayerCount: 2
UndoRedoHistory
Layer: 1
Undoes
EndUndoes
Redoes
EndRedoes
EndUndoRedoHistory
Fore
SplineSet
572 1421 m 1
 597 1658 l 1
 835 1658 l 1
 810 1421 l 1
 572 1421 l 1
217 1421 m 1
 242 1658 l 1
 479 1658 l 1
 454 1421 l 1
 217 1421 l 1
EndSplineSet
EndChar

StartChar: divide
Encoding: 247 247 273
Width: 714
VWidth: 0
GlyphClass: 2
Flags: W
HStem: 341 237<273 434> 754 170<81 709> 1076 237<350 511>
VStem: 63 664
LayerCount: 2
UndoRedoHistory
Layer: 1
Undoes
EndUndoes
Redoes
EndRedoes
EndUndoRedoHistory
Fore
SplineSet
325 1076 m 1
 350 1313 l 1
 536 1313 l 1
 511 1076 l 1
 325 1076 l 1
63 754 m 1
 81 924 l 1
 727 924 l 1
 709 754 l 1
 63 754 l 1
248 341 m 1
 273 578 l 1
 459 578 l 1
 434 341 l 1
 248 341 l 1
EndSplineSet
EndChar

StartChar: dollar
Encoding: 36 36 274
Width: 1018
VWidth: 0
GlyphClass: 2
Flags: W
HStem: -17 195<382.389 457 530 614.023> 1184 21G<764.5 834.898>
VStem: 78 229<255.893 473> 588 72<1674 1800> 761 218<1243 1428.12>
LayerCount: 2
UndoRedoHistory
Layer: 1
Undoes
EndUndoes
Redoes
EndRedoes
EndUndoRedoHistory
Fore
SplineSet
443 -151 m 1
 457 -17 l 1
 176 -10 64 188 78 473 c 1
 307 533 l 1
 297 362 323 178 494 178 c 0
 606 178 670 244 682 362 c 0
 698 511 628 583 540 670 c 1
 292 909 l 1
 193 1006 148 1108 167 1284 c 0
 192 1525 353 1665 588 1674 c 1
 601 1800 l 1
 673 1800 l 1
 660 1672 l 1
 893 1656 981 1508 979 1243 c 1
 761 1184 l 1
 768 1337 751 1493 582 1480 c 0
 472 1472 405 1421 393 1308 c 0
 383 1205 410 1153 477 1087 c 1
 728 848 l 1
 840 738 938 594 916 382 c 0
 892 156 737 9 530 -14 c 1
 515 -151 l 1
 443 -151 l 1
EndSplineSet
EndChar

StartChar: dotlessi
Encoding: 441 305 276
Width: 473
VWidth: 0
GlyphClass: 2
Flags: W
HStem: 0 21G<74 312.095> 1164 20G<195.905 434>
VStem: 74 360
LayerCount: 2
Fore
SplineSet
74 0 m 1
 198 1184 l 1
 434 1184 l 1
 310 0 l 1
 74 0 l 1
EndSplineSet
EndChar

StartChar: e
Encoding: 101 101 277
Width: 875
VWidth: 0
GlyphClass: 2
Flags: W
HStem: -17 175<326.453 501.019> 583 127<349 581> 1026 174<407.91 579.528>
AnchorPoint: "ogonek" 472 0 basechar 0
LayerCount: 2
UndoRedoHistory
Layer: 1
Undoes
EndUndoes
Redoes
EndRedoes
EndUndoRedoHistory
Fore
SplineSet
349 710 m 1
 581 710 l 1
 592 820 l 2
 606 954 599 1026 500 1026 c 0
 398 1026 375 961 355 770 c 2
 349 710 l 1
394 -17 m 0
 99 -17 55 159 86 459 c 2
 114 723 l 2
 146 1028 234 1200 520 1200 c 0
 829 1200 843 998 809 677 c 2
 799 583 l 1
 335 583 l 1
 319 430 l 2
 305 293 278 158 411 158 c 0
 514 158 532 244 542 344 c 1
 550 414 l 1
 780 414 l 1
 775 373 l 1
 750 129 636 -17 394 -17 c 0
EndSplineSet
EndChar

StartChar: eight
Encoding: 56 56 284
Width: 976
VWidth: 0
GlyphClass: 2
Flags: W
HStem: -17 187<341.924 578.657> 757 226<445.444 626.245> 1490 184<486.127 695.409>
LayerCount: 2
UndoRedoHistory
Layer: 1
Undoes
EndUndoes
Redoes
EndRedoes
EndUndoRedoHistory
Fore
SplineSet
542 983 m 0
 671 983 716 1128 729 1257 c 0
 742 1377 716 1490 596 1490 c 0
 474 1490 424 1379 411 1257 c 0
 398 1128 412 983 542 983 c 0
457 170 m 0
 617 170 658 312 674 468 c 0
 689 612 665 757 519 757 c 0
 372 757 314 613 299 468 c 0
 282 309 297 170 457 170 c 0
437 -17 m 0
 134 -17 42 170 74 472 c 1
 95 680 181 795 314 875 c 1
 217 954 159 1063 178 1243 c 0
 206 1510 348 1674 615 1674 c 0
 881 1674 987 1509 959 1243 c 0
 940 1063 859 954 746 875 c 1
 859 794 923 679 902 472 c 0
 870 170 739 -17 437 -17 c 0
EndSplineSet
EndChar

StartChar: ellipsis
Encoding: 444 8230 285
Width: 1144
VWidth: 0
GlyphClass: 2
Flags: W
HStem: 0 248<46 256 430 640 814 1024>
LayerCount: 2
UndoRedoHistory
Layer: 1
Undoes
EndUndoes
Redoes
EndRedoes
EndUndoRedoHistory
Fore
SplineSet
788 0 m 1
 814 248 l 1
 1050 248 l 1
 1024 0 l 1
 788 0 l 1
404 0 m 1
 430 248 l 1
 666 248 l 1
 640 0 l 1
 404 0 l 1
20 0 m 1
 46 248 l 1
 282 248 l 1
 256 0 l 1
 20 0 l 1
EndSplineSet
EndChar

StartChar: emdash
Encoding: 446 8212 287
Width: 2046
VWidth: 0
GlyphClass: 2
Flags: W
HStem: 562 170<27 2055>
LayerCount: 2
UndoRedoHistory
Layer: 1
Undoes
EndUndoes
Redoes
EndRedoes
EndUndoRedoHistory
Fore
SplineSet
9 562 m 1
 27 732 l 1
 2073 732 l 1
 2055 562 l 1
 9 562 l 1
EndSplineSet
EndChar

StartChar: endash
Encoding: 447 8211 288
Width: 1024
VWidth: 0
GlyphClass: 2
Flags: W
HStem: 414 178<12 1018>
LayerCount: 2
UndoRedoHistory
Layer: 1
Undoes
EndUndoes
Redoes
EndRedoes
EndUndoRedoHistory
Fore
SplineSet
-6 414 m 1
 12 592 l 1
 1036 592 l 1
 1018 414 l 1
 -6 414 l 1
EndSplineSet
EndChar

StartChar: eng
Encoding: 448 331 289
Width: 794
VWidth: 0
GlyphClass: 2
Flags: W
HStem: -386 178<240 431.303> 0 21G<38 276.105> 1014 186<516.696 764> 1164 20G<159.905 398>
LayerCount: 2
UndoRedoHistory
Layer: 1
Undoes
EndUndoes
Redoes
EndRedoes
EndUndoRedoHistory
Fore
SplineSet
221 -386 m 1xe0
 240 -208 l 1
 444 -208 489 -146 503 -10 c 2
 597 888 l 2
 605 963 599 1014 522 1014 c 0xe0
 477 1014 423 985 374 950 c 1
 274 0 l 1
 38 0 l 1
 162 1184 l 1
 398 1184 l 1xd0
 386 1069 l 1
 473 1140 574 1200 691 1200 c 0
 837 1200 852 1064 841 960 c 2
 739 -12 l 2
 713 -255 535 -386 292 -386 c 2
 221 -386 l 1xe0
EndSplineSet
EndChar

StartChar: equal
Encoding: 61 61 291
Width: 857
VWidth: 0
GlyphClass: 2
Flags: W
HStem: 569 178<141 755> 936 178<179 793>
LayerCount: 2
UndoRedoHistory
Layer: 1
Undoes
EndUndoes
Redoes
EndRedoes
EndUndoRedoHistory
Fore
SplineSet
160 936 m 1
 179 1114 l 1
 812 1114 l 1
 793 936 l 1
 160 936 l 1
122 569 m 1
 141 747 l 1
 774 747 l 1
 755 569 l 1
 122 569 l 1
EndSplineSet
EndChar

StartChar: estimated
Encoding: 450 8494 292
Width: 875
VWidth: 0
GlyphClass: 2
Flags: W
HStem: -17 75<332.147 585.784> 583 76<343 595> 1116 84<427.181 600.925>
VStem: 652 118<125.789 414>
LayerCount: 2
UndoRedoHistory
Layer: 1
Undoes
EndUndoes
Redoes
EndRedoes
EndUndoRedoHistory
Fore
SplineSet
343 659 m 1
 595 659 l 1
 618 880 l 1
 633 1014 634 1116 519 1116 c 0
 402 1116 381 1021 361 830 c 2
 343 659 l 1
425 -17 m 0
 130 -17 51 119 82 419 c 2
 118 763 l 2
 150 1068 244 1200 530 1200 c 0
 839 1200 847 1038 813 717 c 2
 799 583 l 1
 335 583 l 1
 308 320 l 2
 289 141 281 58 461 58 c 0
 624 58 634 143 652 311 c 2
 663 414 l 1
 780 414 l 1
 770 319 l 2
 744 75 681 -17 425 -17 c 0
EndSplineSet
EndChar

StartChar: eth
Encoding: 240 240 293
Width: 978
VWidth: 0
GlyphClass: 2
Flags: W
HStem: -17 186<347.378 555.268> 947 193<444.224 650.949> 1520 154<293 530.398>
LayerCount: 2
UndoRedoHistory
Layer: 1
Undoes
EndUndoes
Redoes
EndRedoes
EndUndoRedoHistory
Fore
SplineSet
353 591 m 0
 333 395 263 169 443 169 c 0
 584 169 610 284 625 428 c 2
 672 875 l 1
 662 892 628 947 538 947 c 0
 420 947 378 828 353 591 c 0
867 483 m 2
 835 184 707 -17 416 -17 c 0
 104 -17 72 164 103 460 c 1
 118 595 l 1
 148 886 216 1140 498 1140 c 0
 597 1140 656 1100 689 1063 c 1
 691 1174 678 1279 646 1337 c 1
 388 1258 l 1
 401 1377 l 1
 592 1430 l 1
 541 1487 463 1520 267 1520 c 1
 293 1674 l 1
 567 1674 705 1615 782 1490 c 1
 1040 1564 l 1
 1028 1445 l 1
 833 1394 l 1
 883 1263 920 993 899 788 c 2
 867 483 l 2
EndSplineSet
EndChar

StartChar: exclam
Encoding: 33 33 294
Width: 428
VWidth: 0
GlyphClass: 2
Flags: W
HStem: 0 237<71 282> 1638 20G<219.064 456>
VStem: 46 410
LayerCount: 2
UndoRedoHistory
Layer: 1
Undoes
EndUndoes
Redoes
EndRedoes
EndUndoRedoHistory
Fore
SplineSet
159 355 m 1
 220 1658 l 1
 456 1658 l 1
 242 355 l 1
 159 355 l 1
46 0 m 1
 71 237 l 1
 307 237 l 1
 282 0 l 1
 46 0 l 1
EndSplineSet
EndChar

StartChar: exclamdown
Encoding: 161 161 295
Width: 428
VWidth: 0
GlyphClass: 2
Flags: W
HStem: 1065 237<183 394>
VStem: 9 410
LayerCount: 2
UndoRedoHistory
Layer: 1
Undoes
EndUndoes
Redoes
EndRedoes
EndUndoRedoHistory
Fore
SplineSet
158 1065 m 1
 183 1302 l 1
 419 1302 l 1
 394 1065 l 1
 158 1065 l 1
9 -356 m 1
 223 947 l 1
 306 947 l 1
 245 -356 l 1
 9 -356 l 1
EndSplineSet
EndChar

StartChar: f
Encoding: 102 102 296
Width: 598
VWidth: 0
GlyphClass: 2
Flags: W
HStem: 0 21G<129 366.105> 1007 177<113 235 488 648> 1421 177<528.151 690.496>
VStem: 95 614
LayerCount: 2
UndoRedoHistory
Layer: 1
Undoes
EndUndoes
Redoes
EndRedoes
EndUndoRedoHistory
Fore
SplineSet
129 0 m 1
 235 1007 l 1
 95 1007 l 1
 113 1184 l 1
 253 1184 l 1
 258 1230 l 2
 282 1459 333 1598 563 1598 c 0
 621 1598 650 1594 709 1587 c 1
 690 1411 l 1
 667 1413 634 1421 611 1421 c 0
 526 1421 507 1358 498 1273 c 2
 488 1184 l 1
 666 1184 l 1
 648 1007 l 1
 470 1007 l 1
 364 0 l 1
 129 0 l 1
EndSplineSet
EndChar

StartChar: five
Encoding: 53 53 297
Width: 971
VWidth: 0
GlyphClass: 2
Flags: W
HStem: -17 189<360.019 585.745> 901 177<436.642 658.669> 1421 237<436 954>
VStem: 85 237<214.266 473>
LayerCount: 2
UndoRedoHistory
Layer: 1
Undoes
EndUndoes
Redoes
EndRedoes
EndUndoRedoHistory
Fore
SplineSet
443 -17 m 0
 135 -17 53 169 85 473 c 1
 322 473 l 1
 307 337 304 172 466 172 c 0
 643 172 664 348 686 559 c 0
 707 764 711 901 546 901 c 0
 455 901 386 829 354 764 c 1
 152 764 l 1
 246 1658 l 1
 979 1658 l 1
 954 1421 l 1
 436 1421 l 1
 376 990 l 1
 437 1046 520 1078 621 1078 c 0
 895 1078 955 867 926 592 c 0
 891 257 780 -17 443 -17 c 0
EndSplineSet
EndChar

StartChar: florin
Encoding: 451 402 298
Width: 781
VWidth: 0
GlyphClass: 2
Flags: W
HStem: -237 177<-37.9403 130.548> 1007 177<243 356 628 763> 1421 177<683.91 852.94>
LayerCount: 2
UndoRedoHistory
Layer: 1
Undoes
EndUndoes
Redoes
EndRedoes
EndUndoRedoHistory
Fore
SplineSet
71 -237 m 0
 13 -237 -14 -233 -73 -226 c 1
 -37 -50 l 1
 -16 -54 19 -60 41 -60 c 0
 126 -60 151 4 169 89 c 2
 356 1007 l 1
 225 1007 l 1
 243 1184 l 1
 392 1184 l 1
 404 1243 l 2
 449 1467 517 1598 744 1598 c 0
 802 1598 830 1594 888 1587 c 1
 852 1411 l 1
 829 1413 798 1421 775 1421 c 0
 690 1421 664 1358 646 1273 c 2
 628 1184 l 1
 781 1184 l 1
 763 1007 l 1
 592 1007 l 1
 411 118 l 2
 365 -108 299 -237 71 -237 c 0
EndSplineSet
EndChar

StartChar: foundryicon
Encoding: 452 -1 299
Width: 1397
VWidth: 0
GlyphClass: 2
Flags: W
LayerCount: 2
UndoRedoHistory
Layer: 1
Undoes
EndUndoes
Redoes
EndRedoes
EndUndoRedoHistory
Fore
SplineSet
246 256 m 1
 454 757 l 1
 64 1080 l 1
 593 1080 l 1
 810 1582 l 1
 932 1080 l 1
 1461 1080 l 1
 1001 757 l 1
 1105 256 l 1
 703 558 l 1
 246 256 l 1
EndSplineSet
EndChar

StartChar: four
Encoding: 52 52 300
Width: 1005
VWidth: 0
GlyphClass: 2
Flags: W
HStem: 0 21G<500 739.118> 425 224<332 545 805 965> 1639 20G<605.35 911>
LayerCount: 2
UndoRedoHistory
Layer: 1
Undoes
EndUndoes
Redoes
EndRedoes
EndUndoRedoHistory
Fore
SplineSet
332 649 m 1
 568 649 l 1
 643 1362 l 1
 332 649 l 1
500 0 m 1
 545 425 l 1
 72 425 l 1
 100 690 l 1
 616 1659 l 1
 911 1659 l 1
 805 649 l 1
 988 649 l 1
 965 425 l 1
 782 425 l 1
 737 0 l 1
 500 0 l 1
EndSplineSet
EndChar

StartChar: fraction
Encoding: 453 8260 301
Width: 484
VWidth: 0
GlyphClass: 2
Flags: W
HStem: 0 21G<-50 158.489> 1638 20G<400.499 608>
VStem: -50 658
LayerCount: 2
UndoRedoHistory
Layer: 1
Undoes
EndUndoes
Redoes
EndRedoes
EndUndoRedoHistory
Fore
SplineSet
-50 0 m 1
 406 1658 l 1
 608 1658 l 1
 153 0 l 1
 -50 0 l 1
EndSplineSet
EndChar

StartChar: g
Encoding: 103 103 302
Width: 893
VWidth: 0
GlyphClass: 2
Flags: W
HStem: -362 187<189.299 570.146> 360 167<341.293 528.536> 1036 164<385.066 574.176>
LayerCount: 2
UndoRedoHistory
Layer: 1
Undoes
EndUndoes
Redoes
EndRedoes
EndUndoRedoHistory
Fore
SplineSet
428 527 m 0
 541 527 566 605 584 776 c 0
 602 948 598 1036 486 1036 c 0
 374 1036 346 958 327 776 c 0
 311 625 318 527 428 527 c 0
418 -175 m 0
 538 -175 590 -143 598 -67 c 0
 605 2 577 36 464 44 c 2
 269 58 l 1
 249 41 190 -18 183 -84 c 0
 177 -145 198 -175 418 -175 c 0
401 -362 m 0
 177 -362 -46 -353 -28 -181 c 0
 -14 -48 74 37 165 83 c 1
 87 108 63 161 69 217 c 0
 78 306 126 351 220 424 c 1
 141 491 102 581 123 776 c 0
 153 1065 283 1200 499 1200 c 0
 624 1200 696 1160 728 1074 c 1
 740 1089 814 1155 900 1193 c 2
 937 1209 l 1
 978 1057 l 1
 928 1047 788 1002 768 989 c 1
 783 942 789 839 782 769 c 0
 756 527 662 360 411 360 c 0
 388 360 302 374 302 374 c 1
 289 354 268 327 265 299 c 0
 262 265 289 250 360 245 c 2
 540 231 l 2
 715 218 798 121 779 -60 c 0
 755 -281 643 -362 401 -362 c 0
EndSplineSet
EndChar

StartChar: gcommaaccent
Encoding: 456 291 305
Width: 899
VWidth: 0
GlyphClass: 2
Flags: W
HStem: -354 174<178.681 630.635> 340 178<357.028 545.778> 1007 193<851.9 975> 1036 164<406.549 591.458> 1629 119<592.289 655>
LayerCount: 2
UndoRedoHistory
Layer: 1
Undoes
EndUndoes
Redoes
EndRedoes
EndUndoRedoHistory
Fore
SplineSet
449 518 m 0xd8
 570 518 611 648 624 769 c 0
 637 891 624 1036 504 1036 c 0
 382 1036 341 891 328 769 c 0
 315 648 329 518 449 518 c 0xd8
427 1274 m 1
 450 1497 440 1748 655 1748 c 1
 701 1629 l 1
 615 1629 578 1593 570 1510 c 1
 689 1510 l 1
 664 1274 l 1
 427 1274 l 1
435 -180 m 0
 519 -180 644 -175 652 -92 c 0
 653 -82 654 -71 652 -61 c 1
 648 -15 590 15 475 29 c 2
 282 53 l 1
 234 21 184 -50 176 -125 c 0
 168 -196 362 -180 435 -180 c 0
417 -354 m 0
 240 -354 -57 -353 -39 -181 c 0
 -25 -48 69 37 167 83 c 1
 113 98 54 130 60 186 c 0
 69 275 155 361 202 414 c 1
 138 501 105 621 121 769 c 0
 146 1011 286 1200 521 1200 c 0
 657 1200 716 1145 763 1061 c 1
 809 1133 883 1200 995 1200 c 1xd8
 975 1007 l 1xe8
 907 1007 856 980 820 947 c 1
 831 901 839 839 832 769 c 0
 806 527 672 340 431 340 c 0
 405 340 379 343 356 347 c 1
 312 347 l 1
 299 327 275 307 272 279 c 0
 256 122 898 272 863 -60 c 0
 839 -281 634 -354 417 -354 c 0
EndSplineSet
EndChar

StartChar: germandbls
Encoding: 223 223 307
Width: 1065
VWidth: 0
GlyphClass: 2
Flags: W
HStem: -17 195<442 612.262> 0 21G<68 306.1> 751 196<523 637.325> 1480 194<495.8 710.815>
LayerCount: 2
UndoRedoHistory
Layer: 1
Undoes
EndUndoes
Redoes
EndRedoes
EndUndoRedoHistory
Fore
SplineSet
421 -17 m 1xb0
 442 178 l 1xb0
 639 178 690 273 711 473 c 0
 728 642 663 751 502 751 c 1
 523 947 l 1
 666 947 722 1097 738 1243 c 0
 752 1376 741 1480 609 1480 c 0
 484 1480 449 1384 436 1257 c 2
 304 0 l 1
 68 0 l 1x70
 200 1253 l 2
 225 1498 361 1674 599 1674 c 0
 879 1674 998 1518 969 1243 c 0
 948 1049 867 941 727 868 c 1
 885 824 968 680 947 473 c 0
 913 149 747 -17 421 -17 c 1xb0
EndSplineSet
EndChar

StartChar: grave
Encoding: 96 96 308
Width: 591
VWidth: 0
GlyphClass: 2
Flags: W
HStem: 1252 406<437 479>
VStem: 242 313
LayerCount: 2
UndoRedoHistory
Layer: 1
Undoes
EndUndoes
Redoes
EndRedoes
EndUndoRedoHistory
Fore
SplineSet
437 1252 m 1
 242 1658 l 1
 479 1658 l 1
 555 1252 l 1
 437 1252 l 1
EndSplineSet
EndChar

StartChar: gravecomb
Encoding: 458 768 309
Width: 0
VWidth: 0
GlyphClass: 2
Flags: W
HStem: 1252 406<219 261>
VStem: 24 313
LayerCount: 2
UndoRedoHistory
Layer: 1
Undoes
EndUndoes
Redoes
EndRedoes
EndUndoRedoHistory
Fore
SplineSet
219 1252 m 1
 24 1658 l 1
 261 1658 l 1
 337 1252 l 1
 219 1252 l 1
EndSplineSet
EndChar

StartChar: greater
Encoding: 62 62 310
Width: 769
VWidth: 0
GlyphClass: 2
Flags: W
VStem: 74 662
LayerCount: 2
UndoRedoHistory
Layer: 1
Undoes
EndUndoes
Redoes
EndRedoes
EndUndoRedoHistory
Fore
SplineSet
74 60 m 1
 99 296 l 1
 545 593 l 1
 161 888 l 1
 186 1125 l 1
 736 711 l 1
 711 473 l 1
 74 60 l 1
EndSplineSet
EndChar

StartChar: greaterequal
Encoding: 459 8805 311
Width: 805
VWidth: 0
GlyphClass: 2
Flags: W
HStem: 0 139<83 687>
LayerCount: 2
UndoRedoHistory
Layer: 1
Undoes
EndUndoes
Redoes
EndRedoes
EndUndoRedoHistory
Fore
SplineSet
68 0 m 1
 83 139 l 1
 702 139 l 1
 687 0 l 1
 68 0 l 1
93 236 m 1
 118 472 l 1
 564 769 l 1
 180 1064 l 1
 205 1301 l 1
 754 887 l 1
 729 649 l 1
 93 236 l 1
EndSplineSet
EndChar

StartChar: guillemotleft
Encoding: 171 171 312
Width: 947
VWidth: 0
GlyphClass: 2
Flags: W
LayerCount: 2
UndoRedoHistory
Layer: 1
Undoes
EndUndoes
Redoes
EndRedoes
EndUndoRedoHistory
Fore
SplineSet
764 60 m 1
 479 533 l 1
 491 651 l 1
 876 1125 l 1
 845 829 l 1
 663 593 l 1
 795 355 l 1
 764 60 l 1
349 60 m 1
 66 533 l 1
 78 651 l 1
 461 1125 l 1
 430 829 l 1
 249 593 l 1
 380 355 l 1
 349 60 l 1
EndSplineSet
EndChar

StartChar: guillemotright
Encoding: 187 187 313
Width: 1006
VWidth: 0
GlyphClass: 2
Flags: W
LayerCount: 2
UndoRedoHistory
Layer: 1
Undoes
EndUndoes
Redoes
EndRedoes
EndUndoRedoHistory
Fore
SplineSet
490 60 m 1
 521 355 l 1
 722 593 l 1
 571 829 l 1
 602 1125 l 1
 905 651 l 1
 893 533 l 1
 490 60 l 1
75 60 m 1
 106 355 l 1
 308 593 l 1
 156 829 l 1
 187 1125 l 1
 492 651 l 1
 480 533 l 1
 75 60 l 1
EndSplineSet
EndChar

StartChar: guilsinglleft
Encoding: 460 8249 314
Width: 538
VWidth: 0
GlyphClass: 2
Flags: W
VStem: 66 475
LayerCount: 2
UndoRedoHistory
Layer: 1
Undoes
EndUndoes
Redoes
EndRedoes
EndUndoRedoHistory
Fore
SplineSet
429 60 m 1
 66 533 l 1
 78 651 l 1
 541 1125 l 1
 510 829 l 1
 249 593 l 1
 460 355 l 1
 429 60 l 1
EndSplineSet
EndChar

StartChar: guilsinglright
Encoding: 461 8250 315
Width: 587
VWidth: 0
GlyphClass: 2
Flags: W
VStem: 83 475
LayerCount: 2
UndoRedoHistory
Layer: 1
Undoes
EndUndoes
Redoes
EndRedoes
EndUndoRedoHistory
Fore
SplineSet
83 179 m 1
 114 474 l 1
 375 712 l 1
 164 948 l 1
 195 1244 l 1
 558 770 l 1
 546 652 l 1
 83 179 l 1
EndSplineSet
EndChar

StartChar: h
Encoding: 104 104 316
Width: 929
VWidth: 0
GlyphClass: 2
Flags: W
HStem: 0 21G<66 304.097 540 778.104> 1014 186<552.285 800> 1638 20G<237.901 476>
LayerCount: 2
UndoRedoHistory
Layer: 1
Undoes
EndUndoes
Redoes
EndRedoes
EndUndoRedoHistory
Fore
SplineSet
66 0 m 1
 240 1658 l 1
 476 1658 l 1
 414 1062 l 1
 502 1136 606 1200 727 1200 c 0
 873 1200 888 1064 877 960 c 2
 776 0 l 1
 540 0 l 1
 633 888 l 2
 641 963 635 1014 558 1014 c 0
 511 1014 453 982 401 944 c 1
 302 0 l 1
 66 0 l 1
EndSplineSet
EndChar

StartChar: hbar
Encoding: 462 295 317
Width: 929
VWidth: 0
GlyphClass: 2
Flags: W
HStem: 0 21G<66 304.097 540 778.104> 1014 186<552.285 800> 1411 131<100 214 464 701> 1638 20G<237.931 476>
LayerCount: 2
UndoRedoHistory
Layer: 1
Undoes
EndUndoes
Redoes
EndRedoes
EndUndoRedoHistory
Fore
SplineSet
66 0 m 1
 214 1411 l 1
 86 1411 l 1
 100 1542 l 1
 228 1542 l 1
 240 1658 l 1
 476 1658 l 1
 464 1542 l 1
 715 1542 l 1
 701 1411 l 1
 450 1411 l 1
 414 1062 l 1
 502 1136 606 1200 727 1200 c 0
 873 1200 888 1064 877 960 c 2
 776 0 l 1
 540 0 l 1
 633 888 l 2
 641 963 635 1014 558 1014 c 0
 511 1014 453 982 401 944 c 1
 302 0 l 1
 66 0 l 1
EndSplineSet
EndChar

StartChar: hungarumlaut
Encoding: 464 733 319
Width: 591
VWidth: 0
GlyphClass: 2
Flags: W
HStem: 1302 356
VStem: 289 664
LayerCount: 2
UndoRedoHistory
Layer: 1
Undoes
EndUndoes
Redoes
EndRedoes
EndUndoRedoHistory
Fore
SplineSet
560 1302 m 1
 716 1658 l 1
 953 1658 l 1
 679 1302 l 1
 560 1302 l 1
289 1302 m 1
 407 1658 l 1
 597 1658 l 1
 407 1302 l 1
 289 1302 l 1
EndSplineSet
EndChar

StartChar: hyphen
Encoding: 45 45 320
Width: 670
VWidth: 0
GlyphClass: 2
Flags: W
HStem: 516 178<126 571>
VStem: 107 483
LayerCount: 2
UndoRedoHistory
Layer: 1
Undoes
EndUndoes
Redoes
EndRedoes
EndUndoRedoHistory
Fore
SplineSet
107 516 m 1
 126 694 l 1
 590 694 l 1
 571 516 l 1
 107 516 l 1
EndSplineSet
EndChar

StartChar: i
Encoding: 105 105 321
Width: 480
VWidth: 0
GlyphClass: 2
Flags: W
HStem: 0 21G<74 312.095> 1164 20G<195.905 434> 1362 236<242 454>
VStem: 74 405
LayerCount: 2
UndoRedoHistory
Layer: 1
Undoes
EndUndoes
Redoes
EndRedoes
EndUndoRedoHistory
Fore
SplineSet
217 1362 m 1
 242 1598 l 1
 479 1598 l 1
 454 1362 l 1
 217 1362 l 1
74 0 m 1
 198 1184 l 1
 434 1184 l 1
 310 0 l 1
 74 0 l 1
EndSplineSet
EndChar

StartChar: infinity
Encoding: 468 8734 329
Width: 1305
VWidth: 0
GlyphClass: 2
Flags: W
HStem: 213 656<185 472> 230 204<881.703 1066.48> 648 204<896.236 1077.15>
LayerCount: 2
UndoRedoHistory
Layer: 1
Undoes
EndUndoes
Redoes
EndRedoes
EndUndoRedoHistory
Fore
SplineSet
968 434 m 0x60
 1028 433 1087 472 1094 541 c 0
 1101 610 1050 649 990 648 c 0
 954 647 915 633 824 541 c 1
 895 450 932 435 968 434 c 0x60
340 415 m 0
 387 418 444 443 538 541 c 1
 464 639 413 664 366 667 c 0
 296 672 234 614 226 541 c 0
 218 468 268 410 340 415 c 0
323 213 m 0x80
 116 213 31 353 51 541 c 0
 71 729 185 869 392 869 c 0x80
 541 869 625 793 695 704 c 1
 775 787 863 856 1003 852 c 0
 1192 846 1288 729 1268 541 c 0
 1248 353 1128 236 937 230 c 0x60
 797 226 723 295 661 378 c 1
 572 289 472 213 323 213 c 0x80
EndSplineSet
EndChar

StartChar: integral
Encoding: 469 8747 330
Width: 681
VWidth: 0
GlyphClass: 2
Flags: W
HStem: -389 177<-43.4963 117.465> 1503 177<565.816 727.47>
LayerCount: 2
UndoRedoHistory
Layer: 1
Undoes
EndUndoes
Redoes
EndRedoes
EndUndoRedoHistory
Fore
SplineSet
83 -389 m 0
 25 -389 -2 -385 -62 -378 c 1
 -43 -202 l 1
 -22 -206 14 -212 36 -212 c 0
 121 -212 140 -148 149 -63 c 2
 295 1325 l 2
 319 1549 374 1680 601 1680 c 0
 659 1680 686 1676 745 1669 c 1
 727 1493 l 1
 703 1495 672 1503 649 1503 c 0
 564 1503 543 1440 534 1355 c 2
 388 -34 l 2
 365 -260 311 -389 83 -389 c 0
EndSplineSet
EndChar

StartChar: j
Encoding: 106 106 333
Width: 480
VWidth: 0
GlyphClass: 2
Flags: W
HStem: -296 178<-102.841 57.5536> 1164 20G<209.906 448> 1362 236<256 469>
VStem: -119 613
LayerCount: 2
UndoRedoHistory
Layer: 1
Undoes
EndUndoes
Redoes
EndRedoes
EndUndoRedoHistory
Fore
SplineSet
231 1362 m 1
 256 1598 l 1
 494 1598 l 1
 469 1362 l 1
 231 1362 l 1
-119 -281 m 1
 -101 -112 l 1
 -87 -115 -59 -118 -42 -118 c 0
 44 -118 81 -64 90 19 c 2
 212 1184 l 1
 448 1184 l 1
 323 -6 l 2
 304 -190 181 -296 -1 -296 c 0
 -41 -296 -89 -293 -119 -281 c 1
EndSplineSet
EndChar

StartChar: k
Encoding: 107 107 335
Width: 892
VWidth: 0
GlyphClass: 2
Flags: W
HStem: 0 21G<600.95 841> 1164 20G<726 958.18> 1641 20G<236.889 475>
LayerCount: 2
UndoRedoHistory
Layer: 1
Undoes
EndUndoes
Redoes
EndRedoes
EndUndoRedoHistory
Fore
SplineSet
64 3 m 1
 239 1661 l 1
 475 1661 l 1
 372 688 l 1
 726 1183 l 1
 972 1184 l 1
 650 718 l 1
 841 0 l 1
 606 0 l 1
 455 598 l 1
 348 456 l 1
 300 3 l 1
 64 3 l 1
EndSplineSet
EndChar

StartChar: kgreenlandic
Encoding: 474 312 337
Width: 887
VWidth: 0
GlyphClass: 2
Flags: W
HStem: 0 21G<69 307.123 596.559 838> 1164 20G<190.905 429 711.178 962>
LayerCount: 2
UndoRedoHistory
Layer: 1
Undoes
EndUndoes
Redoes
EndRedoes
EndUndoRedoHistory
Fore
SplineSet
69 0 m 1
 193 1184 l 1
 429 1184 l 1
 376 679 l 1
 725 1184 l 1
 962 1184 l 1
 650 734 l 1
 838 0 l 1
 601 0 l 1
 474 572 l 1
 348 405 l 1
 305 0 l 1
 69 0 l 1
EndSplineSet
EndChar

StartChar: l
Encoding: 108 108 338
Width: 483
VWidth: 0
GlyphClass: 2
Flags: W
HStem: 0 21G<80 319.099> 1638 20G<251.901 491>
VStem: 80 411
LayerCount: 2
Fore
SplineSet
80 0 m 1
 254 1658 l 1
 491 1658 l 1
 317 0 l 1
 80 0 l 1
EndSplineSet
EndChar

StartChar: less
Encoding: 60 60 343
Width: 769
VWidth: 0
GlyphClass: 2
Flags: W
VStem: 60 659
LayerCount: 2
UndoRedoHistory
Layer: 1
Undoes
EndUndoes
Redoes
EndRedoes
EndUndoRedoHistory
Fore
SplineSet
607 60 m 1
 60 473 l 1
 85 711 l 1
 719 1125 l 1
 694 888 l 1
 249 593 l 1
 632 296 l 1
 607 60 l 1
EndSplineSet
EndChar

StartChar: lessequal
Encoding: 479 8804 344
Width: 805
VWidth: 0
GlyphClass: 2
Flags: W
HStem: 0 139<33 637>
LayerCount: 2
UndoRedoHistory
Layer: 1
Undoes
EndUndoes
Redoes
EndRedoes
EndUndoRedoHistory
Fore
SplineSet
18 0 m 1
 33 139 l 1
 652 139 l 1
 637 0 l 1
 18 0 l 1
649 221 m 1
 102 634 l 1
 127 872 l 1
 761 1286 l 1
 736 1049 l 1
 291 754 l 1
 674 457 l 1
 649 221 l 1
EndSplineSet
EndChar

StartChar: logicalnot
Encoding: 172 172 345
Width: 805
VWidth: 0
GlyphClass: 2
Flags: W
HStem: 744 178<129 660>
LayerCount: 2
UndoRedoHistory
Layer: 1
Undoes
EndUndoes
Redoes
EndRedoes
EndUndoRedoHistory
Fore
SplineSet
636 515 m 1
 660 744 l 1
 110 744 l 1
 129 922 l 1
 798 922 l 1
 755 515 l 1
 636 515 l 1
EndSplineSet
EndChar

StartChar: lozenge
Encoding: 480 9674 346
Width: 972
VWidth: 0
GlyphClass: 2
Flags: W
HStem: 0 21G<379.662 510.054> 1165 20G<486.936 617.287>
LayerCount: 2
UndoRedoHistory
Layer: 1
Undoes
EndUndoes
Redoes
EndRedoes
EndUndoRedoHistory
Fore
SplineSet
457 158 m 1
 746 592 l 1
 538 1012 l 1
 250 592 l 1
 457 158 l 1
390 0 m 1
 84 592 l 1
 501 1185 l 1
 607 1185 l 1
 912 592 l 1
 496 0 l 1
 390 0 l 1
EndSplineSet
EndChar

StartChar: lslash
Encoding: 481 322 347
Width: 553
VWidth: 0
GlyphClass: 2
Flags: W
HStem: 0 21G<120 358.093> 1166 20G<561.483 604.901> 1638 20G<291.903 530>
VStem: 60 547
LayerCount: 2
UndoRedoHistory
Layer: 1
Undoes
EndUndoes
Redoes
EndRedoes
EndUndoRedoHistory
Fore
SplineSet
120 0 m 1
 208 837 l 1
 60 771 l 1
 79 954 l 1
 227 1019 l 1
 294 1658 l 1
 530 1658 l 1
 475 1128 l 1
 607 1186 l 1
 588 1005 l 1
 455 946 l 1
 356 0 l 1
 120 0 l 1
EndSplineSet
EndChar

StartChar: m
Encoding: 109 109 348
Width: 1380
VWidth: 0
GlyphClass: 2
Flags: W
HStem: 0 21G<60 298.103 524 762.107 991 1229.1> 1014 186<537.365 762 1002.22 1251> 1164 20G<181.905 420>
LayerCount: 2
UndoRedoHistory
Layer: 1
Undoes
EndUndoes
Redoes
EndRedoes
EndUndoRedoHistory
Fore
SplineSet
542 1014 m 0xc0
 498 1014 445 986 396 951 c 1
 296 0 l 1
 60 0 l 1
 184 1184 l 1
 420 1184 l 1xa0
 409 1071 l 1
 494 1141 595 1200 711 1200 c 0
 813 1200 851 1134 861 1058 c 1
 950 1134 1055 1200 1178 1200 c 0
 1324 1200 1339 1064 1328 960 c 2
 1227 0 l 1
 991 0 l 1
 1084 888 l 2
 1092 963 1086 1014 1009 1014 c 0
 964 1014 910 985 860 949 c 1
 760 0 l 1
 524 0 l 1
 617 888 l 2
 625 963 619 1014 542 1014 c 0xc0
EndSplineSet
EndChar

StartChar: macron
Encoding: 175 175 349
Width: 591
VWidth: 0
GlyphClass: 2
Flags: W
HStem: 1517 141<238 624>
VStem: 223 416
LayerCount: 2
UndoRedoHistory
Layer: 1
Undoes
EndUndoes
Redoes
EndRedoes
EndUndoRedoHistory
Fore
SplineSet
223 1517 m 1
 238 1658 l 1
 639 1658 l 1
 624 1517 l 1
 223 1517 l 1
EndSplineSet
EndChar

StartChar: minus
Encoding: 482 8722 350
Width: 811
VWidth: 0
GlyphClass: 2
Flags: W
HStem: 754 139<140 744>
VStem: 125 634
LayerCount: 2
UndoRedoHistory
Layer: 1
Undoes
EndUndoes
Redoes
EndRedoes
EndUndoRedoHistory
Fore
SplineSet
125 754 m 1
 140 893 l 1
 759 893 l 1
 744 754 l 1
 125 754 l 1
EndSplineSet
EndChar

StartChar: mu
Encoding: 181 181 351
Width: 915
VWidth: 0
GlyphClass: 2
Flags: W
HStem: 0 21G<517 755.095> 1164 20G<174.927 413 638.897 877>
LayerCount: 2
UndoRedoHistory
Layer: 1
Undoes
EndUndoes
Redoes
EndRedoes
EndUndoRedoHistory
Fore
SplineSet
17 -360 m 1
 177 1184 l 1
 413 1184 l 1
 320 296 l 2
 312 221 319 170 396 170 c 0
 440 170 492 198 541 233 c 1
 641 1184 l 1
 877 1184 l 1
 753 0 l 1
 517 0 l 1
 529 113 l 1
 467 62 397 18 320 -3 c 0
 310 -6 300 -8 291 -10 c 1
 255 -360 l 1
 17 -360 l 1
EndSplineSet
EndChar

StartChar: multiply
Encoding: 215 215 352
Width: 799
VWidth: 0
GlyphClass: 2
Flags: W
HStem: 520 592
VStem: 121 628
LayerCount: 2
UndoRedoHistory
Layer: 1
Undoes
EndUndoes
Redoes
EndRedoes
EndUndoRedoHistory
Fore
SplineSet
227 520 m 1
 121 638 l 1
 317 816 l 1
 158 993 l 1
 289 1112 l 1
 447 935 l 1
 644 1112 l 1
 749 993 l 1
 553 816 l 1
 712 638 l 1
 582 520 l 1
 422 697 l 1
 227 520 l 1
EndSplineSet
EndChar

StartChar: n
Encoding: 110 110 353
Width: 915
VWidth: 0
GlyphClass: 2
Flags: W
HStem: 0 21G<60 298.105 526 764.104> 1014 186<538.696 786> 1164 20G<181.905 420>
LayerCount: 2
UndoRedoHistory
Layer: 1
Undoes
EndUndoes
Redoes
EndRedoes
EndUndoRedoHistory
Fore
SplineSet
60 0 m 1xc0
 184 1184 l 1
 420 1184 l 1xa0
 408 1069 l 1
 495 1140 596 1200 713 1200 c 0
 859 1200 874 1064 863 960 c 2
 762 0 l 1
 526 0 l 1
 619 888 l 2
 627 963 621 1014 544 1014 c 0
 499 1014 445 985 396 950 c 1
 296 0 l 1
 60 0 l 1xc0
EndSplineSet
EndChar

StartChar: nine
Encoding: 57 57 358
Width: 1001
VWidth: 0
GlyphClass: 2
Flags: W
HStem: -17 195<351.848 573.023> 651 178<429.113 630.569> 1480 194<495.328 705.527>
LayerCount: 2
UndoRedoHistory
Layer: 1
Undoes
EndUndoes
Redoes
EndRedoes
EndUndoRedoHistory
Fore
SplineSet
537 829 m 0
 629 829 688 887 727 947 c 1
 751 1184 l 1
 767 1329 746 1480 606 1480 c 0
 465 1480 412 1328 396 1184 c 1
 378 1006 359 829 537 829 c 0
448 -17 m 0
 185 -17 55 135 77 399 c 0
 78 404 78 409 79 414 c 1
 316 414 l 1
 300 269 327 178 469 178 c 0
 587 178 658 296 683 533 c 2
 708 769 l 1
 658 697 575 651 458 651 c 0
 183 651 125 853 153 1125 c 0
 185 1426 326 1674 626 1674 c 0
 917 1674 1014 1423 982 1125 c 2
 926 592 l 2
 892 267 769 -17 448 -17 c 0
EndSplineSet
EndChar

StartChar: notequal
Encoding: 487 8800 359
Width: 857
VWidth: 0
GlyphClass: 2
Flags: W
HStem: 0 21G<62 273.417> 569 178<141 273 543 755> 936 178<179 409 679 793> 1638 20G<669.574 881>
LayerCount: 2
UndoRedoHistory
Layer: 1
Undoes
EndUndoes
Redoes
EndRedoes
EndUndoRedoHistory
Fore
SplineSet
62 0 m 1
 273 569 l 1
 122 569 l 1
 141 747 l 1
 339 747 l 1
 409 936 l 1
 160 936 l 1
 179 1114 l 1
 475 1114 l 1
 677 1658 l 1
 881 1658 l 1
 679 1114 l 1
 812 1114 l 1
 793 936 l 1
 613 936 l 1
 543 747 l 1
 774 747 l 1
 755 569 l 1
 477 569 l 1
 266 0 l 1
 62 0 l 1
EndSplineSet
EndChar

StartChar: numbersign
Encoding: 35 35 361
Width: 1005
VWidth: 0
GlyphClass: 2
Flags: W
HStem: 0 21G<10 250.932 423 665.899> 592 177<91 154 435 569 850 959> 947 178<128 243 523 658 937 997> 1638 20G<413.047 655 828.047 1069>
LayerCount: 2
UndoRedoHistory
Layer: 1
Undoes
EndUndoes
Redoes
EndRedoes
EndUndoRedoHistory
Fore
SplineSet
435 769 m 1
 614 769 l 1
 658 947 l 1
 480 947 l 1
 435 769 l 1
10 0 m 1
 154 592 l 1
 72 592 l 1
 91 769 l 1
 199 769 l 1
 243 947 l 1
 110 947 l 1
 128 1125 l 1
 286 1125 l 1
 418 1658 l 1
 655 1658 l 1
 523 1125 l 1
 701 1125 l 1
 833 1658 l 1
 1069 1658 l 1
 937 1125 l 1
 1015 1125 l 1
 997 947 l 1
 895 947 l 1
 850 769 l 1
 978 769 l 1
 959 592 l 1
 806 592 l 1
 661 0 l 1
 423 0 l 1
 569 592 l 1
 392 592 l 1
 246 0 l 1
 10 0 l 1
EndSplineSet
EndChar

StartChar: o
Encoding: 111 111 362
Width: 881
VWidth: 0
GlyphClass: 2
Flags: W
HStem: -17 175<327.017 494.493> 1026 174<409.886 577.344>
AnchorPoint: "ogonek" 452 0 basechar 0
LayerCount: 2
Fore
SplineSet
388 -17 m 0
 121 -17 54 156 82 418 c 2
 118 765 l 2
 146 1027 249 1200 516 1200 c 0
 783 1200 851 1027 823 765 c 2
 787 418 l 2
 759 156 655 -17 388 -17 c 0
407 158 m 0
 525 158 536 284 548 402 c 2
 588 780 l 2
 600 898 616 1026 498 1026 c 0
 380 1026 368 898 356 780 c 2
 316 402 l 2
 304 284 289 158 407 158 c 0
EndSplineSet
EndChar

StartChar: oe
Encoding: 489 339 367
Width: 1420
VWidth: 0
GlyphClass: 2
Flags: W
HStem: -17 195<359.636 534.433> 592 119<854 1091> 1007 193<435.193 612.912 918.015 1076.69>
LayerCount: 2
UndoRedoHistory
Layer: 1
Undoes
EndUndoes
Redoes
EndRedoes
EndUndoRedoHistory
Fore
SplineSet
854 711 m 1
 1091 711 l 1
 1094 741 l 2
 1106 861 1116 1007 1004 1007 c 0
 892 1007 869 860 857 741 c 2
 854 711 l 1
442 178 m 0
 560 178 573 296 586 414 c 2
 623 769 l 2
 635 887 647 1007 529 1007 c 0
 411 1007 398 887 386 769 c 2
 349 414 l 2
 336 296 324 178 442 178 c 0
421 -17 m 0
 154 -17 84 152 112 414 c 2
 149 769 l 2
 176 1031 282 1200 549 1200 c 0
 671 1200 739 1144 773 1066 c 1
 820 1145 912 1200 1033 1200 c 0
 1324 1200 1358 1010 1325 690 c 1
 1314 592 l 1
 841 592 l 1
 835 533 l 2
 821 396 784 187 916 178 c 0
 1007 172 1039 220 1051 335 c 1
 1060 414 l 1
 1296 414 l 1
 1287 336 l 1
 1261 88 1136 -26 895 -17 c 0
 774 -12 705 39 673 118 c 1
 625 39 543 -17 421 -17 c 0
EndSplineSet
EndChar

StartChar: ogonek
Encoding: 490 731 368
Width: 496
VWidth: 0
GlyphClass: 2
Flags: W
HStem: -475 119<56.2438 230>
VStem: -123 408
AnchorPoint: "ogonek" 194 0 mark 0
LayerCount: 2
UndoRedoHistory
Layer: 1
Undoes
EndUndoes
Redoes
EndRedoes
EndUndoRedoHistory
Fore
SplineSet
230 -475 m 1
 13 -475 -141 -469 -123 -297 c 0
 -109 -158 34 -23 145 8 c 1
 264 8 l 1
 199 -65 65 -188 54 -293 c 0
 44 -387 205 -356 285 -356 c 1
 230 -475 l 1
EndSplineSet
EndChar

StartChar: one
Encoding: 49 49 372
Width: 977
VWidth: 0
GlyphClass: 2
Flags: W
HStem: 0 21G<409 647.099> 1302 178<268 335.589> 1638 20G<593.5 819>
VStem: 249 570
LayerCount: 2
UndoRedoHistory
Layer: 1
Undoes
EndUndoes
Redoes
EndRedoes
EndUndoRedoHistory
Fore
SplineSet
409 0 m 1
 551 1352 l 1
 249 1302 l 1
 268 1480 l 1
 368 1505 545 1547 642 1658 c 1
 819 1658 l 1
 645 0 l 1
 409 0 l 1
EndSplineSet
EndChar

StartChar: onehalf
Encoding: 189 189 373
Width: 1666
VWidth: 0
GlyphClass: 2
Flags: W
HStem: 3 118<1186 1469> 713 119<1248.42 1355.12> 1638 20G<446 540 1063.48 1269>
LayerCount: 2
UndoRedoHistory
Layer: 1
Undoes
EndUndoes
Redoes
EndRedoes
EndUndoRedoHistory
Fore
SplineSet
366 0 m 1
 1072 1658 l 1
 1269 1658 l 1
 562 0 l 1
 366 0 l 1
276 830 m 1
 332 1362 l 1
 213 1362 l 1
 226 1481 l 1
 326 1528 411 1581 481 1658 c 1
 540 1658 l 1
 453 830 l 1
 276 830 l 1
995 3 m 1
 1008 121 l 1
 1211 358 l 2
 1268 424 1344 494 1355 595 c 0
 1361 655 1367 713 1307 713 c 0
 1247 713 1242 655 1236 595 c 1
 1058 595 l 1
 1058 600 1059 605 1059 609 c 0
 1079 750 1172 832 1319 832 c 0
 1471 832 1547 744 1532 595 c 1
 1518 468 1416 356 1318 257 c 0
 1269 208 1221 163 1186 121 c 1
 1482 121 l 1
 1469 3 l 1
 995 3 l 1
EndSplineSet
EndChar

StartChar: onequarter
Encoding: 188 188 374
Width: 1666
VWidth: 0
GlyphClass: 2
Flags: W
HStem: 0 21G<357 561.528> 238 119<1090 1232 1423 1528> 1638 20G<446 539 1054.48 1260>
LayerCount: 2
UndoRedoHistory
Layer: 1
Undoes
EndUndoes
Redoes
EndRedoes
EndUndoRedoHistory
Fore
SplineSet
1090 357 m 1
 1245 357 l 1
 1275 644 l 1
 1090 357 l 1
357 0 m 1
 1063 1658 l 1
 1260 1658 l 1
 553 0 l 1
 357 0 l 1
275 830 m 1
 331 1362 l 1
 213 1362 l 1
 226 1481 l 1
 326 1528 411 1581 481 1658 c 1
 539 1658 l 1
 452 830 l 1
 275 830 l 1
1207 2 m 1
 1232 238 l 1
 937 238 l 1
 950 357 l 1
 1319 889 l 1
 1478 889 l 1
 1423 357 l 1
 1541 357 l 1
 1528 238 l 1
 1410 238 l 1
 1385 2 l 1
 1207 2 l 1
EndSplineSet
EndChar

StartChar: uni00B9
Encoding: 185 185 375
Width: 878
VWidth: 0
Flags: W
HStem: 1552 129<324 394.854>
VStem: 310 413
LayerCount: 2
UndoRedoHistory
Layer: 1
Undoes
EndUndoes
Redoes
EndRedoes
EndUndoRedoHistory
Fore
SplineSet
427 612 m 1
 529 1589 l 1
 310 1552 l 1
 324 1681 l 1
 397 1699 524 1730 595 1810 c 1
 723 1810 l 1
 598 612 l 1
 427 612 l 1
EndSplineSet
EndChar

StartChar: ordfeminine
Encoding: 170 170 376
Width: 924
VWidth: 0
GlyphClass: 2
Flags: W
HStem: 648 182<343.446 522.024> 1512 172<516.241 648.374>
VStem: 283 194<1333 1474.72>
LayerCount: 2
UndoRedoHistory
Layer: 1
Undoes
EndUndoes
Redoes
EndRedoes
EndUndoRedoHistory
Fore
SplineSet
483 830 m 0
 536 830 587 875 612 920 c 1
 635 1144 l 1
 543 1094 429 1037 418 930 c 0
 411 869 434 830 483 830 c 0
385 648 m 0
 265 648 187 746 201 878 c 0
 227 1121 463 1176 645 1235 c 1
 657 1347 l 2
 665 1431 662 1512 593 1512 c 0
 514 1512 487 1426 477 1333 c 1
 283 1333 l 1
 309 1539 427 1684 614 1684 c 0
 847 1684 884 1533 857 1278 c 2
 792 660 l 1
 601 660 l 1
 615 792 l 1
 567 711 482 648 385 648 c 0
EndSplineSet
EndChar

StartChar: ordmasculine
Encoding: 186 186 377
Width: 924
VWidth: 0
GlyphClass: 2
Flags: W
HStem: 645 176<406.843 588.963> 1508 176<473.066 651.575>
LayerCount: 2
UndoRedoHistory
Layer: 1
Undoes
EndUndoes
Redoes
EndRedoes
EndUndoRedoHistory
Fore
SplineSet
494 821 m 0
 615 821 625 937 639 1065 c 2
 660 1264 l 2
 673 1393 689 1508 566 1508 c 0
 446 1508 431 1391 418 1264 c 2
 397 1065 l 2
 384 938 374 821 494 821 c 0
480 645 m 0
 237 645 172 796 197 1038 c 2
 224 1292 l 2
 249 1534 346 1684 589 1684 c 0
 820 1684 896 1523 872 1292 c 2
 845 1038 l 2
 821 807 711 645 480 645 c 0
EndSplineSet
EndChar

StartChar: oslash
Encoding: 248 248 378
Width: 881
VWidth: 0
GlyphClass: 2
Flags: W
HStem: -17 175<327.017 494.493> 1026 174<409.886 577.344>
LayerCount: 2
UndoRedoHistory
Layer: 1
Undoes
EndUndoes
Redoes
EndRedoes
EndUndoRedoHistory
Fore
SplineSet
80 -205 m 1
 14 -182 l 1
 726 1379 l 1
 804 1353 l 1
 80 -205 l 1
EndSplineSet
Refer: 362 111 N 1 0 0 1 0 0 3
EndChar

StartChar: p
Encoding: 112 112 380
Width: 929
VWidth: 0
GlyphClass: 2
Flags: W
HStem: -390 21G<19 257.096> -17 187<366.153 545.831> 1014 186<491.938 772.5> 1164 20G<181.903 420>
LayerCount: 2
UndoRedoHistory
Layer: 1
Undoes
EndUndoes
Redoes
EndRedoes
EndUndoRedoHistory
Fore
SplineSet
464 170 m 0xe0
 571 170 588 310 604 465 c 2
 635 761 l 2
 648 889 650 1014 543 1014 c 0
 490 1014 439 990 397 961 c 1
 318 214 l 1
 355 189 402 170 464 170 c 0xe0
19 -390 m 1
 184 1184 l 1
 420 1184 l 1xd0
 411 1090 l 1
 470 1150 547 1200 647 1200 c 0
 898 1200 883 879 871 761 c 2
 840 466 l 2
 815 226 729 -17 493 -17 c 0
 412 -17 351 31 305 87 c 1
 255 -390 l 1
 19 -390 l 1
EndSplineSet
EndChar

StartChar: paragraph
Encoding: 182 182 381
Width: 1011
VWidth: 0
GlyphClass: 2
Flags: W
HStem: 1549 109<687 830>
LayerCount: 2
UndoRedoHistory
Layer: 1
Undoes
EndUndoes
Redoes
EndRedoes
EndUndoRedoHistory
Fore
SplineSet
335 -196 m 1
 466 1048 l 1
 269 1048 139 1154 160 1351 c 0
 183 1566 340 1658 569 1658 c 2
 1009 1658 l 1
 814 -196 l 1
 646 -196 l 1
 830 1549 l 1
 687 1549 l 1
 503 -196 l 1
 335 -196 l 1
EndSplineSet
EndChar

StartChar: parenleft
Encoding: 40 40 382
Width: 620
VWidth: 0
GlyphClass: 2
Flags: W
HStem: -412 157<412.865 467> 1516 158<582.999 669>
LayerCount: 2
UndoRedoHistory
Layer: 1
Undoes
EndUndoes
Redoes
EndRedoes
EndUndoRedoHistory
Fore
SplineSet
467 -412 m 1
 61 -412 111 135 163 629 c 0
 215 1124 280 1674 686 1674 c 1
 669 1516 l 1
 479 1516 432 1038 389 629 c 0
 346 215 292 -255 483 -255 c 1
 467 -412 l 1
EndSplineSet
EndChar

StartChar: parenright
Encoding: 41 41 383
Width: 533
VWidth: 0
GlyphClass: 2
Flags: W
HStem: -412 158<-17 69.0799> 1517 157<186 240.128>
LayerCount: 2
UndoRedoHistory
Layer: 1
Undoes
EndUndoes
Redoes
EndRedoes
EndUndoRedoHistory
Fore
SplineSet
-33 -412 m 1
 -17 -254 l 1
 173 -254 221 224 264 633 c 0
 307 1047 360 1517 169 1517 c 1
 186 1674 l 1
 592 1674 541 1127 490 633 c 0
 438 138 373 -412 -33 -412 c 1
EndSplineSet
EndChar

StartChar: partialdiff
Encoding: 493 8706 384
Width: 994
VWidth: 0
GlyphClass: 2
Flags: W
HStem: -26 176<308.17 564.621> 947 178<427.829 712.825> 1528 150<476 610.941>
LayerCount: 2
UndoRedoHistory
Layer: 1
Undoes
EndUndoes
Redoes
EndRedoes
EndUndoRedoHistory
Fore
SplineSet
429 150 m 0
 539 150 611 180 668 439 c 2
 764 874 l 1
 682 925 611 947 551 947 c 0
 442 947 372 873 348 754 c 2
 274 371 l 2
 272 360 271 350 270 340 c 0
 258 231 305 150 429 150 c 0
398 -26 m 0
 206 -26 34 92 61 350 c 0
 63 367 64 385 68 403 c 2
 144 790 l 2
 183 991 334 1125 536 1125 c 0
 679 1125 767 1049 804 1014 c 1
 814 1053 820 1089 824 1122 c 0
 853 1402 659 1505 418 1528 c 1
 476 1678 l 1
 698 1678 1049 1595 992 1055 c 0
 989 1023 894 531 894 531 c 1
 796 27 599 -26 398 -26 c 0
EndSplineSet
EndChar

StartChar: percent
Encoding: 37 37 385
Width: 1907
VWidth: 0
GlyphClass: 2
Flags: W
HStem: -10 178<1381.44 1557.57> 711 180<1424.79 1607.38> 767 178<377.968 554.236> 1488 180<420.828 603.568>
LayerCount: 2
UndoRedoHistory
Layer: 1
Undoes
EndUndoes
Redoes
EndRedoes
EndUndoRedoHistory
Fore
SplineSet
584 0 m 1x90
 1197 1658 l 1
 1400 1658 l 1
 788 0 l 1
 584 0 l 1x90
1445 -10 m 0
 1206 -10 1122 143 1148 391 c 2
 1159 494 l 2
 1186 748 1294 891 1540 891 c 0xd0
 1784 891 1865 757 1838 506 c 2
 1825 384 l 2
 1799 134 1685 -10 1445 -10 c 0
1464 168 m 0
 1572 168 1599 275 1610 384 c 2
 1623 506 l 2
 1635 619 1631 711 1521 711 c 0
 1410 711 1388 615 1376 504 c 2
 1363 382 l 2
 1352 273 1359 168 1464 168 c 0
442 767 m 0xb0
 203 767 119 920 145 1168 c 2
 156 1271 l 1
 182 1525 290 1668 536 1668 c 0
 780 1668 861 1534 835 1283 c 2
 822 1161 l 2
 796 911 682 767 442 767 c 0xb0
460 945 m 0
 568 945 596 1052 607 1161 c 2
 620 1283 l 2
 632 1396 627 1488 517 1488 c 0
 406 1488 384 1392 373 1281 c 2
 360 1159 l 2
 348 1050 355 945 460 945 c 0
EndSplineSet
EndChar

StartChar: period
Encoding: 46 46 386
Width: 390
VWidth: 0
GlyphClass: 2
Flags: W
HStem: 0 248<70 280>
VStem: 44 262
LayerCount: 2
UndoRedoHistory
Layer: 1
Undoes
EndUndoes
Redoes
EndRedoes
EndUndoRedoHistory
Fore
SplineSet
44 0 m 1
 70 248 l 1
 306 248 l 1
 280 0 l 1
 44 0 l 1
EndSplineSet
EndChar

StartChar: periodcentered
Encoding: 183 183 387
Width: 354
VWidth: 0
GlyphClass: 2
Flags: W
HStem: 653 236<103 315>
VStem: 79 260
LayerCount: 2
UndoRedoHistory
Layer: 1
Undoes
EndUndoes
Redoes
EndRedoes
EndUndoRedoHistory
Fore
SplineSet
79 653 m 1
 103 889 l 1
 339 889 l 1
 315 653 l 1
 79 653 l 1
EndSplineSet
EndChar

StartChar: perthousand
Encoding: 494 8240 388
Width: 2694
VWidth: 0
GlyphClass: 2
Flags: W
HStem: -10 178<1381.44 1557.57 2168.44 2344.57> 711 180<1424.79 1607.38 2211.79 2394.38> 767 178<377.968 554.236> 1488 180<420.828 603.568>
LayerCount: 2
UndoRedoHistory
Layer: 1
Undoes
EndUndoes
Redoes
EndRedoes
EndUndoRedoHistory
Fore
SplineSet
584 0 m 1x90
 1197 1658 l 1
 1400 1658 l 1
 788 0 l 1
 584 0 l 1x90
2232 -10 m 0
 1993 -10 1909 143 1935 391 c 2
 1946 494 l 2
 1973 748 2081 891 2327 891 c 0xd0
 2571 891 2652 757 2625 506 c 2
 2612 384 l 2
 2586 134 2472 -10 2232 -10 c 0
2251 168 m 0
 2359 168 2386 275 2397 384 c 2
 2410 506 l 2
 2422 619 2418 711 2308 711 c 0
 2197 711 2175 615 2163 504 c 2
 2150 382 l 2
 2139 273 2146 168 2251 168 c 0
1445 -10 m 0
 1206 -10 1122 143 1148 391 c 2
 1159 494 l 2
 1186 748 1294 891 1540 891 c 0
 1784 891 1865 757 1838 506 c 2
 1825 384 l 2
 1799 134 1685 -10 1445 -10 c 0
1464 168 m 0
 1572 168 1599 275 1610 384 c 2
 1623 506 l 2
 1635 619 1631 711 1521 711 c 0
 1410 711 1388 615 1376 504 c 2
 1363 382 l 2
 1352 273 1359 168 1464 168 c 0
442 767 m 0xb0
 203 767 119 920 145 1168 c 2
 156 1271 l 1
 182 1525 290 1668 536 1668 c 0
 780 1668 861 1534 835 1283 c 2
 822 1161 l 2
 796 911 682 767 442 767 c 0xb0
460 945 m 0
 568 945 596 1052 607 1161 c 2
 620 1283 l 2
 632 1396 627 1488 517 1488 c 0
 406 1488 384 1392 373 1281 c 2
 360 1159 l 2
 348 1050 355 945 460 945 c 0
EndSplineSet
EndChar

StartChar: pi
Encoding: 495 960 389
Width: 1110
VWidth: 0
Flags: W
HStem: -20 181<863.371 951> 0 21G<122 360.105> 1007 177<110 228 464 682 918 1084>
LayerCount: 2
UndoRedoHistory
Layer: 1
Undoes
EndUndoes
Redoes
EndRedoes
EndUndoRedoHistory
Fore
SplineSet
464 1007 m 1xa0
 358 0 l 1
 122 0 l 1x60
 228 1007 l 1
 92 1007 l 1
 110 1184 l 1
 1102 1184 l 1
 1084 1007 l 1
 918 1007 l 1
 851 369 l 2
 832 194 863 161 984 161 c 1
 951 -20 l 1
 661 -20 585 81 606 288 c 2
 682 1007 l 1
 464 1007 l 1xa0
EndSplineSet
EndChar

StartChar: plus
Encoding: 43 43 390
Width: 866
VWidth: 0
GlyphClass: 2
Flags: W
HStem: 763 178<101 369 565 844>
LayerCount: 2
UndoRedoHistory
Layer: 1
Undoes
EndUndoes
Redoes
EndRedoes
EndUndoRedoHistory
Fore
SplineSet
334 425 m 1
 369 763 l 1
 82 763 l 1
 101 941 l 1
 388 941 l 1
 423 1278 l 1
 600 1278 l 1
 565 941 l 1
 863 941 l 1
 844 763 l 1
 546 763 l 1
 511 425 l 1
 334 425 l 1
EndSplineSet
EndChar

StartChar: plusminus
Encoding: 177 177 391
Width: 769
VWidth: 0
GlyphClass: 2
Flags: W
HStem: 0 178<87 601> 533 178<143 302 498 657>
VStem: 68 608
LayerCount: 2
UndoRedoHistory
Layer: 1
Undoes
EndUndoes
Redoes
EndRedoes
EndUndoRedoHistory
Fore
SplineSet
68 0 m 1
 87 178 l 1
 620 178 l 1
 601 0 l 1
 68 0 l 1
283 355 m 1
 302 533 l 1
 124 533 l 1
 143 711 l 1
 321 711 l 1
 339 888 l 1
 516 888 l 1
 498 711 l 1
 676 711 l 1
 657 533 l 1
 479 533 l 1
 460 355 l 1
 283 355 l 1
EndSplineSet
EndChar

StartChar: product
Encoding: 496 8719 392
Width: 1141
VWidth: 0
GlyphClass: 2
Flags: W
HStem: -390 21G<35 274.107 686 926.1> 1480 178<469 883>
LayerCount: 2
UndoRedoHistory
Layer: 1
Undoes
EndUndoes
Redoes
EndRedoes
EndUndoRedoHistory
Fore
SplineSet
35 -390 m 1
 250 1658 l 1
 1139 1658 l 1
 924 -390 l 1
 686 -390 l 1
 883 1480 l 1
 469 1480 l 1
 272 -390 l 1
 35 -390 l 1
EndSplineSet
EndChar

StartChar: q
Encoding: 113 113 393
Width: 922
VWidth: 0
GlyphClass: 2
Flags: W
HStem: -390 21G<485 723.097> -17 187<336.7 476.579> 1014 186<420.357 592.678> 1164 20G<648.082 886>
LayerCount: 2
UndoRedoHistory
Layer: 1
Undoes
EndUndoes
Redoes
EndRedoes
EndUndoRedoHistory
Fore
SplineSet
419 170 m 0xe0
 454 170 500 181 548 205 c 1
 628 970 l 1
 592 996 550 1014 504 1014 c 0
 407 1014 371 902 359 790 c 2
 322 441 l 2
 307 294 306 170 419 170 c 0xe0
485 -390 m 1
 534 73 l 1
 476 18 411 -16 338 -17 c 0
 136 -18 52 112 89 462 c 2
 113 695 l 2
 140 955 213 1200 458 1200 c 0xe0
 536 1200 597 1161 643 1111 c 1
 650 1184 l 1
 886 1184 l 1xd0
 721 -390 l 1
 485 -390 l 1
EndSplineSet
EndChar

StartChar: question
Encoding: 63 63 394
Width: 1003
VWidth: 0
GlyphClass: 2
Flags: W
HStem: 0 237<290 502> 1473 207<484.029 718.207>
LayerCount: 2
UndoRedoHistory
Layer: 1
Undoes
EndUndoes
Redoes
EndRedoes
EndUndoRedoHistory
Fore
SplineSet
265 0 m 1
 290 237 l 1
 527 237 l 1
 502 0 l 1
 265 0 l 1
319 416 m 1
 346 671 l 1
 543 839 748 1021 774 1261 c 0
 786 1379 723 1473 605 1473 c 0
 483 1473 422 1391 426 1281 c 1
 428 1207 l 1
 204 1167 l 1
 198 1236 l 1
 176 1507 361 1680 629 1680 c 0
 900 1680 1033 1522 1005 1254 c 0
 976 976 768 818 550 612 c 1
 530 416 l 1
 319 416 l 1
EndSplineSet
EndChar

StartChar: questiondown
Encoding: 191 191 395
Width: 1065
VWidth: 0
GlyphClass: 2
Flags: W
HStem: -385 207<394.793 629.014> 1058 237<611 823>
LayerCount: 2
UndoRedoHistory
Layer: 1
Undoes
EndUndoes
Redoes
EndRedoes
EndUndoRedoHistory
Fore
SplineSet
586 1058 m 1
 611 1295 l 1
 848 1295 l 1
 823 1058 l 1
 586 1058 l 1
484 -385 m 0
 213 -385 80 -227 108 41 c 0
 137 319 345 477 563 683 c 1
 583 879 l 1
 794 879 l 1
 767 624 l 1
 570 456 365 274 339 34 c 0
 327 -84 390 -178 508 -178 c 0
 630 -178 691 -96 687 14 c 1
 685 88 l 1
 909 128 l 1
 915 59 l 2
 938 -212 752 -385 484 -385 c 0
EndSplineSet
EndChar

StartChar: quotedbl
Encoding: 34 34 396
Width: 790
VWidth: 0
GlyphClass: 2
Flags: W
HStem: 1144 514<301 374 612 685>
VStem: 247 575
LayerCount: 2
UndoRedoHistory
Layer: 1
Undoes
EndUndoes
Redoes
EndRedoes
EndUndoRedoHistory
Fore
SplineSet
558 1144 m 1
 612 1658 l 1
 822 1658 l 1
 685 1144 l 1
 558 1144 l 1
247 1144 m 1
 301 1658 l 1
 511 1658 l 1
 374 1144 l 1
 247 1144 l 1
EndSplineSet
EndChar

StartChar: quotedblbase
Encoding: 497 8222 397
Width: 974
VWidth: 0
GlyphClass: 2
Flags: W
HStem: -274 88<158 213.865 599 654.865> 48 237<177 267 618 708>
LayerCount: 2
UndoRedoHistory
Layer: 1
Undoes
EndUndoes
Redoes
EndRedoes
EndUndoRedoHistory
Fore
SplineSet
599 -274 m 1
 569 -186 l 1
 655 -186 691 -115 708 48 c 1
 593 48 l 1
 618 285 l 1
 874 285 l 1
 852 80 l 2
 829 -142 759 -274 599 -274 c 1
158 -274 m 1
 128 -186 l 1
 214 -186 250 -115 267 48 c 1
 152 48 l 1
 177 285 l 1
 433 285 l 1
 411 80 l 2
 388 -142 318 -274 158 -274 c 1
EndSplineSet
EndChar

StartChar: quotedblleft
Encoding: 498 8220 398
Width: 970
VWidth: 0
GlyphClass: 2
Flags: W
HStem: 1170 237<342 432 783 873> 1641 88<395.135 451 836.135 892>
LayerCount: 2
UndoRedoHistory
Layer: 1
Undoes
EndUndoes
Redoes
EndRedoes
EndUndoRedoHistory
Fore
SplineSet
617 1170 m 1
 639 1375 l 2
 662 1597 732 1729 892 1729 c 1
 921 1641 l 1
 835 1641 800 1570 783 1407 c 1
 898 1407 l 1
 873 1170 l 1
 617 1170 l 1
176 1170 m 1
 198 1375 l 2
 221 1597 291 1729 451 1729 c 1
 480 1641 l 1
 394 1641 359 1570 342 1407 c 1
 457 1407 l 1
 432 1170 l 1
 176 1170 l 1
EndSplineSet
EndChar

StartChar: quotedblright
Encoding: 499 8221 399
Width: 970
VWidth: 0
GlyphClass: 2
Flags: W
HStem: 1098 88<298 353.867 683 738.867> 1420 237<317 407 702 792>
LayerCount: 2
UndoRedoHistory
Layer: 1
Undoes
EndUndoes
Redoes
EndRedoes
EndUndoRedoHistory
Fore
SplineSet
683 1098 m 1
 654 1186 l 1
 740 1186 775 1257 792 1420 c 1
 677 1420 l 1
 702 1657 l 1
 958 1657 l 1
 937 1452 l 1
 913 1230 843 1098 683 1098 c 1
298 1098 m 1
 269 1186 l 1
 355 1186 390 1257 407 1420 c 1
 292 1420 l 1
 317 1657 l 1
 573 1657 l 1
 552 1452 l 1
 528 1230 458 1098 298 1098 c 1
EndSplineSet
EndChar

StartChar: quoteleft
Encoding: 500 8216 400
Width: 828
VWidth: 0
GlyphClass: 2
Flags: W
HStem: 1641 88<395.135 451>
VStem: 176 304
LayerCount: 2
UndoRedoHistory
Layer: 1
Undoes
EndUndoes
Redoes
EndRedoes
EndUndoRedoHistory
Fore
SplineSet
176 1170 m 1
 198 1375 l 2
 221 1597 291 1729 451 1729 c 1
 480 1641 l 1
 394 1641 359 1570 342 1407 c 1
 457 1407 l 1
 432 1170 l 1
 176 1170 l 1
EndSplineSet
EndChar

StartChar: quoteright
Encoding: 501 8217 401
Width: 444
VWidth: 0
GlyphClass: 2
Flags: W
HStem: 1099 88<230 285.824> 1638 20G<245.89 504>
VStem: 200 304
LayerCount: 2
UndoRedoHistory
Layer: 1
Undoes
EndUndoes
Redoes
EndRedoes
EndUndoRedoHistory
Fore
SplineSet
230 1099 m 1
 200 1187 l 1
 286 1187 321 1258 338 1421 c 1
 223 1421 l 1
 248 1658 l 1
 504 1658 l 1
 483 1453 l 1
 459 1231 390 1099 230 1099 c 1
EndSplineSet
EndChar

StartChar: quotesinglbase
Encoding: 502 8218 402
Width: 572
VWidth: 0
GlyphClass: 2
Flags: W
HStem: -276 88<164 219.865>
VStem: 134 305
LayerCount: 2
UndoRedoHistory
Layer: 1
Undoes
EndUndoes
Redoes
EndRedoes
EndUndoRedoHistory
Fore
SplineSet
164 -276 m 1
 134 -188 l 1
 220 -188 256 -117 273 46 c 1
 158 46 l 1
 183 283 l 1
 439 283 l 1
 417 78 l 2
 394 -144 324 -276 164 -276 c 1
EndSplineSet
EndChar

StartChar: quotesingle
Encoding: 39 39 403
Width: 791
VWidth: 0
GlyphClass: 2
Flags: W
HStem: 1144 514<301 374>
VStem: 247 264
LayerCount: 2
UndoRedoHistory
Layer: 1
Undoes
EndUndoes
Redoes
EndRedoes
EndUndoRedoHistory
Fore
SplineSet
247 1144 m 1
 301 1658 l 1
 511 1658 l 1
 374 1144 l 1
 247 1144 l 1
EndSplineSet
EndChar

StartChar: r
Encoding: 114 114 404
Width: 670
VWidth: 0
GlyphClass: 2
Flags: W
HStem: 0 21G<64 302.105> 961 239<542.661 697.783> 1164 20G<185.905 424>
VStem: 64 659
LayerCount: 2
UndoRedoHistory
Layer: 1
Undoes
EndUndoes
Redoes
EndRedoes
EndUndoRedoHistory
Fore
SplineSet
64 0 m 1xd0
 188 1184 l 1
 424 1184 l 1xb0
 407 1014 l 1
 512 1163 597 1200 685 1200 c 0
 697 1200 706 1199 723 1197 c 1
 695 935 l 1
 662 949 613 961 567 961 c 0
 505 961 455 943 390 855 c 1
 300 0 l 1
 64 0 l 1xd0
EndSplineSet
EndChar

StartChar: radical
Encoding: 504 8730 406
Width: 1061
VWidth: 0
GlyphClass: 2
Flags: W
HStem: 0 21G<390.803 636.381> 1045 139<68 278> 1638 20G<921.183 1159>
LayerCount: 2
UndoRedoHistory
Layer: 1
Undoes
EndUndoes
Redoes
EndRedoes
EndUndoRedoHistory
Fore
SplineSet
393 0 m 1
 278 1047 l 1
 54 1045 l 1
 68 1184 l 1
 486 1184 l 1
 527 709 l 1
 549 345 l 1
 651 709 l 1
 927 1658 l 1
 1159 1658 l 1
 630 0 l 1
 393 0 l 1
EndSplineSet
EndChar

StartChar: registered
Encoding: 174 174 409
Width: 1824
VWidth: 0
GlyphClass: 2
Flags: W
HStem: -28 109<615.629 1133.45> 751 110<840 937> 1230 136<879 1090.08> 1571 113<764.542 1282.04>
LayerCount: 2
UndoRedoHistory
Layer: 1
Undoes
EndUndoes
Redoes
EndRedoes
EndUndoRedoHistory
Fore
SplineSet
860 -28 m 0
 280 -28 92 417 135 828 c 0
 178 1241 460 1684 1040 1684 c 0
 1618 1684 1806 1241 1763 828 c 0
 1720 415 1440 -28 860 -28 c 0
871 81 m 0
 1349 81 1598 454 1637 827 c 0
 1676 1202 1505 1571 1027 1571 c 0
 545 1571 297 1202 258 827 c 0
 219 454 389 81 871 81 c 0
840 861 m 1
 883 861 l 2
 1049 861 1101 907 1117 1055 c 0
 1129 1167 1093 1230 973 1230 c 2
 879 1230 l 1
 840 861 l 1
576 305 m 1
 688 1366 l 1
 1005 1366 l 2
 1250 1366 1349 1259 1327 1050 c 0
 1313 913 1235 841 1130 793 c 1
 1273 305 l 1
 1058 305 l 1
 937 751 l 1
 829 751 l 1
 782 305 l 1
 576 305 l 1
EndSplineSet
EndChar

StartChar: ring
Encoding: 507 730 410
Width: 591
VWidth: 0
GlyphClass: 2
Flags: W
HStem: 1204 119<292.626 485.374> 1560 118<309.691 502.389>
VStem: 162 473
LayerCount: 2
UndoRedoHistory
Layer: 1
Undoes
EndUndoes
Redoes
EndRedoes
EndUndoRedoHistory
Fore
SplineSet
385 1323 m 0
 459 1323 508 1369 516 1442 c 0
 523 1515 484 1560 410 1560 c 0
 335 1560 287 1515 280 1442 c 0
 272 1369 310 1323 385 1323 c 0
373 1204 m 0
 228 1204 147 1300 162 1442 c 0
 176 1584 278 1678 422 1678 c 0
 567 1678 649 1584 635 1442 c 0
 620 1300 517 1204 373 1204 c 0
EndSplineSet
EndChar

StartChar: s
Encoding: 115 115 411
Width: 770
VWidth: 0
GlyphClass: 2
Flags: W
HStem: -17 175<271.603 458.018> 1026 174<364.633 539.049>
VStem: 31 203<195.86 316> 574 164<888 993.949>
LayerCount: 2
UndoRedoHistory
Layer: 1
Undoes
EndUndoes
Redoes
EndRedoes
EndUndoRedoHistory
Fore
SplineSet
333 -17 m 0
 137 -17 27 118 31 316 c 1
 234 375 l 1
 237 231 272 158 362 158 c 0
 435 158 492 214 495 285 c 0
 497 332 477 386 428 433 c 2
 235 615 l 2
 165 681 104 762 123 902 c 0
 149 1092 277 1200 465 1200 c 0
 654 1200 740 1057 738 888 c 1
 574 829 l 1
 568 942 546 1026 456 1026 c 0
 387 1026 339 971 334 911 c 0
 331 875 342 837 373 807 c 1
 572 605 l 1
 647 531 715 440 700 291 c 0
 678 84 531 -17 333 -17 c 0
EndSplineSet
EndChar

StartChar: section
Encoding: 167 167 417
Width: 887
VWidth: 0
GlyphClass: 2
Flags: W
HStem: -16 195<317.669 523.597> 1480 194<447.661 644.473>
LayerCount: 2
UndoRedoHistory
Layer: 1
Undoes
EndUndoes
Redoes
EndRedoes
EndUndoRedoHistory
Fore
SplineSet
513 682 m 1
 558 702 614 751 621 816 c 0
 625 855 613 913 568 944 c 2
 473 1009 l 1
 427 983 373 926 366 856 c 0
 361 811 385 768 411 750 c 2
 513 682 l 1
392 -16 m 0
 183 -16 92 129 70 297 c 1
 254 356 l 1
 274 281 314 179 413 179 c 0
 488 179 541 214 556 289 c 0
 569 350 551 400 499 434 c 2
 278 578 l 2
 186 637 114 709 129 856 c 0
 144 996 220 1088 329 1134 c 1
 250 1183 172 1270 185 1392 c 0
 204 1571 360 1674 570 1674 c 0
 781 1674 872 1531 893 1362 c 1
 709 1302 l 1
 689 1377 652 1480 550 1480 c 0
 475 1480 427 1438 419 1362 c 0
 414 1316 443 1281 468 1264 c 2
 724 1093 l 2
 809 1036 848 937 836 816 c 1
 822 688 753 601 661 551 c 1
 730 490 794 416 781 297 c 0
 759 90 602 -16 392 -16 c 0
EndSplineSet
EndChar

StartChar: semicolon
Encoding: 59 59 418
Width: 445
VWidth: 0
GlyphClass: 2
Flags: W
HStem: -103 103<92 167.27> 134 238<105 204> 916 248<188 398>
VStem: 66 358
LayerCount: 2
UndoRedoHistory
Layer: 1
Undoes
EndUndoes
Redoes
EndRedoes
EndUndoRedoHistory
Fore
SplineSet
162 916 m 1
 188 1164 l 1
 424 1164 l 1
 398 916 l 1
 162 916 l 1
92 -103 m 1
 66 0 l 1
 152 0 195 51 204 134 c 1
 80 134 l 1
 105 372 l 1
 347 372 l 1
 322 136 l 2
 307 -13 241 -103 92 -103 c 1
EndSplineSet
EndChar

StartChar: seven
Encoding: 55 55 419
Width: 763
VWidth: 0
GlyphClass: 2
Flags: W
HStem: 0 21G<126 359.01> 1473 185<165 575>
LayerCount: 2
UndoRedoHistory
Layer: 1
Undoes
EndUndoes
Redoes
EndRedoes
EndUndoRedoHistory
Fore
SplineSet
126 0 m 1
 575 1473 l 1
 146 1473 l 1
 165 1658 l 1
 829 1658 l 1
 817 1544 l 1
 353 0 l 1
 126 0 l 1
EndSplineSet
EndChar

StartChar: six
Encoding: 54 54 420
Width: 1001
VWidth: 0
GlyphClass: 2
Flags: W
HStem: -17 195<386.732 597.155> 829 178<462.475 662.39> 1480 194<519.204 745.473>
LayerCount: 2
UndoRedoHistory
Layer: 1
Undoes
EndUndoes
Redoes
EndRedoes
EndUndoRedoHistory
Fore
SplineSet
487 178 m 0
 628 178 681 329 696 473 c 0
 714 651 733 829 555 829 c 0
 464 829 402 771 365 711 c 1
 340 473 l 2
 324 328 347 178 487 178 c 0
466 -17 m 0
 175 -17 79 235 110 533 c 2
 166 1066 l 2
 200 1391 323 1674 644 1674 c 0
 905 1674 1035 1524 1016 1265 c 0
 1015 1257 1014 1250 1014 1243 c 1
 777 1243 l 1
 792 1388 766 1480 624 1480 c 0
 506 1480 433 1362 408 1125 c 2
 383 888 l 1
 432 960 516 1007 633 1007 c 0
 908 1007 968 805 939 533 c 0
 907 232 766 -17 466 -17 c 0
EndSplineSet
EndChar

StartChar: slash
Encoding: 47 47 421
Width: 769
VWidth: 0
GlyphClass: 2
Flags: W
HStem: 0 21G<11 222.419> 1638 20G<618.581 830>
LayerCount: 2
UndoRedoHistory
Layer: 1
Undoes
EndUndoes
Redoes
EndRedoes
EndUndoRedoHistory
Fore
SplineSet
11 0 m 1
 626 1658 l 1
 830 1658 l 1
 215 0 l 1
 11 0 l 1
EndSplineSet
EndChar

StartChar: sterling
Encoding: 163 163 423
Width: 828
VWidth: 0
GlyphClass: 2
Flags: W
HStem: 0 178<324 719> 711 177<43 143 398 617> 1480 194<499.417 656.249>
VStem: 673 177<1243 1466.92>
LayerCount: 2
UndoRedoHistory
Layer: 1
Undoes
EndUndoes
Redoes
EndRedoes
EndUndoRedoHistory
Fore
SplineSet
-50 0 m 1
 -38 118 l 1
 87 177 l 1
 143 711 l 1
 25 711 l 1
 43 888 l 1
 161 888 l 1
 180 1066 l 2
 214 1386 278 1674 599 1674 c 0
 813 1674 877 1523 857 1315 c 2
 850 1243 l 1
 673 1243 l 1
 684 1352 687 1480 579 1480 c 0
 474 1480 449 1340 434 1231 c 1
 398 888 l 1
 635 888 l 1
 617 711 l 1
 380 711 l 1
 324 178 l 1
 738 178 l 1
 719 0 l 1
 -50 0 l 1
EndSplineSet
EndChar

StartChar: summation
Encoding: 513 8721 424
Width: 839
VWidth: 0
GlyphClass: 2
Flags: W
HStem: -390 178<251 648> 1474 184<435 839>
LayerCount: 2
UndoRedoHistory
Layer: 1
Undoes
EndUndoes
Redoes
EndRedoes
EndUndoRedoHistory
Fore
SplineSet
-40 -390 m 1
 394 639 l 1
 175 1658 l 1
 858 1658 l 1
 839 1474 l 1
 435 1474 l 1
 618 639 l 1
 251 -212 l 1
 667 -212 l 1
 648 -390 l 1
 -40 -390 l 1
EndSplineSet
EndChar

StartChar: t
Encoding: 116 116 425
Width: 645
VWidth: 0
GlyphClass: 2
Flags: W
HStem: -17 181<286.5 541> 1026 158<122 225 477 650>
VStem: 106 560
LayerCount: 2
Fore
SplineSet
382 -17 m 0
 191 -17 128 84 145 271 c 1
 225 1026 l 1
 106 1026 l 1
 122 1184 l 1
 241 1184 l 1
 277 1524 l 1
 513 1524 l 1
 477 1184 l 1
 666 1184 l 1
 650 1026 l 1
 461 1026 l 1
 383 286 l 2
 374 200 393 164 479 164 c 0
 499 164 532 165 560 169 c 1
 541 -6 l 1
 481 -13 440 -17 382 -17 c 0
EndSplineSet
EndChar

StartChar: tbar
Encoding: 514 359 426
Width: 500
VWidth: 0
GlyphClass: 2
Flags: W
HStem: -17 181<286.5 541> 690 119<87 635> 1026 158<122 225 477 650>
VStem: 106 560
LayerCount: 2
UndoRedoHistory
Layer: 1
Undoes
EndUndoes
Redoes
EndRedoes
EndUndoRedoHistory
Fore
SplineSet
635 690 m 1
 75 690 l 1
 87 809 l 1
 647 809 l 1
 635 690 l 1
EndSplineSet
Refer: 425 116 N 1 0 0 1 0 0 2
EndChar

StartChar: thorn
Encoding: 254 254 429
Width: 931
VWidth: 0
GlyphClass: 2
Flags: W
HStem: -390 21G<21 259.096> -17 187<368.153 547.831> 1014 186<493.938 774.5> 1638 20G<233.9 472>
LayerCount: 2
UndoRedoHistory
Layer: 1
Undoes
EndUndoes
Redoes
EndRedoes
EndUndoRedoHistory
Fore
SplineSet
466 170 m 0
 573 170 590 310 606 465 c 2
 637 761 l 2
 650 889 652 1014 545 1014 c 0
 492 1014 441 990 399 961 c 1
 320 214 l 1
 357 189 404 170 466 170 c 0
21 -390 m 1
 236 1658 l 1
 472 1658 l 1
 413 1090 l 1
 472 1150 549 1200 649 1200 c 0
 900 1200 885 879 873 761 c 2
 842 466 l 2
 817 226 731 -17 495 -17 c 0
 414 -17 353 31 307 87 c 1
 257 -390 l 1
 21 -390 l 1
EndSplineSet
EndChar

StartChar: three
Encoding: 51 51 430
Width: 950
VWidth: 0
GlyphClass: 2
Flags: W
HStem: -17 195<339.577 576.975> 769 238<483 600.919> 1184 21G<146 384> 1480 194<469.614 710.626>
LayerCount: 2
UndoRedoHistory
Layer: 1
Undoes
EndUndoes
Redoes
EndRedoes
EndUndoRedoHistory
Fore
SplineSet
435 -17 m 0
 162 -17 37 144 66 414 c 1
 72 473 l 1
 309 473 l 1
 307 461 306 448 305 436 c 0
 293 291 307 178 456 178 c 0
 616 178 646 308 664 473 c 1
 681 641 641 755 487 768 c 0
 478 769 468 769 458 769 c 1
 483 1007 l 1
 492 1007 500 1007 508 1007 c 0
 659 1014 727 1076 745 1243 c 0
 760 1387 734 1480 593 1480 c 0
 443 1480 406 1364 387 1218 c 0
 386 1207 385 1196 383 1184 c 1
 146 1184 l 1
 153 1243 l 1
 181 1512 342 1674 613 1674 c 0
 886 1674 1010 1513 982 1243 c 0
 961 1050 855 932 707 888 c 1
 857 837 923 688 901 473 c 1
 869 176 732 -17 435 -17 c 0
EndSplineSet
EndChar

StartChar: threequarters
Encoding: 190 190 431
Width: 1666
VWidth: 0
GlyphClass: 2
Flags: W
HStem: 0 21G<437 641.528> 238 119<1153 1295 1486 1591> 849 118<340.379 444.77> 1204 118<366 453.76> 1559 119<394.046 498.46> 1638 20G<1134.48 1340>
VStem: 164 177<970.132 1086> 201 177<1440 1550.84>
LayerCount: 2
UndoRedoHistory
Layer: 1
Undoes
EndUndoes
Redoes
EndRedoes
EndUndoRedoHistory
Fore
SplineSet
1153 357 m 1xf0
 1308 357 l 1
 1338 644 l 1
 1153 357 l 1xf0
437 0 m 1
 1143 1658 l 1
 1340 1658 l 1xf4
 633 0 l 1
 437 0 l 1
1270 2 m 1
 1295 238 l 1
 1000 238 l 1
 1013 357 l 1
 1382 889 l 1
 1541 889 l 1
 1486 357 l 1
 1604 357 l 1
 1591 238 l 1
 1473 238 l 1
 1448 2 l 1
 1270 2 l 1
376 849 m 0
 224 849 148 937 164 1086 c 1
 341 1086 l 1xfa
 335 1026 329 967 389 967 c 0
 449 967 453 1026 459 1086 c 0
 468 1173 444 1204 354 1204 c 1
 366 1322 l 1
 457 1322 487 1352 496 1440 c 0
 503 1500 511 1559 451 1559 c 0
 391 1559 385 1500 378 1440 c 1
 201 1440 l 1
 217 1589 311 1678 463 1678 c 0xf9
 615 1678 690 1589 674 1440 c 0
 662 1325 584 1267 478 1263 c 1
 583 1256 649 1203 637 1086 c 0
 621 937 528 849 376 849 c 0
EndSplineSet
EndChar

StartChar: uni00B3
Encoding: 179 179 432
Width: 904
VWidth: 0
Flags: W
HStem: 602 168<443.218 627.241> 1151 149<483 644.401> 1681 157<528.625 718.356>
LayerCount: 2
UndoRedoHistory
Layer: 1
Undoes
EndUndoes
Redoes
EndRedoes
EndUndoRedoHistory
Fore
SplineSet
516 602 m 0
 274 602 204 731 228 964 c 2
 236 1041 l 1
 432 1041 l 1
 424 959 l 2
 411 836 446 770 528 770 c 0
 618 770 667 839 678 938 c 0
 690 1054 652 1151 554 1151 c 2
 467 1151 l 1
 483 1300 l 1
 565 1300 l 2
 667 1300 727 1404 739 1521 c 0
 750 1625 707 1681 625 1681 c 0
 544 1681 494 1621 484 1521 c 1
 472 1412 l 1
 275 1412 l 1
 286 1515 l 2
 307 1708 431 1838 636 1838 c 0
 846 1838 946 1729 923 1509 c 0
 908 1371 813 1261 737 1242 c 1
 807 1213 883 1134 865 961 c 0
 842 741 726 602 516 602 c 0
EndSplineSet
EndChar

StartChar: tilde
Encoding: 517 732 433
Width: 887
VWidth: 0
GlyphClass: 2
Flags: W
HStem: 1423 151<597.88 744.685> 1525 149<369.745 525.58> 1638 20G<749 884>
VStem: 229 133<1442 1518.68> 752 132<1575.11 1658>
LayerCount: 2
UndoRedoHistory
Layer: 1
Undoes
EndUndoes
Redoes
EndRedoes
EndUndoRedoHistory
Fore
SplineSet
686 1423 m 0xb8
 586 1423 484 1525 418 1525 c 0
 385 1525 368 1502 362 1442 c 1
 229 1442 l 1
 243 1576 298 1674 434 1674 c 0x58
 534 1674 648 1574 701 1574 c 0
 732 1574 746 1594 752 1658 c 1
 884 1658 l 1
 870 1523 822 1423 686 1423 c 0xb8
EndSplineSet
EndChar

StartChar: tildecomb
Encoding: 518 771 434
Width: 887
VWidth: 0
GlyphClass: 2
Flags: W
HStem: 1423 151<597.88 744.685> 1525 149<369.745 525.58> 1638 20G<749 884>
VStem: 229 133<1442 1518.68> 752 132<1575.11 1658>
LayerCount: 2
UndoRedoHistory
Layer: 1
Undoes
EndUndoes
Redoes
EndRedoes
EndUndoRedoHistory
Fore
SplineSet
686 1423 m 0xb8
 586 1423 484 1525 418 1525 c 0
 385 1525 368 1502 362 1442 c 1
 229 1442 l 1
 243 1576 298 1674 434 1674 c 0x58
 534 1674 648 1574 701 1574 c 0
 732 1574 746 1594 752 1658 c 1
 884 1658 l 1
 870 1523 822 1423 686 1423 c 0xb8
EndSplineSet
EndChar

StartChar: trademark
Encoding: 519 8482 435
Width: 1520
VWidth: 0
GlyphClass: 2
Flags: W
HStem: 1513 145<246 393 567 719>
LayerCount: 2
UndoRedoHistory
Layer: 1
Undoes
EndUndoes
Redoes
EndRedoes
EndUndoRedoHistory
Fore
SplineSet
313 754 m 1
 393 1513 l 1
 231 1513 l 1
 246 1658 l 1
 734 1658 l 1
 719 1513 l 1
 567 1513 l 1
 487 754 l 1
 313 754 l 1
740 754 m 1
 835 1658 l 1
 993 1658 l 1
 1117 1047 l 1
 1388 1658 l 1
 1531 1658 l 1
 1436 754 l 1
 1300 754 l 1
 1356 1287 l 1
 1129 754 l 1
 1055 754 l 1
 932 1287 l 1
 876 754 l 1
 740 754 l 1
EndSplineSet
EndChar

StartChar: two
Encoding: 50 50 436
Width: 976
VWidth: 0
GlyphClass: 2
Flags: W
HStem: 0 198<330 819> 1480 194<513.255 720.48>
VStem: 168 237<1125 1339.51>
LayerCount: 2
UndoRedoHistory
Layer: 1
Undoes
EndUndoes
Redoes
EndRedoes
EndUndoRedoHistory
Fore
SplineSet
29 0 m 1
 47 167 l 1
 530 819 l 2
 637 964 732 1058 752 1243 c 0
 767 1387 741 1480 625 1480 c 0
 480 1480 427 1332 411 1184 c 2
 405 1125 l 1
 168 1125 l 1
 174 1184 l 1
 206 1481 335 1674 632 1674 c 0
 905 1674 1018 1513 990 1243 c 0
 967 1028 873 916 762 769 c 2
 330 198 l 1
 840 198 l 1
 819 0 l 1
 29 0 l 1
EndSplineSet
EndChar

StartChar: uni00B2
Encoding: 178 178 437
Width: 904
VWidth: 0
Flags: W
HStem: 615 145<410 767> 1697 142<554.265 702.585>
LayerCount: 2
UndoRedoHistory
Layer: 1
Undoes
EndUndoes
Redoes
EndRedoes
EndUndoRedoHistory
Fore
SplineSet
190 615 m 1
 202 737 l 1
 556 1214 l 2
 634 1320 704 1389 718 1524 c 0
 729 1629 709 1697 624 1697 c 0
 518 1697 464 1438 464 1438 c 1
 291 1438 l 1
 296 1481 l 1
 318 1698 413 1839 630 1839 c 0
 830 1839 913 1721 892 1524 c 0
 876 1367 807 1285 726 1177 c 2
 410 760 l 1
 782 760 l 1
 767 615 l 1
 190 615 l 1
EndSplineSet
EndChar

StartChar: u
Encoding: 117 117 438
Width: 915
VWidth: 0
GlyphClass: 2
Flags: W
HStem: -16 186<153 400.207> 0 21G<517 755.095> 1164 20G<174.917 413 638.897 877>
AnchorPoint: "ogonek" 642 0 basechar 0
LayerCount: 2
UndoRedoHistory
Layer: 1
Undoes
EndUndoes
Redoes
EndRedoes
EndUndoRedoHistory
Fore
SplineSet
226 -16 m 0xa0
 80 -16 66 120 77 224 c 2
 177 1184 l 1
 413 1184 l 1
 320 296 l 2
 312 221 319 170 396 170 c 0xa0
 440 170 492 198 541 233 c 1
 641 1184 l 1
 877 1184 l 1
 753 0 l 1
 517 0 l 1x60
 529 113 l 1
 443 43 342 -16 226 -16 c 0xa0
EndSplineSet
EndChar

StartChar: underscore
Encoding: 95 95 446
Width: 711
VWidth: 0
GlyphClass: 2
Flags: W
HStem: -289 178<-62 631>
LayerCount: 2
UndoRedoHistory
Layer: 1
Undoes
EndUndoes
Redoes
EndRedoes
EndUndoRedoHistory
Fore
SplineSet
-80 -289 m 1
 -62 -111 l 1
 649 -111 l 1
 631 -289 l 1
 -80 -289 l 1
EndSplineSet
EndChar

StartChar: uni00AD
Encoding: 173 173 448
Width: 709
VWidth: 0
GlyphClass: 2
Flags: W
HStem: 1006 178<192 648>
VStem: 174 492
LayerCount: 2
UndoRedoHistory
Layer: 1
Undoes
EndUndoes
Redoes
EndRedoes
EndUndoRedoHistory
Fore
SplineSet
174 1006 m 1
 192 1184 l 1
 666 1184 l 1
 648 1006 l 1
 174 1006 l 1
EndSplineSet
EndChar

StartChar: uni0237
Encoding: 563 567 489
Width: 480
VWidth: 0
GlyphClass: 2
Flags: W
HStem: -326 178<-105.841 54.3387> 1164 20G<209.908 448>
VStem: -122 570
LayerCount: 2
Fore
SplineSet
-122 -311 m 1
 -104 -142 l 1
 -90 -145 -63 -148 -46 -148 c 0
 40 -148 78 -94 87 -11 c 2
 212 1184 l 1
 448 1184 l 1
 320 -36 l 2
 301 -220 178 -326 -4 -326 c 0
 -44 -326 -92 -323 -122 -311 c 1
EndSplineSet
EndChar

StartChar: uni0302
Encoding: 565 770 491
Width: 709
VWidth: 0
GlyphClass: 2
Flags: W
HStem: 1302 356<324 361>
VStem: 147 591
LayerCount: 2
UndoRedoHistory
Layer: 1
Undoes
EndUndoes
Redoes
EndRedoes
EndUndoRedoHistory
Fore
SplineSet
147 1302 m 1
 361 1658 l 1
 597 1658 l 1
 738 1302 l 1
 560 1302 l 1
 467 1540 l 1
 324 1302 l 1
 147 1302 l 1
EndSplineSet
EndChar

StartChar: uni0304
Encoding: 566 772 492
Width: 591
VWidth: 0
GlyphClass: 2
Flags: W
HStem: 1517 141<238 624>
VStem: 223 416
LayerCount: 2
UndoRedoHistory
Layer: 1
Undoes
EndUndoes
Redoes
EndRedoes
EndUndoRedoHistory
Fore
SplineSet
223 1517 m 1
 238 1658 l 1
 639 1658 l 1
 624 1517 l 1
 223 1517 l 1
EndSplineSet
EndChar

StartChar: uni0306
Encoding: 567 -1 493
Width: 709
VWidth: 0
GlyphClass: 2
Flags: W
HStem: 1342 132<348.576 579.937> 1638 20G<175 321 630 775>
VStem: 184 137<1501.39 1658> 637 138<1528.76 1658>
LayerCount: 2
UndoRedoHistory
Layer: 1
Undoes
EndUndoes
Redoes
EndRedoes
EndUndoRedoHistory
Fore
SplineSet
446 1342 m 0
 217 1342 166 1485 184 1658 c 1
 321 1658 l 1
 307 1526 355 1474 460 1474 c 0
 565 1474 623 1527 637 1658 c 1
 775 1658 l 1
 757 1484 678 1342 446 1342 c 0
EndSplineSet
EndChar

StartChar: uni0307
Encoding: 568 775 494
Width: 0
VWidth: 0
GlyphClass: 2
Flags: W
HStem: 1410 248<39 249>
VStem: 13 262
LayerCount: 2
UndoRedoHistory
Layer: 1
Undoes
EndUndoes
Redoes
EndRedoes
EndUndoRedoHistory
Fore
SplineSet
13 1410 m 1
 39 1658 l 1
 275 1658 l 1
 249 1410 l 1
 13 1410 l 1
EndSplineSet
EndChar

StartChar: uni0308
Encoding: 569 776 495
Width: 828
VWidth: 0
GlyphClass: 2
Flags: W
HStem: 1421 237<242 454 597 810>
VStem: 217 618
LayerCount: 2
UndoRedoHistory
Layer: 1
Undoes
EndUndoes
Redoes
EndRedoes
EndUndoRedoHistory
Fore
SplineSet
572 1421 m 1
 597 1658 l 1
 835 1658 l 1
 810 1421 l 1
 572 1421 l 1
217 1421 m 1
 242 1658 l 1
 479 1658 l 1
 454 1421 l 1
 217 1421 l 1
EndSplineSet
EndChar

StartChar: uni030A
Encoding: 570 778 496
Width: 591
VWidth: 0
GlyphClass: 2
Flags: W
HStem: 1204 119<292.626 485.374> 1560 118<309.691 502.389>
VStem: 162 473
LayerCount: 2
UndoRedoHistory
Layer: 1
Undoes
EndUndoes
Redoes
EndRedoes
EndUndoRedoHistory
Fore
SplineSet
385 1323 m 0
 459 1323 508 1369 516 1442 c 0
 523 1515 484 1560 410 1560 c 0
 335 1560 287 1515 280 1442 c 0
 272 1369 310 1323 385 1323 c 0
373 1204 m 0
 228 1204 147 1300 162 1442 c 0
 176 1584 278 1678 422 1678 c 0
 567 1678 649 1584 635 1442 c 0
 620 1300 517 1204 373 1204 c 0
EndSplineSet
EndChar

StartChar: uni030C
Encoding: 571 780 497
Width: 0
VWidth: 0
GlyphClass: 2
Flags: W
HStem: 1302 356<297 334>
VStem: -79 591
LayerCount: 2
UndoRedoHistory
Layer: 1
Undoes
EndUndoes
Redoes
EndRedoes
EndUndoRedoHistory
Fore
SplineSet
61 1302 m 1
 -79 1658 l 1
 98 1658 l 1
 191 1421 l 1
 334 1658 l 1
 512 1658 l 1
 297 1302 l 1
 61 1302 l 1
EndSplineSet
EndChar

StartChar: uni030F
Encoding: 572 783 498
Width: 591
VWidth: 0
GlyphClass: 2
Flags: W
HStem: 1302 356<640 677 912 986>
VStem: 131 591
LayerCount: 2
UndoRedoHistory
Layer: 1
Undoes
EndUndoes
Redoes
EndRedoes
EndUndoRedoHistory
Fore
SplineSet
603 1302 m 1
 486 1658 l 1
 677 1658 l 1
 722 1302 l 1
 603 1302 l 1
331 1302 m 1
 131 1658 l 1
 368 1658 l 1
 449 1302 l 1
 331 1302 l 1
EndSplineSet
EndChar

StartChar: uni0311
Encoding: 573 785 499
Width: 709
VWidth: 0
GlyphClass: 2
Flags: W
HStem: 1526 132<355.154 566.701>
VStem: 170 138<1342 1478.77> 584 137<1342 1505.18>
LayerCount: 2
UndoRedoHistory
Layer: 1
Undoes
EndUndoes
Redoes
EndRedoes
EndUndoRedoHistory
Fore
SplineSet
170 1342 m 1
 188 1516 247 1658 479 1658 c 0
 708 1658 739 1515 721 1342 c 1
 584 1342 l 1
 598 1474 570 1526 465 1526 c 0
 360 1526 322 1473 308 1342 c 1
 170 1342 l 1
EndSplineSet
EndChar

StartChar: uni0326
Encoding: 574 806 500
Width: 304
VWidth: 0
GlyphClass: 2
Flags: W
HStem: -547 119<-13 43.3632>
VStem: -61 274
LayerCount: 2
UndoRedoHistory
Layer: 1
Undoes
EndUndoes
Redoes
EndRedoes
EndUndoRedoHistory
Fore
SplineSet
-13 -547 m 1
 -61 -428 l 1
 25 -428 61 -393 69 -310 c 1
 -49 -310 l 1
 -24 -73 l 1
 213 -73 l 1
 188 -297 l 2
 171 -446 136 -547 -13 -547 c 1
EndSplineSet
EndChar

StartChar: uni0490
Encoding: 579 1168 505
Width: 773
VWidth: 0
GlyphClass: 2
Flags: W
HStem: 0 21G<76 328.103> 1474 184<481 735>
LayerCount: 2
UndoRedoHistory
Layer: 1
Undoes
EndUndoes
Redoes
EndRedoes
EndUndoRedoHistory
Fore
SplineSet
76 0 m 1
 250 1658 l 1
 735 1658 l 1
 758 1888 l 1
 914 1888 l 1
 871 1474 l 1
 481 1474 l 1
 326 0 l 1
 76 0 l 1
EndSplineSet
EndChar

StartChar: uni04AE
Encoding: 580 1198 506
Width: 992
VWidth: 0
GlyphClass: 2
Flags: W
HStem: 0 21G<327 567.094> 1638 20G<146 382.14 849.789 1094>
LayerCount: 2
UndoRedoHistory
Layer: 1
Undoes
EndUndoes
Redoes
EndRedoes
EndUndoRedoHistory
Fore
SplineSet
327 0 m 1
 403 726 l 1
 146 1658 l 1
 377 1658 l 1
 478 1265 l 1
 549 987 l 1
 678 1265 l 1
 859 1658 l 1
 1094 1658 l 1
 641 726 l 1
 565 0 l 1
 327 0 l 1
EndSplineSet
EndChar

StartChar: uni04AF
Encoding: 581 1199 507
Width: 798
VWidth: 0
GlyphClass: 2
Flags: W
HStem: 1164 20G<94 335.828 618.146 864>
VStem: 94 240<1084.28 1184>
LayerCount: 2
UndoRedoHistory
Layer: 1
Undoes
EndUndoes
Redoes
EndRedoes
EndUndoRedoHistory
Fore
SplineSet
208 -356 m 1
 253 78 l 1
 94 1184 l 1
 334 1184 l 1
 403 429 l 1
 624 1184 l 1
 864 1184 l 1
 466 86 l 1
 420 -356 l 1
 208 -356 l 1
EndSplineSet
EndChar

StartChar: uni04B0
Encoding: 582 1200 508
Width: 992
VWidth: 0
GlyphClass: 2
Flags: W
HStem: 0 21<283 523.094> 610 170<81 867> 1638 20<102 338.14 805.789 1050>
LayerCount: 2
UndoRedoHistory
Layer: 1
Undoes
EndUndoes
Redoes
EndRedoes
EndUndoRedoHistory
Fore
SplineSet
63 610 m 1
 81 780 l 1
 885 780 l 1
 867 610 l 1
 63 610 l 1
EndSplineSet
Refer: 506 1198 S 1 0 0 1 -44 0 2
EndChar

StartChar: uni04B1
Encoding: 583 1201 509
Width: 810
VWidth: 0
GlyphClass: 2
Flags: W
HStem: -32 157<42 666> 1164 20<94 335.828 618.146 864>
VStem: 94 240<1084.28 1184>
LayerCount: 2
UndoRedoHistory
Layer: 1
Undoes
EndUndoes
Redoes
EndRedoes
EndUndoRedoHistory
Fore
SplineSet
26 -32 m 1
 42 125 l 1
 682 125 l 1
 666 -32 l 1
 26 -32 l 1
EndSplineSet
Refer: 507 1199 N 1 0 0 1 0 0 2
EndChar

StartChar: uni04E8
Encoding: 585 1256 511
Width: 1112
VWidth: 0
GlyphClass: 2
Flags: W
HStem: -17 195<356.648 633.312> 750 170<217 883> 1480 194<486.685 767.394>
LayerCount: 2
UndoRedoHistory
Layer: 1
Undoes
EndUndoes
Redoes
EndRedoes
EndUndoRedoHistory
Fore
SplineSet
199 750 m 1
 217 920 l 1
 901 920 l 1
 883 750 l 1
 199 750 l 1
EndSplineSet
Refer: 70 79 S 1 0 0 1 -32 0 2
EndChar

StartChar: uni04E9
Encoding: 586 1257 512
Width: 881
VWidth: 0
GlyphClass: 2
Flags: W
HStem: -17 175<304.017 471.493> 542 147<172 641> 1026 174<386.886 554.344>
LayerCount: 2
UndoRedoHistory
Layer: 1
Undoes
EndUndoes
Redoes
EndRedoes
EndUndoRedoHistory
Fore
SplineSet
157 542 m 1
 172 689 l 1
 656 689 l 1
 641 542 l 1
 157 542 l 1
EndSplineSet
Refer: 362 111 S 1 0 0 1 -23 0 2
EndChar

StartChar: uni2074
Encoding: 601 8308 527
Width: 709
VWidth: 0
GlyphClass: 2
Flags: W
HStem: 866 119<254 420 611 716> 1638 20G<509.697 681>
VStem: 95 634
LayerCount: 2
UndoRedoHistory
Layer: 1
Undoes
EndUndoes
Redoes
EndRedoes
EndUndoRedoHistory
Fore
SplineSet
254 985 m 1
 433 985 l 1
 472 1362 l 1
 254 985 l 1
389 570 m 1
 420 866 l 1
 95 866 l 1
 108 985 l 1
 522 1658 l 1
 681 1658 l 1
 611 985 l 1
 729 985 l 1
 716 866 l 1
 598 866 l 1
 567 570 l 1
 389 570 l 1
EndSplineSet
EndChar

StartChar: uni2215
Encoding: 602 8725 528
Width: 769
VWidth: 0
GlyphClass: 2
Flags: W
HStem: 0 21G<11 222.419> 1638 20G<618.581 830>
LayerCount: 2
UndoRedoHistory
Layer: 1
Undoes
EndUndoes
Redoes
EndRedoes
EndUndoRedoHistory
Fore
SplineSet
11 0 m 1
 626 1658 l 1
 830 1658 l 1
 215 0 l 1
 11 0 l 1
EndSplineSet
EndChar

StartChar: uni2219
Encoding: 603 8729 529
Width: 354
VWidth: 0
GlyphClass: 2
Flags: W
HStem: 653 236<103 315>
VStem: 79 260
LayerCount: 2
UndoRedoHistory
Layer: 1
Undoes
EndUndoes
Redoes
EndRedoes
EndUndoRedoHistory
Fore
SplineSet
79 653 m 1
 103 889 l 1
 339 889 l 1
 315 653 l 1
 79 653 l 1
EndSplineSet
EndChar

StartChar: uniFB01
Encoding: 605 64257 531
Width: 1026
VWidth: 0
GlyphClass: 2
Flags: W
HStem: 0 21G<129 366.105 620 858.095> 1007 177<113 235 488 726> 1362 236<810 1000> 1418 178<526.634 690.825>
LayerCount: 2
UndoRedoHistory
Layer: 1
Undoes
EndUndoes
Redoes
EndRedoes
EndUndoRedoHistory
Fore
SplineSet
785 1362 m 1xe0
 810 1598 l 1
 1025 1598 l 1
 1000 1362 l 1
 785 1362 l 1xe0
129 0 m 1
 235 1007 l 1
 95 1007 l 1
 113 1184 l 1
 253 1184 l 1
 258 1230 l 2
 284 1477 367 1596 589 1596 c 0
 625 1596 665 1593 709 1587 c 1
 690 1411 l 1
 662 1416 637 1418 616 1418 c 0xd0
 531 1418 509 1376 498 1273 c 2
 488 1184 l 1
 980 1184 l 1
 856 0 l 1
 620 0 l 1
 726 1007 l 1
 470 1007 l 1
 364 0 l 1
 129 0 l 1
EndSplineSet
EndChar

StartChar: uniFB02
Encoding: 606 64258 532
Width: 1077
VWidth: 0
GlyphClass: 2
Flags: W
HStem: 0 21G<129 366.105 674 913.105> 1007 177<113 235 488 648> 1466 175<557.953 823.26>
LayerCount: 2
UndoRedoHistory
Layer: 1
Undoes
EndUndoes
Redoes
EndRedoes
EndUndoRedoHistory
Fore
SplineSet
470 1007 m 1
 364 0 l 1
 129 0 l 1
 235 1007 l 1
 95 1007 l 1
 113 1184 l 1
 253 1184 l 1
 258 1230 l 2
 277 1411 307 1641 690 1641 c 0
 792 1641 920 1625 1078 1587 c 1
 911 0 l 1
 674 0 l 1
 827 1457 l 1
 781 1463 742 1466 708 1466 c 0
 519 1466 508 1371 494 1236 c 0
 494 1235 488 1184 488 1184 c 1
 666 1184 l 1
 648 1007 l 1
 470 1007 l 1
EndSplineSet
EndChar

StartChar: uniFB03
Encoding: 607 -1 533
Width: 1524
VWidth: 0
GlyphClass: 2
Flags: W
HStem: 0 21G<129 366.105 623 860.105 1118 1356.09> 1007 177<113 235 488 729 982 1224> 1362 236<1286 1498> 1421 177<528.151 690.496 1022.15 1184.5>
LayerCount: 2
UndoRedoHistory
Layer: 1
Undoes
EndUndoes
Redoes
EndRedoes
EndUndoRedoHistory
Fore
SplineSet
129 0 m 1xd0
 235 1007 l 1
 95 1007 l 1
 113 1184 l 1
 253 1184 l 1
 258 1230 l 2
 282 1459 333 1598 563 1598 c 0
 621 1598 650 1594 709 1587 c 1
 690 1411 l 1
 667 1413 634 1421 611 1421 c 0
 526 1421 507 1358 498 1273 c 2
 488 1184 l 1
 747 1184 l 1
 752 1230 l 2
 776 1459 827 1598 1057 1598 c 0
 1115 1598 1144 1594 1203 1587 c 1
 1184 1411 l 1
 1161 1413 1128 1421 1105 1421 c 0
 1020 1421 1001 1358 992 1273 c 2
 982 1184 l 1
 1478 1184 l 1
 1354 0 l 1
 1118 0 l 1
 1224 1007 l 1
 964 1007 l 1
 858 0 l 1
 623 0 l 1
 729 1007 l 1
 470 1007 l 1
 364 0 l 1
 129 0 l 1xd0
1261 1362 m 1xe0
 1286 1598 l 1xe0
 1523 1598 l 1xd0
 1498 1362 l 1
 1261 1362 l 1xe0
EndSplineSet
EndChar

StartChar: v
Encoding: 118 118 538
Width: 797
VWidth: 0
GlyphClass: 2
Flags: W
HStem: 0 21G<206.243 504.777> 1164 20G<104 341.767 606.016 841>
VStem: 104 237<1020.79 1184>
LayerCount: 2
UndoRedoHistory
Layer: 1
Undoes
EndUndoes
Redoes
EndRedoes
EndUndoRedoHistory
Fore
SplineSet
208 0 m 1
 104 1184 l 1
 341 1184 l 1
 377 245 l 1
 611 1184 l 1
 841 1184 l 1
 499 0 l 1
 208 0 l 1
EndSplineSet
EndChar

StartChar: w
Encoding: 119 119 539
Width: 1211
VWidth: 0
GlyphClass: 2
Flags: W
HStem: 0 21G<193.919 409.928 709.281 913.405> 1164 20G<131 324.664 585.33 769.452 1031.07 1228>
VStem: 131 193<918.784 1184>
LayerCount: 2
UndoRedoHistory
Layer: 1
Undoes
EndUndoes
Redoes
EndRedoes
EndUndoRedoHistory
Fore
SplineSet
195 0 m 1
 131 1184 l 1
 324 1184 l 1
 352 341 l 1
 591 1184 l 1
 768 1184 l 1
 829 344 l 1
 1036 1184 l 1
 1228 1184 l 1
 908 0 l 1
 711 0 l 1
 642 803 l 1
 404 0 l 1
 195 0 l 1
EndSplineSet
EndChar

StartChar: x
Encoding: 120 120 544
Width: 800
VWidth: 0
GlyphClass: 2
Flags: W
HStem: 0 21G<-34 197.793 506.902 739> 1164 20G<92 325.111 616.944 858>
LayerCount: 2
UndoRedoHistory
Layer: 1
Undoes
EndUndoes
Redoes
EndRedoes
EndUndoRedoHistory
Fore
SplineSet
-34 0 m 1
 292 623 l 1
 92 1184 l 1
 318 1184 l 1
 446 824 l 1
 627 1184 l 1
 858 1184 l 1
 528 593 l 1
 739 0 l 1
 514 0 l 1
 377 386 l 1
 188 0 l 1
 -34 0 l 1
EndSplineSet
EndChar

StartChar: y
Encoding: 121 121 545
Width: 807
VWidth: 0
GlyphClass: 2
Flags: W
HStem: -296 178<33 233.947> 1164 20G<94 335.358 618.567 864>
VStem: 94 240<1075.5 1184>
LayerCount: 2
UndoRedoHistory
Layer: 1
Undoes
EndUndoes
Redoes
EndRedoes
EndUndoRedoHistory
Fore
SplineSet
14 -296 m 1
 33 -118 l 1
 222 -118 263 -95 247 22 c 0
 240 76 233 131 226 185 c 0
 182 518 138 851 94 1184 c 1
 334 1184 l 1
 392 330 l 1
 624 1184 l 1
 864 1184 l 1
 451 -60 l 2
 392 -238 256 -296 38 -296 c 2
 14 -296 l 1
EndSplineSet
EndChar

StartChar: yen
Encoding: 165 165 549
Width: 947
VWidth: 0
GlyphClass: 2
Flags: W
HStem: 0 21G<327 567.11> 237 155<191 352 606 766> 512 153<220 373 659 795> 1638 20G<146 381.219 850.667 1094>
LayerCount: 2
UndoRedoHistory
Layer: 1
Undoes
EndUndoes
Redoes
EndRedoes
EndUndoRedoHistory
Fore
SplineSet
327 0 m 1
 352 237 l 1
 175 237 l 1
 191 392 l 1
 368 392 l 1
 381 512 l 1
 204 512 l 1
 220 665 l 1
 373 665 l 1
 146 1658 l 1
 377 1658 l 1
 539 890 l 1
 859 1658 l 1
 1094 1658 l 1
 659 665 l 1
 811 665 l 1
 795 512 l 1
 619 512 l 1
 606 392 l 1
 782 392 l 1
 766 237 l 1
 590 237 l 1
 565 0 l 1
 327 0 l 1
EndSplineSet
EndChar

StartChar: z
Encoding: 122 122 551
Width: 717
VWidth: 0
GlyphClass: 2
Flags: W
HStem: 0 178<288 614> 1007 177<175 474>
LayerCount: 2
UndoRedoHistory
Layer: 1
Undoes
EndUndoes
Redoes
EndRedoes
EndUndoRedoHistory
Fore
SplineSet
15 0 m 1
 32 158 l 1
 474 1007 l 1
 157 1007 l 1
 175 1184 l 1
 746 1184 l 1
 733 1057 l 1
 288 178 l 1
 633 178 l 1
 614 0 l 1
 15 0 l 1
EndSplineSet
EndChar

StartChar: zero
Encoding: 48 48 555
Width: 1005
VWidth: 0
GlyphClass: 2
Flags: W
HStem: -17 195<372.74 585.059> 1480 194<493.105 716.073>
LayerCount: 2
UndoRedoHistory
Layer: 1
Undoes
EndUndoes
Redoes
EndRedoes
EndUndoRedoHistory
Fore
SplineSet
451 -17 m 0
 173 -17 59 188 89 473 c 2
 163 1184 l 2
 194 1477 343 1674 629 1674 c 0
 913 1674 1023 1477 992 1184 c 2
 918 473 l 2
 888 186 731 -17 451 -17 c 0
472 178 m 0
 617 178 665 330 680 473 c 2
 754 1184 l 2
 770 1334 760 1480 609 1480 c 0
 458 1480 416 1334 400 1184 c 2
 326 473 l 2
 311 330 329 178 472 178 c 0
EndSplineSet
EndChar
